<svg width="62" height="28" fill="none" xmlns="http://www.w3.org/2000/svg"><path d="M.405 22.828V1.387H5.53v8.858l10.043-8.858h5.984l-7.36 6.726 8.53 14.715h-5.64l-6.226-10.78h-.894L5.53 15.92v6.907H.405ZM27.402 27.062h-4.024L33.764.035h3.921L27.402 27.062ZM55.885 15.981h5.331c-.367 2.182-1.467 3.934-3.302 5.255-1.81 1.322-4.127 1.982-6.947 1.982-3.691 0-6.58-1.01-8.667-3.032-2.064-2.043-3.095-4.735-3.095-8.079 0-3.343 1.043-6.026 3.13-8.048C44.42 2.017 47.297.996 50.966.996c2.683 0 4.918.61 6.707 1.832 1.788 1.201 2.889 2.803 3.301 4.805H55.61c-.573-1.762-2.12-2.643-4.643-2.643-2.11 0-3.726.671-4.85 2.012-1.1 1.322-1.65 3.023-1.65 5.105 0 2.083.55 3.794 1.65 5.136 1.124 1.32 2.74 1.982 4.85 1.982 1.307 0 2.385-.28 3.233-.841a3.92 3.92 0 0 0 1.685-2.403Z" fill="#E6E6E6"/></svg>