<svg width="1368" height="814" viewBox="0 0 1368 814" fill="none" xmlns="http://www.w3.org/2000/svg">
<g filter="url(#filter0_b_28_1384)">
<path d="M197.547 85.8334C214.116 85.8334 227.547 72.402 227.547 55.8334V30C227.547 13.4314 240.979 0 257.547 0H1338C1354.57 0 1368 13.4315 1368 30V784C1368 800.569 1354.57 814 1338 814H30C13.4314 814 0 800.569 0 784L0 115.833C0 99.2649 13.4315 85.8334 30 85.8334H197.547Z" fill="url(#paint0_linear_28_1384)" fill-opacity="0.4"/>
<path d="M197.547 86.8334C214.668 86.8334 228.547 72.9543 228.547 55.8334V30C228.547 13.9837 241.531 1 257.547 1H1338C1354.02 1 1367 13.9837 1367 30V784C1367 800.016 1354.02 813 1338 813H30C13.9837 813 1 800.016 1 784V115.833C1 99.8172 13.9837 86.8334 30 86.8334H197.547Z" stroke="#C086FF" stroke-width="2"/>
</g>
<defs>
<filter id="filter0_b_28_1384" x="-13" y="-13" width="1394" height="840" filterUnits="userSpaceOnUse" color-interpolation-filters="sRGB">
<feFlood flood-opacity="0" result="BackgroundImageFix"/>
<feGaussianBlur in="BackgroundImageFix" stdDeviation="6.5"/>
<feComposite in2="SourceAlpha" operator="in" result="effect1_backgroundBlur_28_1384"/>
<feBlend mode="normal" in="SourceGraphic" in2="effect1_backgroundBlur_28_1384" result="shape"/>
</filter>
<linearGradient id="paint0_linear_28_1384" x1="1368" y1="-63.4544" x2="-251.544" y2="1082.48" gradientUnits="userSpaceOnUse">
<stop stop-color="#2B2443"/>
<stop offset="1" stop-color="white" stop-opacity="0.2"/>
</linearGradient>
</defs>
</svg>
