<svg width="816" height="868" viewBox="0 0 816 868" fill="none" xmlns="http://www.w3.org/2000/svg">

<defs>
    <radialGradient id="myGradient">
      <stop offset="50%" stop-color="#ffffff" />
      <stop offset="95%" stop-color="#5C03BC" />
    </radialGradient>
  </defs>

<path fill-rule="evenodd" clip-rule="evenodd" d="M790.038 605.151L790.038 610.151L740.865 610.151L740.865 662.055L577.654 662.055C576.484 668.224 571.064 672.888 564.555 672.888C557.191 672.888 551.222 666.919 551.222 659.555C551.222 652.191 557.191 646.221 564.555 646.221C571.064 646.221 576.484 650.886 577.654 657.055L735.865 657.055L735.865 605.151L790.038 605.151Z" fill="#5C03BC"/>
<path fill-rule="evenodd" clip-rule="evenodd" d="M814.465 368.474L814.465 363.474L765.292 363.474L765.292 336.711L606.779 336.711C605.609 330.542 600.189 325.877 593.68 325.877C586.316 325.877 580.346 331.847 580.346 339.211C580.346 346.574 586.316 352.544 593.68 352.544C600.189 352.544 605.609 347.879 606.779 341.711L760.292 341.711L760.292 368.474L814.465 368.474Z" fill="#5C03BC"/>
<path fill-rule="evenodd" clip-rule="evenodd" d="M815.405 262.232L815.405 257.232L670.679 257.232L670.679 230.469L607.719 230.469C606.548 224.301 601.129 219.636 594.619 219.636C587.255 219.636 581.286 225.606 581.286 232.969C581.286 240.333 587.255 246.303 594.619 246.303C601.129 246.303 606.548 241.638 607.719 235.469L665.679 235.469L665.679 262.232L815.405 262.232Z" fill="#5C03BC"/>
<path fill-rule="evenodd" clip-rule="evenodd" d="M814.465 470.525L814.465 475.525L327.822 475.525L231.052 563.113L83.4705 563.113C82.3003 569.282 76.8804 573.947 70.3712 573.947C63.0074 573.947 57.0378 567.977 57.0378 560.613C57.0378 553.249 63.0074 547.28 70.3712 547.28C76.8804 547.28 82.3003 551.944 83.4705 558.113L229.125 558.113L325.895 470.525L814.465 470.525Z" fill="#5C03BC"/>
<path fill-rule="evenodd" clip-rule="evenodd" d="M558.605 391.047L814.465 391.047L814.465 396.047L556.736 396.047L424.179 280.886L207.486 280.886C206.316 287.054 200.896 291.719 194.387 291.719C187.023 291.719 181.053 285.749 181.053 278.386C181.053 271.022 187.023 265.052 194.387 265.052C200.896 265.052 206.316 269.717 207.486 275.886L426.048 275.886L558.605 391.047Z" fill="#5C03BC"/>
<path fill-rule="evenodd" clip-rule="evenodd" d="M533.953 582.577L790.038 582.577L790.038 577.577L532.094 577.577L468.351 632.6L468.351 840.587C462.182 841.757 457.518 847.177 457.518 853.686C457.518 861.05 463.487 867.02 470.851 867.02C478.215 867.02 484.185 861.05 484.185 853.686C484.185 847.177 479.52 841.757 473.351 840.587L473.351 634.889L533.953 582.577Z" fill="#5C03BC"/>
<path fill-rule="evenodd" clip-rule="evenodd" d="M547.106 285.109L803.191 285.109L803.191 290.109L545.246 290.109L481.504 235.086L481.504 27.0992C475.335 25.929 470.671 20.5091 470.671 13.9998C470.671 6.63603 476.64 0.66649 484.004 0.66649C491.368 0.66649 497.337 6.63603 497.337 13.9998C497.337 20.5091 492.673 25.929 486.504 27.0992L486.504 232.797L547.106 285.109Z" fill="#5C03BC"/>
<path fill-rule="evenodd" clip-rule="evenodd" d="M412.398 503.099L814.465 503.099L814.465 498.099L410.517 498.099L243.984 644.079L27.0996 644.079C25.9294 637.91 20.5096 633.245 14.0003 633.245C6.63648 633.245 0.666932 639.215 0.666932 646.579C0.666931 653.943 6.63647 659.912 14.0003 659.912C20.5096 659.912 25.9294 655.248 27.0996 649.079L245.866 649.079L412.398 503.099Z" fill="#5C03BC"/>
<path d="M790.038 607.651L738.365 607.651L738.365 659.555L579 659.555" stroke="#5C03BC"/>

    <circle
     class="circle" r="7"  fill="url('#myGradient')">
    <animateMotion
     begin='0s' dur="3s" repeatCount="indefinite"
                    path="M790.038 607.651L738.365 607.651L738.365 659.555L579 659.555" />
    </circle>

<path d="M814.465 365.974L762.792 365.974L762.792 339.211L608 339.211" stroke="#5C03BC"/>

  <circle
     class="circle" r="7"  fill="url('#myGradient')">
    <animateMotion
     begin='4s' dur="5s" repeatCount="indefinite"
                    path="M814.465 365.974L762.792 365.974L762.792 339.211L608 339.211" />
    </circle>

<path d="M815.405 259.733L668.179 259.733L668.179 232.97L608.5 232.97" stroke="#5C03BC"/>

  <circle
     class="circle" r="7"  fill="url('#myGradient')">
    <animateMotion
     begin='2s' dur="2s" repeatCount="indefinite"
                    path="M815.405 259.733L668.179 259.733L668.179 232.97L608.5 232.97" />
    </circle>

<path d="M814.465 473.026L326.858 473.026L230.088 560.614L84 560.614" stroke="#5C03BC"/>

  <circle
     class="circle" r="7"  fill="url('#myGradient')">
    <animateMotion
     begin='5s' dur="3s" repeatCount="indefinite"
                    path="M814.465 473.026L326.858 473.026L230.088 560.614L84 560.614" />
    </circle>

<path d="M814.465 393.548L557.671 393.548L425.114 278.386L208 278.386" stroke="#5C03BC"/>

  <circle
     class="circle" r="7"  fill="url('#myGradient')">
    <animateMotion
     begin='6s' dur="6s" repeatCount="indefinite"
                    path="M814.465 393.548L557.671 393.548L425.114 278.386L208 278.386" />
    </circle>

<path d="M790.038 580.078L533.023 580.078L470.851 633.745L470.851 838.5" stroke="#5C03BC"/>

  <circle
     class="circle" r="7"  fill="url('#myGradient')">
    <animateMotion
     begin='7s' dur="7s" repeatCount="indefinite"
                    path="M790.038 580.078L533.023 580.078L470.851 633.745L470.851 838.5" />
    </circle>

<path d="M803.191 287.61L546.176 287.61L484.004 233.942L484.004 27.5" stroke="#5C03BC"/>

  <circle
     class="circle" r="7"  fill="url('#myGradient')">
    <animateMotion
     begin='3s' dur="3s" repeatCount="indefinite"
                    path="M803.191 287.61L546.176 287.61L484.004 233.942L484.004 27.5" />
    </circle>

<path d="M814.465 500.599L411.457 500.599L244.925 646.579L27.5 646.58" stroke="#5C03BC"/>

  <circle
     class="circle" r="7"  fill="url('#myGradient')">
    <animateMotion
     begin='4s' dur="4s" repeatCount="indefinite"
                    path="M814.465 500.599L411.457 500.599L244.925 646.579L27.5 646.58" />
    </circle>

</svg>
