<svg width="776" height="868" viewBox="0 0 776 868" fill="none" xmlns="http://www.w3.org/2000/svg">
<path d="M738.364 607.651L738.364 605.151L735.864 605.151L735.864 607.651L738.364 607.651ZM738.364 659.555L738.364 662.055L740.864 662.055L740.864 659.555L738.364 659.555ZM564.555 646.222C557.191 646.222 551.221 652.191 551.221 659.555C551.221 666.919 557.191 672.888 564.555 672.888C571.918 672.888 577.888 666.919 577.888 659.555C577.888 652.191 571.918 646.222 564.555 646.222ZM790.038 605.151L738.364 605.151L738.364 610.151L790.038 610.151L790.038 605.151ZM735.864 607.651L735.864 659.555L740.864 659.555L740.864 607.651L735.864 607.651ZM738.364 657.055L564.555 657.055L564.555 662.055L738.364 662.055L738.364 657.055Z" fill="#5C03BC"/>
<path d="M762.792 365.974L762.792 368.474L760.292 368.474L760.292 365.974L762.792 365.974ZM762.792 339.211L762.792 336.711L765.292 336.711L765.292 339.211L762.792 339.211ZM593.68 352.544C586.316 352.544 580.346 346.574 580.346 339.211C580.346 331.847 586.316 325.877 593.68 325.877C601.043 325.877 607.013 331.847 607.013 339.211C607.013 346.574 601.043 352.544 593.68 352.544ZM814.465 368.474L762.792 368.474L762.792 363.474L814.465 363.474L814.465 368.474ZM760.292 365.974L760.292 339.211L765.292 339.211L765.292 365.974L760.292 365.974ZM762.792 341.711L593.68 341.711L593.68 336.711L762.792 336.711L762.792 341.711Z" fill="#5C03BC"/>
<path d="M668.179 259.733L668.179 262.233L665.679 262.233L665.679 259.733L668.179 259.733ZM668.179 232.97L668.179 230.47L670.679 230.47L670.679 232.97L668.179 232.97ZM594.619 246.303C587.255 246.303 581.286 240.333 581.286 232.97C581.286 225.606 587.255 219.636 594.619 219.636C601.983 219.636 607.952 225.606 607.952 232.97C607.952 240.333 601.983 246.303 594.619 246.303ZM815.405 262.233L668.179 262.233L668.179 257.233L815.405 257.233L815.405 262.233ZM665.679 259.733L665.679 232.97L670.679 232.97L670.679 259.733L665.679 259.733ZM668.179 235.47L594.619 235.47L594.619 230.47L668.179 230.47L668.179 235.47Z" fill="#5C03BC"/>
<path d="M326.858 473.025L326.858 470.525L325.895 470.525L325.18 471.172L326.858 473.025ZM230.088 560.613L230.088 563.113L231.051 563.113L231.766 562.467L230.088 560.613ZM70.3709 547.28C63.0071 547.28 57.0376 553.249 57.0376 560.613C57.0376 567.977 63.0071 573.947 70.3709 573.947C77.7347 573.947 83.7042 567.977 83.7042 560.613C83.7042 553.249 77.7347 547.28 70.3709 547.28ZM814.465 470.525L326.858 470.525L326.858 475.525L814.465 475.525L814.465 470.525ZM325.18 471.172L228.41 558.76L231.766 562.467L328.536 474.879L325.18 471.172ZM230.088 558.113L70.3709 558.113L70.3709 563.113L230.088 563.113L230.088 558.113Z" fill="#5C03BC"/>
<path d="M557.67 393.548L556.031 395.435L556.736 396.048L557.67 396.048L557.67 393.548ZM425.113 278.386L426.753 276.498L426.048 275.886L425.113 275.886L425.113 278.386ZM194.386 265.052C187.023 265.052 181.053 271.022 181.053 278.386C181.053 285.75 187.023 291.719 194.386 291.719C201.75 291.719 207.72 285.75 207.72 278.386C207.72 271.022 201.75 265.052 194.386 265.052ZM814.465 391.048L557.67 391.048L557.67 396.048L814.465 396.048L814.465 391.048ZM559.31 391.66L426.753 276.498L423.474 280.273L556.031 395.435L559.31 391.66ZM425.113 275.886L194.386 275.886L194.386 280.886L425.113 280.886L425.113 275.886Z" fill="#5C03BC"/>
<path d="M533.023 580.077L531.389 578.185L532.093 577.577L533.023 577.577L533.023 580.077ZM470.851 633.745L468.351 633.745L468.351 632.6L469.217 631.852L470.851 633.745ZM470.851 867.02C463.487 867.02 457.517 861.05 457.517 853.687C457.517 846.323 463.487 840.353 470.851 840.353C478.215 840.353 484.184 846.323 484.184 853.687C484.184 861.05 478.215 867.02 470.851 867.02ZM790.038 582.577L533.023 582.577L533.023 577.577L790.038 577.577L790.038 582.577ZM534.656 581.97L472.484 635.637L469.217 631.852L531.389 578.185L534.656 581.97ZM473.351 633.745L473.351 853.687L468.351 853.687L468.351 633.745L473.351 633.745Z" fill="#5C03BC"/>
<path d="M546.176 287.609L544.543 289.502L545.246 290.109L546.176 290.109L546.176 287.609ZM484.004 233.942L481.504 233.942L481.504 235.086L482.371 235.834L484.004 233.942ZM484.004 0.666653C476.64 0.666653 470.671 6.63619 470.671 14C470.671 21.3638 476.64 27.3333 484.004 27.3333C491.368 27.3333 497.337 21.3638 497.337 14C497.337 6.63619 491.368 0.666653 484.004 0.666653ZM803.191 285.109L546.176 285.109L546.176 290.109L803.191 290.109L803.191 285.109ZM547.81 285.717L485.638 232.049L482.371 235.834L544.543 289.502L547.81 285.717ZM486.504 233.942L486.504 14L481.504 14L481.504 233.942L486.504 233.942Z" fill="#5C03BC"/>
<path d="M411.457 500.599L409.809 498.719L410.516 498.099L411.457 498.099L411.457 500.599ZM244.925 646.579L246.573 648.459L245.865 649.079L244.925 649.079L244.925 646.579ZM14.0001 659.912C6.63623 659.912 0.666687 653.943 0.666687 646.579C0.666687 639.215 6.63623 633.246 14.0001 633.246C21.3638 633.246 27.3334 639.215 27.3334 646.579C27.3334 653.943 21.3638 659.912 14.0001 659.912ZM814.465 503.099L411.457 503.099L411.457 498.099L814.465 498.099L814.465 503.099ZM413.105 502.479L246.573 648.459L243.277 644.699L409.809 498.719L413.105 502.479ZM244.925 649.079L14.0001 649.079L14.0001 644.079L244.925 644.079L244.925 649.079Z" fill="#5C03BC"/>
</svg>
