<svg xmlns="http://www.w3.org/2000/svg" xmlns:xlink="http://www.w3.org/1999/xlink" viewBox="0 0 1356.27 807.02"><defs><style>.cls-1,.cls-4{fill:none;}.cls-2{clip-path:url(#clip-path);}.cls-3{fill-opacity:0.4;fill:url(#Безымянный_градиент_3);}.cls-4{stroke:#c086ff;stroke-width:1.98px;}</style><clipPath id="clip-path" transform="translate(-0.32 -0.24)"><rect class="cls-1" width="351.94" height="166.69"/></clipPath><linearGradient id="Безымянный_градиент_3" x1="1370.33" y1="505.01" x2="-235.33" y2="-631.1" gradientTransform="matrix(1, 0, 0, -1, 0, 461.76)" gradientUnits="userSpaceOnUse"><stop offset="0" stop-color="#2b2443"/><stop offset="1" stop-color="#fff" stop-opacity="0.2"/></linearGradient></defs><g id="Слой_2" data-name="Слой 2"><g id="Слой_1-2" data-name="Слой 1"><g class="cls-2"><path class="cls-3" d="M196.17,85.33a29.73,29.73,0,0,0,29.74-29.74V30A29.74,29.74,0,0,1,255.66.24H1326.84A29.74,29.74,0,0,1,1356.59,30V777.51a29.75,29.75,0,0,1-29.75,29.75H30.06A29.74,29.74,0,0,1,.32,777.51V115.08A29.74,29.74,0,0,1,30.06,85.33Z" transform="translate(-0.32 -0.24)"/><path class="cls-4" d="M196.17,86.32A30.73,30.73,0,0,0,226.9,55.59V30A28.76,28.76,0,0,1,255.66,1.23H1326.84A28.75,28.75,0,0,1,1355.6,30V777.51a28.76,28.76,0,0,1-28.76,28.76H30.06A28.76,28.76,0,0,1,1.31,777.51V115.08A28.76,28.76,0,0,1,30.06,86.32Z" transform="translate(-0.32 -0.24)"/></g></g></g></svg>