<svg xmlns="http://www.w3.org/2000/svg" width="97" height="97" fill="none"><g clip-path="url(#a)"><path fill="url(#b)" d="M48.494 24.248h41.995a48.488 48.488 0 0 0-83.994.006l20.998 36.37.019-.005a24.22 24.22 0 0 1 20.982-36.37Z"/><path fill="url(#c)" d="M69.505 60.62 48.508 96.99A48.488 48.488 0 0 0 90.5 24.245H48.504l-.005.018A24.22 24.22 0 0 1 69.505 60.62Z"/><path fill="url(#d)" d="M27.5 60.631 6.504 24.262A48.488 48.488 0 0 0 48.505 97l20.998-36.37-.014-.013a24.22 24.22 0 0 1-41.988.014Z"/><path fill="#5C03BC" d="M48.5 67.698c10.603 0 19.198-8.595 19.198-19.198S59.103 29.302 48.5 29.302 29.302 37.897 29.302 48.5 37.897 67.698 48.5 67.698Z"/></g><defs><linearGradient id="b" x1="97.289" x2="2.779" y1="17.631" y2="32.449" gradientUnits="userSpaceOnUse"><stop offset=".008" stop-color="#5C03BC"/><stop offset=".531" stop-color="#E536AB"/><stop offset=".899" stop-color="#F4E5F0"/></linearGradient><linearGradient id="c" x1="45.766" x2="95.931" y1="102.618" y2="18.654" gradientUnits="userSpaceOnUse"><stop offset=".008" stop-color="#5C03BC"/><stop offset=".531" stop-color="#E536AB"/><stop offset=".899" stop-color="#F4E5F0"/></linearGradient><linearGradient id="d" x1="-3.736" x2="63.668" y1="24.262" y2="84.959" gradientUnits="userSpaceOnUse"><stop offset=".008" stop-color="#5C03BC"/><stop offset=".531" stop-color="#E536AB"/><stop offset=".899" stop-color="#F4E5F0"/></linearGradient><clipPath id="a"><path fill="#fff" d="M0 0h97v97H0z"/></clipPath></defs></svg>