<svg xmlns="http://www.w3.org/2000/svg" width="97" height="97" fill="none"><path fill="url(#a)" fill-rule="evenodd" d="m48.5 97 35.03-9.433L91.608 0H5.388l8.083 87.567L48.501 97Zm26.82-79.197H21.143l1.306 10.573h27.485l-1.465.61-25.07 10.445.832 10.338 24.238.077 12.994.04-.833 13.782-12.161 3.422v-.01l-.098.026-11.744-2.965-.712-8.556H24.941l1.427 16.514 22.1 6.536v-.012l.04.012 21.983-6.419 2.853-32.794H48.43l.038-.016v-10.42 10.416l25.786-11.026h.004l1.067-10.573h-.004Z" clip-rule="evenodd"/><path fill="url(#b)" d="M48.5 17.803V7.093l34.969-.004-6.544 74.775-28.344 7.635-.081-.02V78.632l.008.003 21.983-6.419 2.853-32.794H48.5v-.034l25.754-11.011h.003l1.067-10.573H48.5Z"/><path fill="url(#c)" d="M48.5 28.377v.596l1.433-.596H48.5Z"/><path fill="url(#d)" d="m48.5 49.846 12.962.04-.833 13.782L48.5 67.081V49.845Z"/><defs><linearGradient id="a" x1="12.602" x2="90.811" y1="87.453" y2="-2.867" gradientUnits="userSpaceOnUse"><stop offset=".008" stop-color="#5C03BC"/><stop offset=".531" stop-color="#E536AB"/><stop offset=".899" stop-color="#F4E5F0"/></linearGradient><linearGradient id="b" x1="94.709" x2="35.505" y1="43.917" y2="43.7" gradientUnits="userSpaceOnUse"><stop offset=".008" stop-color="#5C03BC"/><stop offset=".531" stop-color="#E536AB"/><stop offset=".899" stop-color="#F4E5F0"/></linearGradient><linearGradient id="c" x1="94.709" x2="35.505" y1="43.917" y2="43.7" gradientUnits="userSpaceOnUse"><stop offset=".008" stop-color="#5C03BC"/><stop offset=".531" stop-color="#E536AB"/><stop offset=".899" stop-color="#F4E5F0"/></linearGradient><linearGradient id="d" x1="94.709" x2="35.505" y1="43.917" y2="43.7" gradientUnits="userSpaceOnUse"><stop offset=".008" stop-color="#5C03BC"/><stop offset=".531" stop-color="#E536AB"/><stop offset=".899" stop-color="#F4E5F0"/></linearGradient></defs></svg>