<svg xmlns="http://www.w3.org/2000/svg" width="97" height="97" fill="none"><mask id="b" width="97" height="75" x="0" y="11" maskUnits="userSpaceOnUse" style="mask-type:alpha"><g fill="#086DD7" clip-path="url(#a)"><path d="M94.854 43.018c-.258-.205-2.662-2.031-7.732-2.031a24.516 24.516 0 0 0-3.995.345c-.982-6.765-6.543-10.063-6.792-10.21l-1.361-.79-.896 1.299a18.41 18.41 0 0 0-2.42 5.692c-.908 3.861-.356 7.488 1.594 10.589-2.355 1.32-6.133 1.645-6.898 1.674H3.802a2.981 2.981 0 0 0-2.969 2.973 45.504 45.504 0 0 0 2.74 16.166c2.155 5.683 5.36 9.87 9.531 12.432 4.674 2.878 12.267 4.523 20.874 4.523a61.97 61.97 0 0 0 11.592-1.056 48.285 48.285 0 0 0 15.13-5.528 41.641 41.641 0 0 0 10.324-8.5c4.956-5.642 7.908-11.926 10.103-17.51h.875c5.426 0 8.763-2.184 10.603-4.014a11.642 11.642 0 0 0 2.797-4.166l.388-1.143-.936-.745Z"/><path d="M9.6 47.743h8.382c.405 0 .732-.33.732-.736v-7.509a.734.734 0 0 0-.728-.74H9.6a.734.734 0 0 0-.732.736V47.008c0 .406.328.735.732.735ZM21.151 47.743h8.382c.405 0 .732-.33.732-.736v-7.509a.734.734 0 0 0-.728-.74h-8.386a.738.738 0 0 0-.736.74v7.51a.738.738 0 0 0 .736.735ZM32.878 47.743h8.382c.404 0 .732-.33.732-.736v-7.509a.734.734 0 0 0-.728-.74h-8.386a.734.734 0 0 0-.732.736V47.008c0 .406.328.735.732.735ZM44.466 47.743h8.382a.738.738 0 0 0 .736-.736v-7.509c0-.409-.33-.74-.736-.74h-8.382a.734.734 0 0 0-.732.736V47.008c0 .406.328.735.732.735ZM21.151 36.94h8.382a.738.738 0 0 0 .732-.74v-7.51a.734.734 0 0 0-.732-.735h-8.382a.738.738 0 0 0-.736.736V36.2c.002.408.33.738.736.74ZM32.878 36.94h8.382a.738.738 0 0 0 .732-.74v-7.51a.734.734 0 0 0-.732-.735h-8.382a.734.734 0 0 0-.732.736V36.2c0 .407.327.738.732.74ZM44.466 36.94h8.382a.742.742 0 0 0 .736-.74v-7.51a.738.738 0 0 0-.736-.735h-8.382a.734.734 0 0 0-.732.736V36.2c0 .407.327.738.732.74ZM44.466 26.133h8.382a.738.738 0 0 0 .736-.736v-7.514a.738.738 0 0 0-.736-.736h-8.382a.734.734 0 0 0-.732.736v7.514c0 .406.328.736.732.736ZM56.156 47.743h8.382a.738.738 0 0 0 .736-.736v-7.509c0-.409-.329-.74-.736-.74h-8.382a.734.734 0 0 0-.732.736V47.008c0 .406.328.735.732.735Z"/></g></mask><g mask="url(#b)"><path fill="url(#c)" d="M.347 11.319h96.869V85.68H.347z"/></g><defs><linearGradient id="c" x1="19.553" x2="69.319" y1="75.246" y2="17.159" gradientUnits="userSpaceOnUse"><stop offset=".008" stop-color="#5C03BC"/><stop offset=".531" stop-color="#E536AB"/><stop offset=".899" stop-color="#F4E5F0"/></linearGradient><clipPath id="a"><path fill="#fff" d="M0 11.464h97V85.55H0z"/></clipPath></defs></svg>