<svg xmlns="http://www.w3.org/2000/svg" width="97" height="97" fill="none"><mask id="a" width="65" height="97" x="18" y="0" maskUnits="userSpaceOnUse" style="mask-type:alpha"><path fill="#1ABCFE" fill-rule="evenodd" d="M50.516 48.5c0-8.928 7.238-16.167 16.167-16.167 8.928 0 16.166 7.239 16.166 16.167s-7.238 16.167-16.166 16.167c-8.929 0-16.167-7.239-16.167-16.167Z" clip-rule="evenodd"/><path fill="#0ACF83" fill-rule="evenodd" d="M18.183 80.833c0-8.928 7.238-16.166 16.166-16.166h16.167v16.166C50.516 89.762 43.278 97 34.35 97c-8.93 0-16.167-7.238-16.167-16.167Z" clip-rule="evenodd"/><path fill="#FF7262" fill-rule="evenodd" d="M50.516 0v32.333h16.167c8.928 0 16.166-7.238 16.166-16.166C82.85 7.238 75.611 0 66.683 0H50.516Z" clip-rule="evenodd"/><path fill="#F24E1E" fill-rule="evenodd" d="M18.183 16.167c0 8.928 7.238 16.166 16.166 16.166h16.167V0H34.35c-8.93 0-16.167 7.238-16.167 16.167Z" clip-rule="evenodd"/><path fill="#A259FF" fill-rule="evenodd" d="M18.183 48.5c0 8.928 7.238 16.167 16.166 16.167h16.167V32.333H34.35c-8.93 0-16.167 7.239-16.167 16.167Z" clip-rule="evenodd"/></mask><g mask="url(#a)"><path fill="url(#b)" d="M11.613-7.92h73.775V97H11.612V-7.92Z"/></g><defs><linearGradient id="b" x1="26.24" x2="89.988" y1="82.277" y2="7.671" gradientUnits="userSpaceOnUse"><stop offset=".008" stop-color="#5C03BC"/><stop offset=".531" stop-color="#E536AB"/><stop offset=".899" stop-color="#F4E5F0"/></linearGradient></defs></svg>