<svg xmlns="http://www.w3.org/2000/svg" width="97" height="97" fill="none"><path fill="url(#a)" fill-rule="evenodd" d="m57.815 35.583-.003-.002c3.958-.509 7.966.452 11.248 2.696a23.382 23.382 0 0 0-8.608-8.625 23.77 23.77 0 0 0-11.838-3.18c-.469 0-.926.032-1.384.064l-.257.018v-.008h-.01c.362-6.288 4.343-18.854 16.071-25.643l-.008.011.01-.005A.119.119 0 0 1 63.052.9c.004 0 .007-.004.011-.006.005-.004.009-.007.012-.007a.168.168 0 0 1 .088 0 .121.121 0 0 1 .104.093c.006.015.01.032.01.049a8.355 8.355 0 0 0 .689 1.806c.143.289.308.603.514.952.36.611.73 1.19 1.1 1.768 2.943 4.604 6.155 8.206 9.287 11.718 3.43 3.847 6.764 7.586 9.544 12.416a45.054 45.054 0 0 1 2.708 5.55v-.005a.292.292 0 0 0-.003-.037v-.006a.02.02 0 0 1 0-.004l.003.003.007.067.001.003-.008-.078a47.592 47.592 0 0 0-4.729-14.007c3.223 1.647 7.338 6.858 9.367 11.685l-.003.002a46.983 46.983 0 0 1 3.03 23.191c-.019.152-.036.304-.053.455-.051.445-.101.887-.16 1.332-1.996 11.382-8.236 21.61-17.487 28.666-9.251 7.056-20.842 10.427-32.483 9.446-11.642-.98-22.489-6.24-30.4-14.741C6.29 72.71 1.89 61.585 1.869 50.033v-.238c.068-1.48.197-2.955.388-4.424.312-2.753.873-5.178.887-5.232a38.763 38.763 0 0 1 6.264-13.983 40.37 40.37 0 0 1 2.82-3.52 40.522 40.522 0 0 1 1.56-1.654 33.903 33.903 0 0 1 4.564-3.865 8.376 8.376 0 0 1 1.559-.818v.01l.002-.002c-.084 1.268-.183 6.346.704 9.547.23.829.528 1.53.908 2.008h.022l.007-.008h-.029a34.529 34.529 0 0 1 11.239-8.587 1.503 1.503 0 0 1-.006.02l.027-.013a21.17 21.17 0 0 0 .132 11.283c.418.28.82.581 1.205.903.64.538 1.357 1.236 2.73 2.575l.478.466c2.13 2.075 6.503 4.2 9.144 5.484 1.286.626 2.162 1.051 2.168 1.174-.074 1.149-4.18 5.11-5.615 5.11-13.277 0-15.433 7.94-15.433 7.94.374 4.25 2.416 8.026 5.32 10.961a22.279 22.279 0 0 0 5.666 4.13 5.078 5.078 0 0 1-.117-.054l.13.066c-.136-.06-.264-.124-.392-.188a12.375 12.375 0 0 0-.256-.126c.227.116.453.227.68.335l-.033-.02c.26.133.524.252.788.37.457.202.914.387 1.371.556a20.977 20.977 0 0 0 6.075 1.159c2.852.131 5.422-.183 7.705-.85 16.342-4.786 18.001-27.68 3.269-34.963l.015-.002Z" clip-rule="evenodd"/><path fill="#5C03BC" d="M48.629 41.15c-.078 1.148-4.18 5.108-5.616 5.108-13.275 0-15.432 7.942-15.432 7.942.588 6.686 5.3 12.197 10.998 15.103.26.133.524.254.788.371.457.2.914.385 1.37.555a20.977 20.977 0 0 0 6.076 1.16c23.275 1.079 27.78-27.515 10.986-35.817 3.961-.51 7.973.453 11.258 2.703a23.428 23.428 0 0 0-8.618-8.633 23.769 23.769 0 0 0-11.838-3.18c-.554 0-1.096.046-1.641.083a23.514 23.514 0 0 0-12.854 4.896c.712.596 1.515 1.391 3.208 3.041 3.168 3.086 11.294 6.283 11.312 6.658l.003.01Z"/><defs><linearGradient id="a" x1="6.341" x2="76.408" y1="90.1" y2="2.291" gradientUnits="userSpaceOnUse"><stop stop-color="#5C03BC"/><stop offset=".531" stop-color="#E536AB"/><stop offset=".899" stop-color="#F4E5F0"/></linearGradient></defs></svg>