<svg width="892" height="893" viewBox="0 0 892 893" fill="none" xmlns="http://www.w3.org/2000/svg">
<rect x="349.524" y="350" width="192.949" height="192.949" fill="#5C03BC" stroke="#C086FF" stroke-width="2"/>
<path d="M371.6 445.771L370.271 444.278L368.788 445.597L370.096 447.09L371.6 445.771ZM375.068 449.727L377.053 449.97L377.162 449.081L376.572 448.408L375.068 449.727ZM374.422 455V457H376.192L376.407 455.243L374.422 455ZM370.467 455L368.963 456.318L369.56 457H370.467V455ZM363.532 447.09L361.546 446.852L361.44 447.737L362.028 448.408L363.532 447.09ZM363.848 444.453L362.519 442.959L361.953 443.463L361.863 444.215L363.848 444.453ZM372.734 436.543V434.543H371.973L371.404 435.049L372.734 436.543ZM376.689 436.543L378.674 436.786L378.949 434.543H376.689V436.543ZM376.043 441.816L377.373 443.31L377.937 442.809L378.028 442.06L376.043 441.816ZM370.096 447.09L373.564 451.045L376.572 448.408L373.104 444.453L370.096 447.09ZM373.082 449.483L372.436 454.757L376.407 455.243L377.053 449.97L373.082 449.483ZM374.422 453H370.467V457H374.422V453ZM371.97 453.682L365.036 445.771L362.028 448.408L368.963 456.318L371.97 453.682ZM365.518 447.328L365.834 444.691L361.863 444.215L361.546 446.852L365.518 447.328ZM365.178 445.947L374.064 438.037L371.404 435.049L362.519 442.959L365.178 445.947ZM372.734 438.543H376.689V434.543H372.734V438.543ZM374.704 436.3L374.058 441.573L378.028 442.06L378.674 436.786L374.704 436.3ZM374.713 440.323L370.271 444.278L372.93 447.265L377.373 443.31L374.713 440.323ZM382.477 443.135L381.145 441.643L380.584 442.143L380.492 442.889L382.477 443.135ZM380.684 457.637L379.179 458.954L382.121 462.316L382.669 457.882L380.684 457.637ZM376.07 452.363L374.084 452.12L373.976 453.007L374.564 453.68L376.07 452.363ZM378.008 436.543V434.543H376.238L376.022 436.3L378.008 436.543ZM384.599 436.543L386.105 435.226L385.507 434.543H384.599V436.543ZM386.906 439.18L385.401 440.497L386.729 442.014L388.235 440.675L386.906 439.18ZM389.873 436.543V434.543H389.112L388.544 435.048L389.873 436.543ZM396.465 436.543L398.45 436.787L398.725 434.543H396.465V436.543ZM394.197 455V457H395.966L396.182 455.244L394.197 455ZM388.924 455L386.939 454.755L386.662 457H388.924V455ZM390.387 443.135L392.372 443.38L392.482 442.488L391.888 441.814L390.387 443.135ZM389.807 442.476L391.308 441.154L389.978 439.642L388.475 440.984L389.807 442.476ZM389.069 443.135L387.737 441.643L387.176 442.144L387.084 442.89L389.069 443.135ZM387.605 455V457H389.374L389.59 455.245L387.605 455ZM382.332 455L380.347 454.755L380.07 457H382.332V455ZM383.795 443.135L385.78 443.38L385.89 442.488L385.297 441.814L383.795 443.135ZM383.215 442.476L384.717 441.154L383.386 439.642L381.883 440.984L383.215 442.476ZM380.492 442.889L378.699 457.391L382.669 457.882L384.462 443.38L380.492 442.889ZM382.189 456.32L377.575 451.046L374.564 453.68L379.179 458.954L382.189 456.32ZM378.055 452.606L379.993 436.786L376.022 436.3L374.084 452.12L378.055 452.606ZM378.008 438.543H384.599V434.543H378.008V438.543ZM383.094 437.86L385.401 440.497L388.412 437.863L386.105 435.226L383.094 437.86ZM388.235 440.675L391.202 438.038L388.544 435.048L385.578 437.685L388.235 440.675ZM389.873 438.543H396.465V434.543H389.873V438.543ZM394.48 436.299L392.212 454.756L396.182 455.244L398.45 436.787L394.48 436.299ZM394.197 453H388.924V457H394.197V453ZM390.909 455.245L392.372 443.38L388.402 442.89L386.939 454.755L390.909 455.245ZM391.888 441.814L391.308 441.154L388.305 443.797L388.886 444.456L391.888 441.814ZM388.475 440.984L387.737 441.643L390.401 444.627L391.139 443.967L388.475 440.984ZM387.084 442.89L385.62 454.755L389.59 455.245L391.054 443.38L387.084 442.89ZM387.605 453H382.332V457H387.605V453ZM384.317 455.245L385.78 443.38L381.81 442.89L380.347 454.755L384.317 455.245ZM385.297 441.814L384.717 441.154L381.714 443.797L382.294 444.456L385.297 441.814ZM381.883 440.984L381.145 441.643L383.809 444.627L384.547 443.967L381.883 440.984ZM402.252 443.135L400.266 442.896L399.998 445.135H402.252V443.135ZM414.117 443.135L415.813 444.195L417.726 441.135H414.117V443.135ZM410.822 448.408V450.408H411.93L412.518 449.468L410.822 448.408ZM401.593 448.408V446.408H399.819L399.607 448.17L401.593 448.408ZM401.435 449.727L399.449 449.488L399.18 451.727H401.435V449.727ZM411.982 449.727L413.485 448.407L412.888 447.727H411.982V449.727ZM416.609 455V457H421.025L418.112 453.681L416.609 455ZM395.515 455L393.53 454.756L393.255 457H395.515V455ZM397.783 436.543V434.543H396.014L395.798 436.299L397.783 436.543ZM418.877 436.543L420.207 438.036L424.128 434.543H418.877V436.543ZM412.957 441.816V443.816H413.719L414.288 443.31L412.957 441.816ZM402.41 441.816V439.816H400.636L400.425 441.578L402.41 441.816ZM402.252 445.135H414.117V441.135H402.252V445.135ZM412.421 442.075L409.126 447.348L412.518 449.468L415.813 444.195L412.421 442.075ZM410.822 446.408H401.593V450.408H410.822V446.408ZM399.607 448.17L399.449 449.488L403.421 449.965L403.579 448.646L399.607 448.17ZM401.435 451.727H411.982V447.727H401.435V451.727ZM410.478 451.046L415.106 456.319L418.112 453.681L413.485 448.407L410.478 451.046ZM416.609 453H395.515V457H416.609V453ZM397.5 455.244L399.768 436.787L395.798 436.299L393.53 454.756L397.5 455.244ZM397.783 438.543H418.877V434.543H397.783V438.543ZM417.546 435.05L411.627 440.323L414.288 443.31L420.207 438.036L417.546 435.05ZM412.957 439.816H402.41V443.816H412.957V439.816ZM400.425 441.578L400.266 442.896L404.238 443.373L404.396 442.055L400.425 441.578ZM422.028 443.135L420.696 441.643L420.135 442.143L420.043 442.889L422.028 443.135ZM420.235 457.637L418.729 458.954L421.671 462.316L422.22 457.882L420.235 457.637ZM415.62 452.363L413.635 452.12L413.526 453.007L414.115 453.68L415.62 452.363ZM417.558 436.543V434.543H415.788L415.573 436.3L417.558 436.543ZM424.15 436.543L425.655 435.226L425.058 434.543H424.15V436.543ZM426.457 439.18L424.952 440.497L426.279 442.014L427.786 440.675L426.457 439.18ZM429.424 436.543V434.543H428.663L428.095 435.048L429.424 436.543ZM436.015 436.543L438 436.787L438.276 434.543H436.015V436.543ZM433.748 455V457H435.517L435.733 455.244L433.748 455ZM428.474 455L426.489 454.755L426.213 457H428.474V455ZM429.938 443.135L431.923 443.38L432.033 442.488L431.439 441.814L429.938 443.135ZM429.358 442.476L430.859 441.154L429.528 439.642L428.026 440.984L429.358 442.476ZM428.619 443.135L427.287 441.643L426.726 442.144L426.634 442.89L428.619 443.135ZM427.156 455V457H428.924L429.141 455.245L427.156 455ZM421.883 455L419.898 454.755L419.621 457H421.883V455ZM423.346 443.135L425.331 443.38L425.441 442.488L424.847 441.814L423.346 443.135ZM422.766 442.476L424.267 441.154L422.936 439.642L421.434 440.984L422.766 442.476ZM420.043 442.889L418.25 457.391L422.22 457.882L424.012 443.38L420.043 442.889ZM421.74 456.32L417.126 451.046L414.115 453.68L418.729 458.954L421.74 456.32ZM417.606 452.606L419.544 436.786L415.573 436.3L413.635 452.12L417.606 452.606ZM417.558 438.543H424.15V434.543H417.558V438.543ZM422.645 437.86L424.952 440.497L427.962 437.863L425.655 435.226L422.645 437.86ZM427.786 440.675L430.752 438.038L428.095 435.048L425.129 437.685L427.786 440.675ZM429.424 438.543H436.015V434.543H429.424V438.543ZM434.03 436.299L431.763 454.756L435.733 455.244L438 436.787L434.03 436.299ZM433.748 453H428.474V457H433.748V453ZM430.459 455.245L431.923 443.38L427.953 442.89L426.489 454.755L430.459 455.245ZM431.439 441.814L430.859 441.154L427.856 443.797L428.436 444.456L431.439 441.814ZM428.026 440.984L427.287 441.643L429.951 444.627L430.69 443.967L428.026 440.984ZM426.634 442.89L425.171 454.755L429.141 455.245L430.604 443.38L426.634 442.89ZM427.156 453H421.883V457H427.156V453ZM423.868 455.245L425.331 443.38L421.361 442.89L419.898 454.755L423.868 455.245ZM424.847 441.814L424.267 441.154L421.264 443.797L421.845 444.456L424.847 441.814ZM421.434 440.984L420.696 441.643L423.36 444.627L424.098 443.967L421.434 440.984ZM449.713 443.135L451.698 443.383L451.809 442.489L451.215 441.814L449.713 443.135ZM448.553 441.816L450.054 440.495L449.457 439.816H448.553V441.816ZM443.28 441.816V439.816H442.517L441.948 440.325L443.28 441.816ZM441.803 443.135L440.471 441.643L439.911 442.142L439.818 442.887L441.803 443.135ZM441.144 448.408L439.159 448.16L439.048 449.054L439.642 449.729L441.144 448.408ZM442.304 449.727L440.803 451.048L441.4 451.727H442.304V449.727ZM447.577 449.727V451.727H448.34L448.909 451.218L447.577 449.727ZM449.054 448.408L450.386 449.9L450.945 449.401L451.039 448.656L449.054 448.408ZM453.154 436.543L454.659 435.226L454.062 434.543H453.154V436.543ZM455.461 439.18L457.446 439.422L457.555 438.535L456.966 437.863L455.461 439.18ZM453.853 452.363L455.182 453.858L455.747 453.356L455.838 452.605L453.853 452.363ZM450.886 455V457H451.647L452.215 456.495L450.886 455ZM437.703 455L436.198 456.317L436.795 457H437.703V455ZM435.396 452.363L433.41 452.121L433.302 453.008L433.891 453.68L435.396 452.363ZM437.004 439.18L435.675 437.685L435.11 438.187L435.019 438.937L437.004 439.18ZM439.97 436.543V434.543H439.21L438.642 435.048L439.97 436.543ZM451.215 441.814L450.054 440.495L447.052 443.138L448.212 444.456L451.215 441.814ZM448.553 439.816H443.28V443.816H448.553V439.816ZM441.948 440.325L440.471 441.643L443.135 444.627L444.612 443.308L441.948 440.325ZM439.818 442.887L439.159 448.16L443.128 448.656L443.788 443.383L439.818 442.887ZM439.642 449.729L440.803 451.048L443.805 448.405L442.645 447.087L439.642 449.729ZM442.304 451.727H447.577V447.727H442.304V451.727ZM448.909 451.218L450.386 449.9L447.722 446.916L446.245 448.235L448.909 451.218ZM451.039 448.656L451.698 443.383L447.729 442.887L447.069 448.16L451.039 448.656ZM451.649 437.86L453.956 440.497L456.966 437.863L454.659 435.226L451.649 437.86ZM453.476 438.937L451.868 452.121L455.838 452.605L457.446 439.422L453.476 438.937ZM452.524 450.868L449.558 453.505L452.215 456.495L455.182 453.858L452.524 450.868ZM450.886 453H437.703V457H450.886V453ZM439.208 453.683L436.901 451.046L433.891 453.68L436.198 456.317L439.208 453.683ZM437.381 452.605L438.989 439.422L435.019 438.937L433.41 452.121L437.381 452.605ZM438.333 440.675L441.299 438.038L438.642 435.048L435.675 437.685L438.333 440.675ZM439.97 438.543H453.154V434.543H439.97V438.543ZM461.737 441.816V439.816H459.971L459.752 441.568L461.737 441.816ZM461.407 444.453L459.422 444.205L459.141 446.453H461.407V444.453ZM467.999 444.453V446.453H468.757L469.324 445.951L467.999 444.453ZM469.489 443.135L470.814 444.633L472.308 443.311L470.99 441.814L469.489 443.135ZM468.328 441.816L469.83 440.495L469.232 439.816H468.328V441.816ZM460.761 449.727V447.727H458.991L458.776 449.483L460.761 449.727ZM460.115 455V457H461.885L462.1 455.243L460.115 455ZM454.842 455L452.856 454.756L452.581 457H454.842V455ZM457.109 436.543V434.543H455.34L455.124 436.299L457.109 436.543ZM472.929 436.543L474.435 435.226L473.837 434.543H472.929V436.543ZM475.237 439.18L477.222 439.421L477.33 438.535L476.742 437.863L475.237 439.18ZM474.274 447.09L475.603 448.585L476.168 448.082L476.26 447.331L474.274 447.09ZM471.308 449.727V451.727H472.068L472.637 451.221L471.308 449.727ZM470.688 449.727V447.727H466.272L469.185 451.046L470.688 449.727ZM475.316 455V457H479.732L476.819 453.681L475.316 455ZM467.854 455L466.35 456.319L466.948 457H467.854V455ZM463.226 449.727L464.73 448.407L464.132 447.727H463.226V449.727ZM459.752 441.568L459.422 444.205L463.392 444.701L463.721 442.064L459.752 441.568ZM461.407 446.453H467.999V442.453H461.407V446.453ZM469.324 445.951L470.814 444.633L468.163 441.637L466.673 442.955L469.324 445.951ZM470.99 441.814L469.83 440.495L466.827 443.138L467.987 444.456L470.99 441.814ZM468.328 439.816H461.737V443.816H468.328V439.816ZM458.776 449.483L458.13 454.757L462.1 455.243L462.746 449.97L458.776 449.483ZM460.115 453H454.842V457H460.115V453ZM456.827 455.244L459.094 436.787L455.124 436.299L452.856 454.756L456.827 455.244ZM457.109 438.543H472.929V434.543H457.109V438.543ZM471.424 437.86L473.731 440.497L476.742 437.863L474.435 435.226L471.424 437.86ZM473.251 438.938L472.289 446.848L476.26 447.331L477.222 439.421L473.251 438.938ZM472.945 445.595L469.979 448.232L472.637 451.221L475.603 448.585L472.945 445.595ZM471.308 447.727H470.688V451.727H471.308V447.727ZM469.185 451.046L473.812 456.319L476.819 453.681L472.192 448.407L469.185 451.046ZM475.316 453H467.854V457H475.316V453ZM469.357 453.681L464.73 448.407L461.723 451.046L466.35 456.319L469.357 453.681ZM463.226 447.727H460.761V451.727H463.226V447.727ZM489.264 443.135L490.589 444.633L491.157 444.13L491.249 443.377L489.264 443.135ZM490.068 436.543V434.543H488.297L488.083 436.301L490.068 436.543ZM495.342 436.543L497.327 436.786L497.602 434.543H495.342V436.543ZM494.05 447.09L495.378 448.585L495.943 448.083L496.035 447.333L494.05 447.09ZM491.083 449.727V451.727H491.844L492.412 451.221L491.083 449.727ZM487.128 449.727V447.727H485.36L485.143 449.482L487.128 449.727ZM486.153 457.637L484.647 458.954L487.59 462.317L488.138 457.882L486.153 457.637ZM481.538 452.363L479.553 452.125L479.446 453.01L480.033 453.68L481.538 452.363ZM481.855 449.727L483.84 449.965L484.109 447.727H481.855V449.727ZM477.9 449.727L476.395 451.044L476.992 451.727H477.9V449.727ZM475.593 447.09L473.607 446.847L473.499 447.734L474.087 448.407L475.593 447.09ZM476.885 436.543V434.543H475.115L474.899 436.3L476.885 436.543ZM482.158 436.543L484.143 436.785L484.417 434.543H482.158V436.543ZM481.354 443.135L479.368 442.893L479.261 443.776L479.845 444.447L481.354 443.135ZM482.501 444.453L480.992 445.766L481.59 446.453H482.501V444.453ZM487.774 444.453V446.453H488.532L489.1 445.951L487.774 444.453ZM491.249 443.377L492.053 436.785L488.083 436.301L487.279 442.893L491.249 443.377ZM490.068 438.543H495.342V434.543H490.068V438.543ZM493.356 436.3L492.064 446.847L496.035 447.333L497.327 436.786L493.356 436.3ZM492.721 445.595L489.755 448.232L492.412 451.221L495.378 448.585L492.721 445.595ZM491.083 447.727H487.128V451.727H491.083V447.727ZM485.143 449.482L484.168 457.392L488.138 457.882L489.113 449.971L485.143 449.482ZM487.658 456.32L483.043 451.046L480.033 453.68L484.647 458.954L487.658 456.32ZM483.524 452.602L483.84 449.965L479.869 449.488L479.553 452.125L483.524 452.602ZM481.855 447.727H477.9V451.727H481.855V447.727ZM479.405 448.41L477.098 445.773L474.087 448.407L476.395 451.044L479.405 448.41ZM477.578 447.333L478.87 436.786L474.899 436.3L473.607 446.847L477.578 447.333ZM476.885 438.543H482.158V434.543H476.885V438.543ZM480.173 436.301L479.368 442.893L483.339 443.377L484.143 436.785L480.173 436.301ZM479.845 444.447L480.992 445.766L484.01 443.14L482.863 441.822L479.845 444.447ZM482.501 446.453H487.774V442.453H482.501V446.453ZM489.1 445.951L490.589 444.633L487.938 441.637L486.449 442.955L489.1 445.951ZM498.123 455V457H498.885L499.454 456.493L498.123 455ZM494.392 455L492.407 454.755L492.13 457H494.392V455ZM494.854 451.269L493.523 449.776L492.961 450.276L492.869 451.024L494.854 451.269ZM511.386 436.543V434.543H510.624L510.056 435.05L511.386 436.543ZM515.117 436.543L517.102 436.788L517.38 434.543H515.117V436.543ZM514.656 440.274L515.986 441.767L516.548 441.267L516.64 440.519L514.656 440.274ZM498.123 453H494.392V457H498.123V453ZM496.377 455.245L496.839 451.515L492.869 451.024L492.407 454.755L496.377 455.245ZM496.184 452.762L512.716 438.036L510.056 435.05L493.523 449.776L496.184 452.762ZM511.386 438.543H515.117V434.543H511.386V438.543ZM513.132 436.297L512.671 440.028L516.64 440.519L517.102 436.788L513.132 436.297ZM513.325 438.78L496.793 453.507L499.454 456.493L515.986 441.767L513.325 438.78ZM519.257 445.771L520.586 447.265L522.069 445.946L520.76 444.453L519.257 445.771ZM515.789 441.816L513.804 441.573L513.695 442.462L514.285 443.135L515.789 441.816ZM516.435 436.543V434.543H514.665L514.45 436.3L516.435 436.543ZM520.39 436.543L521.894 435.225L521.297 434.543H520.39V436.543ZM527.325 444.453L529.311 444.691L529.417 443.806L528.829 443.135L527.325 444.453ZM527.009 447.09L528.338 448.584L528.904 448.08L528.994 447.328L527.009 447.09ZM518.123 455V457H518.884L519.453 456.494L518.123 455ZM514.168 455L512.183 454.757L511.908 457H514.168V455ZM514.814 449.727L513.484 448.233L512.92 448.734L512.829 449.483L514.814 449.727ZM520.76 444.453L517.293 440.498L514.285 443.135L517.753 447.09L520.76 444.453ZM517.774 442.06L518.42 436.786L514.45 436.3L513.804 441.573L517.774 442.06ZM516.435 438.543H520.39V434.543H516.435V438.543ZM518.886 437.861L525.821 445.772L528.829 443.135L521.894 435.225L518.886 437.861ZM525.339 444.215L525.023 446.852L528.994 447.328L529.311 444.691L525.339 444.215ZM525.679 445.596L516.793 453.506L519.453 456.494L528.338 448.584L525.679 445.596ZM518.123 453H514.168V457H518.123V453ZM516.153 455.243L516.799 449.97L512.829 449.483L512.183 454.757L516.153 455.243ZM516.144 451.22L520.586 447.265L517.927 444.278L513.484 448.233L516.144 451.22Z" fill="white"/>
<path d="M364.832 613.91H367.332V616.41H364.832V613.91ZM352.316 613.91H349.816V611.41H352.316V613.91ZM365.649 643.606C365.649 650.97 359.68 656.939 352.316 656.939C344.952 656.939 338.982 650.97 338.982 643.606C338.982 636.242 344.952 630.272 352.316 630.272C359.68 630.272 365.649 636.242 365.649 643.606ZM367.332 554.475V613.91H362.332V554.475H367.332ZM364.832 616.41H352.316V611.41H364.832V616.41ZM354.816 613.91V643.606H349.816V613.91H354.816Z" fill="#5C03BC"/>
<rect x="361.418" y="543.476" width="6.82701" height="21.9981" fill="#C086FF"/>
<path d="M377.869 663.162L379.637 664.93L380.369 664.198V663.162H377.869ZM352.77 688.261V690.761H353.806L354.538 690.028L352.77 688.261ZM236.577 688.261C236.577 695.624 242.547 701.594 249.911 701.594C257.274 701.594 263.244 695.624 263.244 688.261C263.244 680.897 257.274 674.927 249.911 674.927C242.547 674.927 236.577 680.897 236.577 688.261ZM375.369 559.406V663.162H380.369V559.406H375.369ZM376.101 661.394L351.002 686.493L354.538 690.028L379.637 664.93L376.101 661.394ZM352.77 685.761H249.911V690.761H352.77V685.761Z" fill="#5C03BC"/>
<rect x="374.314" y="543.476" width="6.82701" height="21.9981" fill="#C086FF"/>
<path d="M414.517 575.715H417.017V578.215H414.517V575.715ZM402.001 575.715H399.501V573.215H402.001V575.715ZM415.334 643.985C415.334 651.349 409.365 657.318 402.001 657.318C394.637 657.318 388.668 651.349 388.668 643.985C388.668 636.621 394.637 630.652 402.001 630.652C409.365 630.652 415.334 636.621 415.334 643.985ZM417.017 554.855V575.715H412.017V554.855H417.017ZM414.517 578.215H402.001V573.215H414.517V578.215ZM404.501 575.715V643.985H399.501V575.715H404.501Z" fill="#5C03BC"/>
<rect x="411.23" y="543.476" width="6.82701" height="21.9981" fill="#C086FF"/>
<path d="M427.413 658.522L429.175 660.295L429.913 659.562V658.522H427.413ZM373.555 712.035L371.793 710.261L371.055 710.995V712.035H373.555ZM360.222 805.178C360.222 812.542 366.191 818.512 373.555 818.512C380.919 818.512 386.889 812.542 386.889 805.178C386.889 797.815 380.919 791.845 373.555 791.845C366.191 791.845 360.222 797.815 360.222 805.178ZM424.913 554.855V658.522H429.913V554.855H424.913ZM425.651 656.748L371.793 710.261L375.317 713.808L429.175 660.295L425.651 656.748ZM371.055 712.035V805.178H376.055V712.035H371.055Z" fill="#5C03BC"/>
<rect x="424.126" y="543.476" width="6.82701" height="21.9981" fill="#C086FF"/>
<path d="M464.582 751.7H462.082V752.771L462.856 753.509L464.582 751.7ZM505.544 790.766H508.044V789.695L507.269 788.957L505.544 790.766ZM492.211 855.243C492.211 862.607 498.18 868.577 505.544 868.577C512.908 868.577 518.877 862.607 518.877 855.243C518.877 847.879 512.908 841.91 505.544 841.91C498.18 841.91 492.211 847.879 492.211 855.243ZM462.082 554.855V751.7H467.082V554.855H462.082ZM462.856 753.509L503.818 792.575L507.269 788.957L466.307 749.891L462.856 753.509ZM503.044 790.766V855.243H508.044V790.766H503.044Z" fill="#5C03BC"/>
<rect x="461.042" y="543.476" width="6.82701" height="21.9981" fill="#C086FF"/>
<path d="M477.478 717.548L475.724 719.329L474.978 718.595V717.548H477.478ZM545.748 784.776L547.502 782.995L548.248 783.73V784.776H545.748ZM559.081 878C559.081 885.364 553.112 891.333 545.748 891.333C538.384 891.333 532.414 885.364 532.414 878C532.414 870.636 538.384 864.667 545.748 864.667C553.112 864.667 559.081 870.636 559.081 878ZM479.978 554.855V717.548H474.978V554.855H479.978ZM479.232 715.766L547.502 782.995L543.994 786.558L475.724 719.329L479.232 715.766ZM548.248 784.776V878H543.248V784.776H548.248Z" fill="#5C03BC"/>
<rect x="473.938" y="543.476" width="6.82701" height="21.9981" fill="#C086FF"/>
<path d="M514.647 668.472L512.879 670.24L512.147 669.507V668.472H514.647ZM539.745 693.571V696.071H538.71L537.978 695.338L539.745 693.571ZM655.938 693.571C655.938 700.934 649.969 706.904 642.605 706.904C635.241 706.904 629.272 700.934 629.272 693.571C629.272 686.207 635.241 680.237 642.605 680.237C649.969 680.237 655.938 686.207 655.938 693.571ZM517.147 564.716V668.472H512.147V564.716H517.147ZM516.414 666.704L541.513 691.803L537.978 695.338L512.879 670.24L516.414 666.704ZM539.745 691.071H642.605V696.071H539.745V691.071Z" fill="#5C03BC"/>
<rect x="510.854" y="543.476" width="6.82701" height="21.9981" fill="#C086FF"/>
<path d="M527.542 585.576H525.042V588.076H527.542V585.576ZM551.816 585.576H554.316V583.076H551.816V585.576ZM538.483 655.743C538.483 663.106 544.452 669.076 551.816 669.076C559.18 669.076 565.149 663.106 565.149 655.743C565.149 648.379 559.18 642.409 551.816 642.409C544.452 642.409 538.483 648.379 538.483 655.743ZM525.042 564.716V585.576H530.042V564.716H525.042ZM527.542 588.076H551.816V583.076H527.542V588.076ZM549.316 585.576V655.743H554.316V585.576H549.316Z" fill="#5C03BC"/>
<rect x="523.75" y="543.476" width="6.82701" height="21.9981" fill="#C086FF"/>
<path d="M527.684 278.09L525.184 278.09L525.184 275.59L527.684 275.59L527.684 278.09ZM540.2 278.09L542.7 278.09L542.7 280.59L540.2 280.59L540.2 278.09ZM526.867 248.394C526.867 241.03 532.836 235.061 540.2 235.061C547.564 235.061 553.534 241.03 553.534 248.394C553.534 255.758 547.564 261.727 540.2 261.727C532.836 261.727 526.867 255.758 526.867 248.394ZM525.184 337.524L525.184 278.09L530.184 278.09L530.184 337.524L525.184 337.524ZM527.684 275.59L540.2 275.59L540.2 280.59L527.684 280.59L527.684 275.59ZM537.7 278.09L537.7 248.394L542.7 248.394L542.7 278.09L537.7 278.09Z" fill="#5C03BC"/>
<rect x="531.097" y="348.523" width="6.82701" height="21.9981" transform="rotate(-180 531.097 348.523)" fill="#C086FF"/>
<path d="M514.647 228.838L512.879 227.07L512.147 227.802L512.147 228.838L514.647 228.838ZM539.746 203.739L539.746 201.239L538.71 201.239L537.978 201.971L539.746 203.739ZM655.939 203.739C655.939 196.375 649.969 190.406 642.605 190.406C635.242 190.406 629.272 196.375 629.272 203.739C629.272 211.103 635.242 217.072 642.605 217.072C649.969 217.072 655.939 211.103 655.939 203.739ZM517.147 332.594L517.147 228.838L512.147 228.838L512.147 332.594L517.147 332.594ZM516.415 230.605L541.514 205.507L537.978 201.971L512.879 227.07L516.415 230.605ZM539.746 206.239L642.605 206.239L642.605 201.239L539.746 201.239L539.746 206.239Z" fill="#5C03BC"/>
<rect x="518.202" y="348.523" width="6.82701" height="21.9981" transform="rotate(-180 518.202 348.523)" fill="#C086FF"/>
<path d="M477.999 316.285L475.499 316.285L475.499 313.785L477.999 313.785L477.999 316.285ZM490.515 316.285L493.015 316.285L493.015 318.785L490.515 318.785L490.515 316.285ZM477.181 248.015C477.181 240.651 483.151 234.682 490.515 234.682C497.879 234.682 503.848 240.651 503.848 248.015C503.848 255.379 497.879 261.348 490.515 261.348C483.151 261.348 477.181 255.379 477.181 248.015ZM475.499 337.145L475.499 316.285L480.499 316.285L480.499 337.145L475.499 337.145ZM477.999 313.785L490.515 313.785L490.515 318.785L477.999 318.785L477.999 313.785ZM488.015 316.285L488.015 248.015L493.015 248.015L493.015 316.285L488.015 316.285Z" fill="#5C03BC"/>
<rect x="481.286" y="348.523" width="6.82701" height="21.9981" transform="rotate(-180 481.286 348.523)" fill="#C086FF"/>
<path d="M465.103 233.478L463.341 231.705L462.603 232.438L462.603 233.478L465.103 233.478ZM518.961 179.965L520.723 181.739L521.461 181.005L521.461 179.965L518.961 179.965ZM532.294 86.8215C532.294 79.4577 526.325 73.4882 518.961 73.4882C511.597 73.4882 505.627 79.4577 505.627 86.8215C505.627 94.1853 511.597 100.155 518.961 100.155C526.325 100.155 532.294 94.1853 532.294 86.8215ZM467.603 337.145L467.603 233.478L462.603 233.478L462.603 337.145L467.603 337.145ZM466.865 235.252L520.723 181.739L517.199 178.192L463.341 231.705L466.865 235.252ZM521.461 179.965L521.461 86.8215L516.461 86.8215L516.461 179.965L521.461 179.965Z" fill="#5C03BC"/>
<rect x="468.39" y="348.523" width="6.82701" height="21.9981" transform="rotate(-180 468.39 348.523)" fill="#C086FF"/>
<path d="M427.934 140.3L430.434 140.3L430.434 139.229L429.659 138.491L427.934 140.3ZM386.972 101.234L384.472 101.234L384.472 102.305L385.246 103.043L386.972 101.234ZM400.305 36.7568C400.305 29.393 394.335 23.4235 386.972 23.4235C379.608 23.4235 373.638 29.393 373.638 36.7568C373.638 44.1206 379.608 50.0901 386.972 50.0901C394.335 50.0901 400.305 44.1206 400.305 36.7568ZM430.434 337.145L430.434 140.3L425.434 140.3L425.434 337.145L430.434 337.145ZM429.659 138.491L388.697 99.425L385.246 103.043L426.208 142.109L429.659 138.491ZM389.472 101.234L389.472 36.7568L384.472 36.7568L384.472 101.234L389.472 101.234Z" fill="#5C03BC"/>
<rect x="431.474" y="348.523" width="6.82701" height="21.9981" transform="rotate(-180 431.474 348.523)" fill="#C086FF"/>
<path d="M415.038 174.452L416.792 172.671L417.538 173.405L417.538 174.452L415.038 174.452ZM346.768 107.224L345.014 109.005L344.268 108.27L344.268 107.224L346.768 107.224ZM333.435 14.0001C333.435 6.63629 339.404 0.666778 346.768 0.666779C354.132 0.666779 360.102 6.63629 360.102 14.0001C360.102 21.3639 354.132 27.3334 346.768 27.3334C339.404 27.3334 333.435 21.3639 333.435 14.0001ZM412.538 337.145L412.538 174.452L417.538 174.452L417.538 337.145L412.538 337.145ZM413.284 176.234L345.014 109.005L348.522 105.442L416.792 172.671L413.284 176.234ZM344.268 107.224L344.268 14.0001L349.268 14.0001L349.268 107.224L344.268 107.224Z" fill="#5C03BC"/>
<rect x="418.578" y="348.523" width="6.82701" height="21.9981" transform="rotate(-180 418.578 348.523)" fill="#C086FF"/>
<path d="M377.869 223.528L379.637 221.76L380.369 222.492L380.369 223.528L377.869 223.528ZM352.77 198.429L352.77 195.929L353.806 195.929L354.538 196.661L352.77 198.429ZM236.577 198.429C236.577 191.065 242.547 185.096 249.911 185.096C257.275 185.096 263.244 191.065 263.244 198.429C263.244 205.793 257.275 211.763 249.911 211.763C242.547 211.763 236.577 205.793 236.577 198.429ZM375.369 327.284L375.369 223.528L380.369 223.528L380.369 327.284L375.369 327.284ZM376.101 225.296L351.003 200.197L354.538 196.661L379.637 221.76L376.101 225.296ZM352.77 200.929L249.911 200.929L249.911 195.929L352.77 195.929L352.77 200.929Z" fill="#5C03BC"/>
<rect x="381.662" y="348.523" width="6.82701" height="21.9981" transform="rotate(-180 381.662 348.523)" fill="#C086FF"/>
<path d="M364.974 306.424L367.474 306.424L367.474 303.924L364.974 303.924L364.974 306.424ZM340.7 306.424L338.2 306.424L338.2 308.924L340.7 308.924L340.7 306.424ZM354.033 236.257C354.033 228.893 348.064 222.924 340.7 222.924C333.336 222.924 327.366 228.893 327.366 236.257C327.366 243.621 333.336 249.59 340.7 249.59C348.064 249.59 354.033 243.621 354.033 236.257ZM367.474 327.284L367.474 306.424L362.474 306.424L362.474 327.284L367.474 327.284ZM364.974 303.924L340.7 303.924L340.7 308.924L364.974 308.924L364.974 303.924ZM343.2 306.424L343.2 236.257L338.2 236.257L338.2 306.424L343.2 306.424Z" fill="#5C03BC"/>
<rect x="368.766" y="348.523" width="6.82701" height="21.9981" transform="rotate(-180 368.766 348.523)" fill="#C086FF"/>
<path d="M613.906 527.684L613.906 525.184L616.406 525.184L616.406 527.684L613.906 527.684ZM613.906 540.201L613.906 542.701L611.406 542.701L611.406 540.201L613.906 540.201ZM643.602 526.867C650.965 526.867 656.935 532.837 656.935 540.201C656.935 547.564 650.965 553.534 643.602 553.534C636.238 553.534 630.268 547.564 630.268 540.201C630.268 532.837 636.238 526.867 643.602 526.867ZM554.471 525.184L613.906 525.184L613.906 530.184L554.471 530.184L554.471 525.184ZM616.406 527.684L616.406 540.201L611.406 540.201L611.406 527.684L616.406 527.684ZM613.906 537.701L643.602 537.701L643.602 542.701L613.906 542.701L613.906 537.701Z" fill="#5C03BC"/>
<rect x="543.472" y="531.098" width="6.82701" height="21.9981" transform="rotate(-90 543.472 531.098)" fill="#C086FF"/>
<path d="M663.158 514.647L664.926 512.88L664.194 512.147L663.158 512.147L663.158 514.647ZM688.257 539.746L690.757 539.746L690.757 538.711L690.025 537.978L688.257 539.746ZM688.257 655.939C695.621 655.939 701.59 649.97 701.59 642.606C701.59 635.242 695.621 629.272 688.257 629.272C680.893 629.272 674.924 635.242 674.924 642.606C674.924 649.97 680.893 655.939 688.257 655.939ZM559.402 517.147L663.158 517.147L663.158 512.147L559.402 512.147L559.402 517.147ZM661.391 516.415L686.489 541.514L690.025 537.978L664.926 512.88L661.391 516.415ZM685.757 539.746L685.757 642.606L690.757 642.606L690.757 539.746L685.757 539.746Z" fill="#5C03BC"/>
<rect x="543.472" y="518.202" width="6.82701" height="21.9981" transform="rotate(-90 543.472 518.202)" fill="#C086FF"/>
<path d="M575.711 477.999L575.711 475.499L578.211 475.499L578.211 477.999L575.711 477.999ZM575.711 490.515L575.711 493.015L573.211 493.015L573.211 490.515L575.711 490.515ZM643.981 477.182C651.345 477.182 657.314 483.152 657.314 490.515C657.314 497.879 651.345 503.849 643.981 503.849C636.617 503.849 630.648 497.879 630.648 490.515C630.648 483.152 636.617 477.182 643.981 477.182ZM554.851 475.499L575.711 475.499L575.711 480.499L554.851 480.499L554.851 475.499ZM578.211 477.999L578.211 490.515L573.211 490.515L573.211 477.999L578.211 477.999ZM575.711 488.015L643.981 488.015L643.981 493.015L575.711 493.015L575.711 488.015Z" fill="#5C03BC"/>
<rect x="543.472" y="481.286" width="6.82701" height="21.9981" transform="rotate(-90 543.472 481.286)" fill="#C086FF"/>
<path d="M658.518 465.104L660.291 463.342L659.558 462.604L658.518 462.604L658.518 465.104ZM712.031 518.961L710.257 520.723L710.991 521.461L712.031 521.461L712.031 518.961ZM805.175 532.295C812.538 532.295 818.508 526.325 818.508 518.961C818.508 511.597 812.538 505.628 805.175 505.628C797.811 505.628 791.841 511.597 791.841 518.961C791.841 526.325 797.811 532.295 805.175 532.295ZM554.851 467.604L658.518 467.604L658.518 462.604L554.851 462.604L554.851 467.604ZM656.745 466.866L710.257 520.723L713.804 517.199L660.291 463.342L656.745 466.866ZM712.031 521.461L805.175 521.461L805.175 516.461L712.031 516.461L712.031 521.461Z" fill="#5C03BC"/>
<rect x="543.472" y="468.391" width="6.82701" height="21.9981" transform="rotate(-90 543.472 468.391)" fill="#C086FF"/>
<path d="M751.696 427.934L751.696 430.434L752.766 430.434L753.505 429.66L751.696 427.934ZM790.762 386.972L790.762 384.472L789.691 384.472L788.953 385.247L790.762 386.972ZM855.239 400.306C862.603 400.306 868.572 394.336 868.572 386.972C868.572 379.608 862.603 373.639 855.239 373.639C847.875 373.639 841.906 379.608 841.906 386.972C841.906 394.336 847.875 400.306 855.239 400.306ZM554.851 430.434L751.696 430.434L751.696 425.434L554.851 425.434L554.851 430.434ZM753.505 429.66L792.571 388.698L788.953 385.247L749.887 426.209L753.505 429.66ZM790.762 389.472L855.239 389.472L855.239 384.472L790.762 384.472L790.762 389.472Z" fill="#5C03BC"/>
<rect x="543.472" y="431.475" width="6.82701" height="21.9981" transform="rotate(-90 543.472 431.475)" fill="#C086FF"/>
<path d="M717.544 415.039L719.325 416.793L718.59 417.539L717.544 417.539L717.544 415.039ZM784.772 346.769L782.991 345.015L783.725 344.269L784.772 344.269L784.772 346.769ZM877.996 333.436C885.36 333.436 891.329 339.405 891.329 346.769C891.329 354.133 885.36 360.102 877.996 360.102C870.632 360.102 864.662 354.133 864.662 346.769C864.662 339.405 870.632 333.436 877.996 333.436ZM554.851 412.539L717.544 412.539L717.544 417.539L554.851 417.539L554.851 412.539ZM715.762 413.285L782.991 345.015L786.553 348.523L719.325 416.793L715.762 413.285ZM784.772 344.269L877.996 344.269L877.996 349.269L784.772 349.269L784.772 344.269Z" fill="#5C03BC"/>
<rect x="543.472" y="418.579" width="6.82701" height="21.9981" transform="rotate(-90 543.472 418.579)" fill="#C086FF"/>
<path d="M668.468 377.87L670.236 379.637L669.503 380.37L668.468 380.37L668.468 377.87ZM693.567 352.771L696.067 352.771L696.067 353.807L695.334 354.539L693.567 352.771ZM693.567 236.578C700.93 236.578 706.9 242.548 706.9 249.911C706.9 257.275 700.93 263.245 693.567 263.245C686.203 263.245 680.233 257.275 680.233 249.911C680.233 242.548 686.203 236.578 693.567 236.578ZM564.712 375.37L668.468 375.37L668.468 380.37L564.712 380.37L564.712 375.37ZM666.7 376.102L691.799 351.003L695.334 354.539L670.236 379.637L666.7 376.102ZM691.067 352.771L691.067 249.911L696.067 249.911L696.067 352.771L691.067 352.771Z" fill="#5C03BC"/>
<rect x="543.472" y="381.662" width="6.82701" height="21.9981" transform="rotate(-90 543.472 381.662)" fill="#C086FF"/>
<path d="M585.572 364.974L585.572 367.474L588.072 367.474L588.072 364.974L585.572 364.974ZM585.572 340.7L585.572 338.2L583.072 338.2L583.072 340.7L585.572 340.7ZM655.739 354.033C663.103 354.033 669.072 348.064 669.072 340.7C669.072 333.336 663.103 327.367 655.739 327.367C648.375 327.367 642.405 333.336 642.405 340.7C642.405 348.064 648.375 354.033 655.739 354.033ZM564.712 367.474L585.572 367.474L585.572 362.474L564.712 362.474L564.712 367.474ZM588.072 364.974L588.072 340.7L583.072 340.7L583.072 364.974L588.072 364.974ZM585.572 343.2L655.739 343.2L655.739 338.2L585.572 338.2L585.572 343.2Z" fill="#5C03BC"/>
<rect x="543.472" y="368.767" width="6.82701" height="21.9981" transform="rotate(-90 543.472 368.767)" fill="#C086FF"/>
<path d="M278.09 364.833L278.09 367.333L275.59 367.333L275.59 364.833L278.09 364.833ZM278.09 352.316L278.09 349.816L280.59 349.816L280.59 352.316L278.09 352.316ZM248.394 365.65C241.03 365.65 235.061 359.68 235.061 352.316C235.061 344.953 241.03 338.983 248.394 338.983C255.758 338.983 261.728 344.953 261.728 352.316C261.728 359.68 255.758 365.65 248.394 365.65ZM337.525 367.333L278.09 367.333L278.09 362.333L337.525 362.333L337.525 367.333ZM275.59 364.833L275.59 352.316L280.59 352.316L280.59 364.833L275.59 364.833ZM278.09 354.816L248.394 354.816L248.394 349.816L278.09 349.816L278.09 354.816Z" fill="#5C03BC"/>
<rect x="348.524" y="361.419" width="6.82701" height="21.9981" transform="rotate(90 348.524 361.419)" fill="#C086FF"/>
<path d="M228.838 377.869L227.07 379.637L227.802 380.369L228.838 380.369L228.838 377.869ZM203.739 352.771L201.239 352.771L201.239 353.806L201.972 354.539L203.739 352.771ZM203.739 236.578C196.376 236.578 190.406 242.547 190.406 249.911C190.406 257.275 196.376 263.244 203.739 263.244C211.103 263.244 217.073 257.275 217.073 249.911C217.073 242.547 211.103 236.578 203.739 236.578ZM332.594 375.369L228.838 375.369L228.838 380.369L332.594 380.369L332.594 375.369ZM230.606 376.102L205.507 351.003L201.972 354.539L227.07 379.637L230.606 376.102ZM206.239 352.771L206.239 249.911L201.239 249.911L201.239 352.771L206.239 352.771Z" fill="#5C03BC"/>
<rect x="348.524" y="374.314" width="6.82701" height="21.9981" transform="rotate(90 348.524 374.314)" fill="#C086FF"/>
<path d="M316.285 414.518L316.285 417.018L313.785 417.018L313.785 414.518L316.285 414.518ZM316.285 402.002L316.285 399.502L318.785 399.502L318.785 402.002L316.285 402.002ZM248.015 415.335C240.651 415.335 234.682 409.366 234.682 402.002C234.682 394.638 240.651 388.669 248.015 388.669C255.379 388.669 261.348 394.638 261.348 402.002C261.348 409.366 255.379 415.335 248.015 415.335ZM337.145 417.018L316.285 417.018L316.285 412.018L337.145 412.018L337.145 417.018ZM313.785 414.518L313.785 402.002L318.785 402.002L318.785 414.518L313.785 414.518ZM316.285 404.502L248.015 404.502L248.015 399.502L316.285 399.502L316.285 404.502Z" fill="#5C03BC"/>
<rect x="348.524" y="411.231" width="6.82701" height="21.9981" transform="rotate(90 348.524 411.231)" fill="#C086FF"/>
<path d="M233.478 427.413L231.705 429.176L232.438 429.913L233.478 429.913L233.478 427.413ZM179.965 373.556L181.739 371.794L181.006 371.056L179.965 371.056L179.965 373.556ZM86.8217 360.223C79.4579 360.223 73.4883 366.192 73.4883 373.556C73.4883 380.92 79.4579 386.889 86.8217 386.889C94.1855 386.889 100.155 380.92 100.155 373.556C100.155 366.192 94.1855 360.223 86.8217 360.223ZM337.145 424.913L233.478 424.913L233.478 429.913L337.145 429.913L337.145 424.913ZM235.252 425.651L181.739 371.794L178.192 375.318L231.705 429.176L235.252 425.651ZM179.965 371.056L86.8217 371.056L86.8217 376.056L179.965 376.056L179.965 371.056Z" fill="#5C03BC"/>
<rect x="348.524" y="424.126" width="6.82701" height="21.9981" transform="rotate(90 348.524 424.126)" fill="#C086FF"/>
<path d="M140.3 464.583L140.3 462.083L139.23 462.083L138.491 462.857L140.3 464.583ZM101.234 505.545L101.234 508.045L102.305 508.045L103.043 507.27L101.234 505.545ZM36.7569 492.211C29.3931 492.211 23.4236 498.181 23.4236 505.545C23.4236 512.909 29.3931 518.878 36.7569 518.878C44.1207 518.878 50.0903 512.909 50.0903 505.545C50.0903 498.181 44.1207 492.211 36.7569 492.211ZM337.145 462.083L140.3 462.083L140.3 467.083L337.145 467.083L337.145 462.083ZM138.491 462.857L99.4251 503.819L103.043 507.27L142.109 466.308L138.491 462.857ZM101.234 503.045L36.7569 503.045L36.7569 508.045L101.234 508.045L101.234 503.045Z" fill="#5C03BC"/>
<rect x="348.524" y="461.042" width="6.82701" height="21.9981" transform="rotate(90 348.524 461.042)" fill="#C086FF"/>
<path d="M174.452 477.478L172.671 475.724L173.406 474.978L174.452 474.978L174.452 477.478ZM107.224 545.748L109.005 547.502L108.271 548.248L107.224 548.248L107.224 545.748ZM14.0002 559.082C6.63641 559.082 0.666901 553.112 0.666901 545.748C0.666901 538.384 6.63641 532.415 14.0002 532.415C21.364 532.415 27.3336 538.384 27.3336 545.748C27.3336 553.112 21.364 559.082 14.0002 559.082ZM337.145 479.978L174.452 479.978L174.452 474.978L337.145 474.978L337.145 479.978ZM176.234 479.232L109.005 547.502L105.442 543.994L172.671 475.724L176.234 479.232ZM107.224 548.248L14.0002 548.248L14.0002 543.248L107.224 543.248L107.224 548.248Z" fill="#5C03BC"/>
<rect x="348.524" y="473.938" width="6.82701" height="21.9981" transform="rotate(90 348.524 473.938)" fill="#C086FF"/>
<path d="M223.528 514.648L221.76 512.88L222.493 512.148L223.528 512.148L223.528 514.648ZM198.429 539.746L195.929 539.746L195.929 538.711L196.662 537.979L198.429 539.746ZM198.429 655.939C191.066 655.939 185.096 649.97 185.096 642.606C185.096 635.242 191.066 629.273 198.429 629.273C205.793 629.273 211.763 635.242 211.763 642.606C211.763 649.97 205.793 655.939 198.429 655.939ZM327.284 517.148L223.528 517.148L223.528 512.148L327.284 512.148L327.284 517.148ZM225.296 516.415L200.197 541.514L196.662 537.979L221.76 512.88L225.296 516.415ZM200.929 539.746L200.929 642.606L195.929 642.606L195.929 539.746L200.929 539.746Z" fill="#5C03BC"/>
<rect x="348.524" y="510.855" width="6.82701" height="21.9981" transform="rotate(90 348.524 510.855)" fill="#C086FF"/>
<path d="M306.424 527.543L306.424 525.043L303.924 525.043L303.924 527.543L306.424 527.543ZM306.424 551.817L306.424 554.317L308.924 554.317L308.924 551.817L306.424 551.817ZM236.257 538.483C228.894 538.483 222.924 544.453 222.924 551.817C222.924 559.181 228.894 565.15 236.257 565.15C243.621 565.15 249.591 559.181 249.591 551.817C249.591 544.453 243.621 538.483 236.257 538.483ZM327.284 525.043L306.424 525.043L306.424 530.043L327.284 530.043L327.284 525.043ZM303.924 527.543L303.924 551.817L308.924 551.817L308.924 527.543L303.924 527.543ZM306.424 549.317L236.257 549.317L236.257 554.317L306.424 554.317L306.424 549.317Z" fill="#5C03BC"/>
<rect x="348.524" y="523.75" width="6.82701" height="21.9981" transform="rotate(90 348.524 523.75)" fill="#C086FF"/>
</svg>
