<svg xmlns="http://www.w3.org/2000/svg" width="97" height="97" fill="none"><path fill="url(#a)" fill-rule="evenodd" d="M7.837 44.216a6.058 6.058 0 0 0 0 8.568l36.38 36.379a6.058 6.058 0 0 0 8.567 0l36.379-36.38a6.058 6.058 0 0 0 0-8.567l-36.38-36.38a6.058 6.058 0 0 0-8.567 0l-36.38 36.38Zm25.306-25.19 3.684-3.683 9.763 9.763a6.441 6.441 0 0 1 8.063 8.063l9.768 9.768a6.442 6.442 0 1 1-3.89 3.478l-9.095-9.095v23.538a6.441 6.441 0 1 1-5.21-.294V37.288a6.443 6.443 0 0 1-3.569-8.746l-9.514-9.515Z" clip-rule="evenodd"/><defs><linearGradient id="a" x1="20.343" x2="69.584" y1="74.161" y2="10.664" gradientUnits="userSpaceOnUse"><stop offset=".008" stop-color="#5C03BC"/><stop offset=".531" stop-color="#E536AB"/><stop offset=".899" stop-color="#F4E5F0"/></linearGradient></defs></svg>