<svg xmlns="http://www.w3.org/2000/svg" width="94" height="97" fill="none"><g fill-rule="evenodd" clip-path="url(#a)" clip-rule="evenodd"><path fill="url(#b)" d="M87.532-.075 79.743 87.18l-35.011 9.706-34.915-9.692L2.037-.076h85.495ZM29.643 28.467H70.6l.215-2.405.488-5.427.255-2.87H17.947l.256 2.87 2.63 29.495h37.095l-1.243 13.881-11.937 3.223-.01.003-11.92-3.219-.762-8.536H21.311l1.5 16.806 21.924 6.086.05-.014v-.002l21.904-6.07.16-1.809 2.516-28.178.261-2.874H30.621l-.978-10.96Z"/><path fill="url(#c)" d="m73.075 81.624-28.29 7.843V78.358l21.904-6.07.161-1.809 2.516-28.178.26-2.874H44.784v-10.96H70.6l.215-2.405.488-5.427.256-2.87H44.784V7.06h34.947l-6.656 74.563ZM44.785 50.13v17.093l11.9-3.212 1.242-13.88H44.784Z"/></g><defs><linearGradient id="b" x1="9.754" x2="87.966" y1="86.538" y2="-10.779" gradientUnits="userSpaceOnUse"><stop offset=".008" stop-color="#5C03BC"/><stop offset=".531" stop-color="#E536AB"/><stop offset=".899" stop-color="#F4E5F0"/></linearGradient><linearGradient id="c" x1="87.087" x2="41.789" y1="32.666" y2="30.277" gradientUnits="userSpaceOnUse"><stop offset=".008" stop-color="#5C03BC"/><stop offset=".531" stop-color="#E536AB"/><stop offset="1" stop-color="#F4E5F0"/></linearGradient><clipPath id="a"><path fill="#fff" d="M0 0h93.014v97H0z"/></clipPath></defs></svg>