<svg xmlns="http://www.w3.org/2000/svg" width="97" height="95" fill="none"><g clip-path="url(#a)"><path fill="url(#b)" d="M79.823 0H17.177C7.691 0 0 7.725 0 17.255v60.49C0 87.276 7.69 95 17.177 95h62.646C89.31 95 97 87.275 97 77.746V17.255C97 7.725 89.31 0 79.823 0Z"/><path fill="#fff" d="M47.005 57.012H31.972l-3.057 9.543a.763.763 0 0 1-.781.588H20.52c-.435 0-.587-.24-.455-.72L33.08 28.767c.127-.392.257-.837.39-1.334.17-.872.257-1.759.26-2.648a.403.403 0 0 1 .456-.457h10.346c.303 0 .476.109.521.326l14.77 41.834c.131.434 0 .654-.39.654h-8.459a.599.599 0 0 1-.65-.458l-3.32-9.672Zm-12.688-8.241h10.279c-.26-.873-.563-1.853-.91-2.942a643.982 643.982 0 0 1-1.106-3.498l-1.172-3.724c-.39-1.242-.749-2.441-1.074-3.597-.325-1.156-.62-2.21-.885-3.162h-.065a52.93 52.93 0 0 1-1.367 5.227c-.607 1.962-1.225 3.967-1.855 6.015a176.575 176.575 0 0 1-1.845 5.68ZM68.606 31.259a4.705 4.705 0 0 1-3.578-1.438 5.172 5.172 0 0 1-1.366-3.727 4.813 4.813 0 0 1 1.464-3.62 5.028 5.028 0 0 1 3.604-1.405c1.561 0 2.786.468 3.675 1.405a5.066 5.066 0 0 1 1.328 3.62 5.125 5.125 0 0 1-1.4 3.727 4.988 4.988 0 0 1-3.727 1.438Zm-4.489 35.23V35.243c0-.392.173-.588.52-.588h8.002c.345 0 .52.19.52.588v31.244c0 .434-.173.654-.52.654h-7.936c-.39.002-.586-.218-.586-.654Z"/></g><defs><linearGradient id="b" x1="0" x2="95.912" y1="84.93" y2="-7.06" gradientUnits="userSpaceOnUse"><stop offset=".008" stop-color="#5C03BC"/><stop offset=".531" stop-color="#E536AB"/><stop offset=".899" stop-color="#F4E5F0"/></linearGradient><clipPath id="a"><path fill="#fff" d="M0 0h97v95H0z"/></clipPath></defs></svg>