<svg xmlns="http://www.w3.org/2000/svg" width="97" height="97" fill="none"><mask id="a" width="97" height="97" x="0" y="0" maskUnits="userSpaceOnUse" style="mask-type:alpha"><path fill="#99425B" fill-rule="evenodd" d="M78.882 74.334c3.446-1.996 5.802-5.328 6.464-9.142.502-2.889.032-5.789-1.227-8.366a11.138 11.138 0 0 1-6.388 2.007c-5.676 0-10.376-4.243-11.103-9.724a99.638 99.638 0 0 0-7.127.001c-.727 5.48-5.427 9.723-11.103 9.723-.57 0-1.13-.043-1.677-.125a41.748 41.748 0 0 1-6.628 8.012c-3.996 3.77-8.5 6.564-13.39 8.305l-.895.319-.847-.435c-6.184-3.177-9.13-9.9-7.256-16.082a11.125 11.125 0 0 1-2.894-.727c-.303.636-.615 1.278-.933 1.932-1.841 3.781-3.744 7.69-4.448 11.934-.76 4.581-1.06 12.942 5.46 17.46 8.9 6.169 18.34 1.48 29.27-3.948l.002-.001c5.461-2.713 11.108-5.518 16.939-6.956 2.205-.543 4.463-.87 6.646-1.184 4.075-.587 7.924-1.143 11.135-3.003ZM25.76 47.694a6.813 6.813 0 0 0-6.805-6.805 6.813 6.813 0 0 0-6.805 6.805 6.76 6.76 0 0 0 .895 3.368 6.843 6.843 0 0 0 3.532 3.008 6.777 6.777 0 0 0 2.846.412 6.807 6.807 0 0 0 5.263-3.124 6.761 6.761 0 0 0 1.074-3.664ZM47.388 40.9c-3.275.49-5.795 3.32-5.795 6.73a6.804 6.804 0 0 0 3.117 5.714 6.763 6.763 0 0 0 4.374 1.056 6.82 6.82 0 0 0 6.12-6.77 6.762 6.762 0 0 0-1.436-4.17 6.792 6.792 0 0 0-6.38-2.56Zm19.525 3.819a11.215 11.215 0 0 1 3.082-5.181l-7.112-14.51-7.042 14.239a11.225 11.225 0 0 1 3.375 5.452 104.43 104.43 0 0 1 7.697 0Zm19.171-40.32H39.662L50.59 36.643c.495.099.979.229 1.448.39L62.9 15.071l10.831 22.095c.45-.172.914-.316 1.389-.43L86.084 4.398Zm-1.838 45.194c.188-.622.29-1.28.29-1.963 0-3.538-2.713-6.453-6.168-6.775a6.8 6.8 0 0 0-6.271 2.97 6.8 6.8 0 0 0-.644 1.18 6.788 6.788 0 0 0-.294 4.39c.78 2.899 3.43 5.04 6.572 5.04a6.766 6.766 0 0 0 3.893-1.228 6.831 6.831 0 0 0 2.623-3.614Z" clip-rule="evenodd"/></mask><g mask="url(#a)"><path fill="url(#b)" d="M9.04-12.285H97V92.351H9.04z"/></g><defs><linearGradient id="b" x1="26.48" x2="87.376" y1="77.668" y2="-7.535" gradientUnits="userSpaceOnUse"><stop offset=".008" stop-color="#5C03BC"/><stop offset=".531" stop-color="#E536AB"/><stop offset=".899" stop-color="#F4E5F0"/></linearGradient></defs></svg>