<svg xmlns="http://www.w3.org/2000/svg" width="97" height="97" fill="none"><path fill="url(#a)" fill-rule="evenodd" d="M97 0H0v97h97V0ZM32.928 76.568l-7.423 4.492c2.148 4.557 6.381 8.334 13.673 8.334 8.075 0 13.609-4.298 13.609-13.739V44.532h-9.115v30.994c0 4.558-1.89 5.73-4.884 5.73-3.125 0-4.428-2.15-5.86-4.688Zm32.232-.782-7.422 4.297c2.67 5.275 8.139 9.312 16.603 9.312 8.66 0 15.106-4.492 15.106-12.697 0-7.618-4.362-11.003-12.111-14.324l-2.279-.977c-3.906-1.693-5.6-2.8-5.6-5.535 0-2.213 1.694-3.906 4.363-3.906 2.605 0 4.297 1.106 5.86 3.906l7.098-4.558c-2.995-5.274-7.162-7.293-12.957-7.293-8.14 0-13.348 5.21-13.348 12.046 0 7.423 4.362 10.94 10.939 13.738l2.278.978c4.167 1.822 6.642 2.93 6.642 6.055 0 2.604-2.409 4.493-6.186 4.493-4.492 0-7.032-2.344-8.986-5.535Z" clip-rule="evenodd"/><defs><linearGradient id="a" x1="0" x2="95.191" y1="89.01" y2="-4.708" gradientUnits="userSpaceOnUse"><stop stop-color="#5C03BC"/><stop offset=".531" stop-color="#E536AB"/><stop offset="1" stop-color="#F4E5F0"/></linearGradient></defs></svg>