<svg width="437" height="58" viewBox="0 0 437 58" fill="none" xmlns="http://www.w3.org/2000/svg">
<path d="M21.5264 25.3125L30.7771 36L29.0536 50.25H18.5014L0 28.875L0.844173 21.75L24.5514 0.375H35.1035L33.38 14.625L21.5264 25.3125Z" fill="url(#paint0_linear_50_336)"/>
<path d="M50.5448 18.1875L45.7612 57.375L33.4503 43.125L38.6209 0.375H56.2078L62.3632 7.5L70.2774 0.375H87.8643L81.8144 50.25H67.7448L71.6491 18.1875L70.1015 16.4062L68.1318 18.1875L64.2275 50.25H50.1579L54.0622 18.1875L52.5146 16.4062L50.5448 18.1875Z" fill="url(#paint1_linear_50_336)"/>
<path d="M103.306 18.1875H134.962L126.169 32.4375H101.547L101.125 36H129.264L141.61 50.25H85.3318L91.3817 0.375H147.66L131.867 14.625H103.728L103.306 18.1875Z" fill="url(#paint2_linear_50_336)"/>
<path d="M156.066 18.1875L151.283 57.375L138.972 43.125L144.142 0.375H161.729L167.885 7.5L175.799 0.375H193.386L187.336 50.25H173.266L177.171 18.1875L175.623 16.4062L173.653 18.1875L169.749 50.25H155.679L159.584 18.1875L158.036 16.4062L156.066 18.1875Z" fill="url(#paint3_linear_50_336)"/>
<path d="M229.931 18.1875L226.836 14.625H212.767L208.827 18.1875L207.068 32.4375L210.164 36H224.233L228.173 32.4375L229.931 18.1875ZM239.112 0.375L245.267 7.5L240.976 43.125L233.062 50.25H197.888L191.733 43.125L196.024 7.5L203.938 0.375H239.112Z" fill="url(#paint4_linear_50_336)"/>
<path d="M262.01 14.625L261.131 21.75H278.718L282.692 18.1875L279.597 14.625H262.01ZM259.407 36L257.684 50.25H243.614L249.664 0.375H291.873L298.028 7.5L295.46 28.875L287.546 36H285.893L298.239 50.25H278.331L265.985 36H259.407Z" fill="url(#paint5_linear_50_336)"/>
<path d="M335.453 18.1875L337.599 0.375H351.668L348.221 28.875L340.307 36H329.755L327.152 57.375L314.841 43.125L315.685 36H305.133L298.978 28.875L302.425 0.375H316.494L314.349 18.1875L317.409 21.75H331.478L335.453 18.1875Z" fill="url(#paint6_linear_50_336)"/>
<path d="M359.09 50.25H349.136L350.367 40.1681L394.475 0.375H404.429L403.198 10.4569L359.09 50.25Z" fill="url(#paint7_linear_50_336)"/>
<path d="M415.474 25.3125L406.223 14.625L407.946 0.375H418.499L437 21.75L436.156 28.875L412.449 50.25H401.896L403.62 36L415.474 25.3125Z" fill="url(#paint8_linear_50_336)"/>
<defs>
<linearGradient id="paint0_linear_50_336" x1="52.5077" y1="14.1797" x2="384.47" y2="17.4008" gradientUnits="userSpaceOnUse">
<stop offset="0.00833321" stop-color="#5C03BC"/>
<stop offset="0.53125" stop-color="#E536AB"/>
<stop offset="0.898958" stop-color="#F4E5F0"/>
</linearGradient>
<linearGradient id="paint1_linear_50_336" x1="52.5077" y1="14.1797" x2="384.47" y2="17.4008" gradientUnits="userSpaceOnUse">
<stop offset="0.00833321" stop-color="#5C03BC"/>
<stop offset="0.53125" stop-color="#E536AB"/>
<stop offset="0.898958" stop-color="#F4E5F0"/>
</linearGradient>
<linearGradient id="paint2_linear_50_336" x1="52.5077" y1="14.1797" x2="384.47" y2="17.4008" gradientUnits="userSpaceOnUse">
<stop offset="0.00833321" stop-color="#5C03BC"/>
<stop offset="0.53125" stop-color="#E536AB"/>
<stop offset="0.898958" stop-color="#F4E5F0"/>
</linearGradient>
<linearGradient id="paint3_linear_50_336" x1="52.5077" y1="14.1797" x2="384.47" y2="17.4008" gradientUnits="userSpaceOnUse">
<stop offset="0.00833321" stop-color="#5C03BC"/>
<stop offset="0.53125" stop-color="#E536AB"/>
<stop offset="0.898958" stop-color="#F4E5F0"/>
</linearGradient>
<linearGradient id="paint4_linear_50_336" x1="52.5077" y1="14.1797" x2="384.47" y2="17.4008" gradientUnits="userSpaceOnUse">
<stop offset="0.00833321" stop-color="#5C03BC"/>
<stop offset="0.53125" stop-color="#E536AB"/>
<stop offset="0.898958" stop-color="#F4E5F0"/>
</linearGradient>
<linearGradient id="paint5_linear_50_336" x1="52.5077" y1="14.1797" x2="384.47" y2="17.4008" gradientUnits="userSpaceOnUse">
<stop offset="0.00833321" stop-color="#5C03BC"/>
<stop offset="0.53125" stop-color="#E536AB"/>
<stop offset="0.898958" stop-color="#F4E5F0"/>
</linearGradient>
<linearGradient id="paint6_linear_50_336" x1="52.5077" y1="14.1797" x2="384.47" y2="17.4008" gradientUnits="userSpaceOnUse">
<stop offset="0.00833321" stop-color="#5C03BC"/>
<stop offset="0.53125" stop-color="#E536AB"/>
<stop offset="0.898958" stop-color="#F4E5F0"/>
</linearGradient>
<linearGradient id="paint7_linear_50_336" x1="52.5077" y1="14.1797" x2="384.47" y2="17.4008" gradientUnits="userSpaceOnUse">
<stop offset="0.00833321" stop-color="#5C03BC"/>
<stop offset="0.53125" stop-color="#E536AB"/>
<stop offset="0.898958" stop-color="#F4E5F0"/>
</linearGradient>
<linearGradient id="paint8_linear_50_336" x1="52.5077" y1="14.1797" x2="384.47" y2="17.4008" gradientUnits="userSpaceOnUse">
<stop offset="0.00833321" stop-color="#5C03BC"/>
<stop offset="0.53125" stop-color="#E536AB"/>
<stop offset="0.898958" stop-color="#F4E5F0"/>
</linearGradient>
</defs>
</svg>
