<svg width="100%" height="100%" viewBox="0 0 175 58" fill="none" xmlns="http://www.w3.org/2000/svg">
<path d="M22.2279 25.7187L31.5215 36.4062L29.79 50.6562H19.1889L0.601562 29.2812L1.44965 22.1562L25.2669 0.78125H35.868L34.1365 15.0312L22.2279 25.7187Z" fill="url(#paint0_linear_50_347)"/>
<path d="M51.381 18.5937L46.5752 57.7812L34.2072 43.5312L39.4017 0.78125H57.0703L63.2543 7.90625L71.2051 0.78125H88.8737L82.7957 50.6562H68.6609L72.5833 18.5937L71.0284 16.8125L69.0496 18.5937L65.1271 50.6562H50.9923L54.9147 18.5937L53.3599 16.8125L51.381 18.5937Z" fill="url(#paint1_linear_50_347)"/>
<path d="M96.3298 50.6562H86.3294L87.5662 40.5744L131.879 0.78125H141.879L140.643 10.8631L96.3298 50.6562Z" fill="url(#paint2_linear_50_347)"/>
<path d="M152.975 25.7187L143.682 15.0312L145.413 0.78125H156.014L174.602 22.1562L173.753 29.2812L149.936 50.6562H139.335L141.067 36.4062L152.975 25.7187Z" fill="url(#paint3_linear_50_347)"/>
<defs>
<linearGradient id="paint0_linear_50_347" x1="21.5085" y1="14.5859" x2="153.696" y2="15.0966" gradientUnits="userSpaceOnUse">
<stop offset="0.00833321" stop-color="#5C03BC"/>
<stop offset="0.53125" stop-color="#E536AB"/>
<stop offset="0.898958" stop-color="#F4E5F0"/>
</linearGradient>
<linearGradient id="paint1_linear_50_347" x1="21.5085" y1="14.5859" x2="153.696" y2="15.0966" gradientUnits="userSpaceOnUse">
<stop offset="0.00833321" stop-color="#5C03BC"/>
<stop offset="0.53125" stop-color="#E536AB"/>
<stop offset="0.898958" stop-color="#F4E5F0"/>
</linearGradient>
<linearGradient id="paint2_linear_50_347" x1="21.5085" y1="14.5859" x2="153.696" y2="15.0966" gradientUnits="userSpaceOnUse">
<stop offset="0.00833321" stop-color="#5C03BC"/>
<stop offset="0.53125" stop-color="#E536AB"/>
<stop offset="0.898958" stop-color="#F4E5F0"/>
</linearGradient>
<linearGradient id="paint3_linear_50_347" x1="21.5085" y1="14.5859" x2="153.696" y2="15.0966" gradientUnits="userSpaceOnUse">
<stop offset="0.00833321" stop-color="#5C03BC"/>
<stop offset="0.53125" stop-color="#E536AB"/>
<stop offset="0.898958" stop-color="#F4E5F0"/>
</linearGradient>
</defs>
</svg>
