<svg xmlns="http://www.w3.org/2000/svg" width="437" height="58" fill="none"><path fill="url(#a)" d="M21.526 25.313 30.777 36l-1.723 14.25H18.5L0 28.875l.844-7.125L24.551.375h10.552l-1.723 14.25-11.854 10.688Z"/><path fill="url(#b)" d="M50.545 18.188 45.76 57.374l-12.31-14.25L38.62.375h17.587L62.363 7.5 70.277.375h17.587l-6.05 49.875h-14.07l3.905-32.063-1.547-1.78-1.97 1.78-3.904 32.063h-14.07l3.904-32.063-1.547-1.78-1.97 1.78Z"/><path fill="url(#c)" d="M103.306 18.188h31.656l-8.793 14.25h-24.622L101.125 36h28.139l12.346 14.25H85.332L91.382.375h56.278l-15.793 14.25h-28.139l-.422 3.563Z"/><path fill="url(#d)" d="m156.066 18.188-4.783 39.187-12.311-14.25 5.17-42.75h17.587l6.156 7.125 7.914-7.125h17.587l-6.05 49.875h-14.07l3.905-32.063-1.548-1.78-1.97 1.78-3.904 32.063h-14.07l3.905-32.063-1.548-1.78-1.97 1.78Z"/><path fill="url(#e)" d="m229.931 18.188-3.095-3.563h-14.069l-3.94 3.563-1.759 14.25L210.164 36h14.069l3.94-3.563 1.758-14.25ZM239.112.375l6.155 7.125-4.291 35.625-7.914 7.125h-35.174l-6.155-7.125L196.024 7.5l7.914-7.125h35.174Z"/><path fill="url(#f)" d="m262.01 14.625-.879 7.125h17.587l3.974-3.563-3.095-3.562H262.01ZM259.407 36l-1.723 14.25h-14.07l6.05-49.875h42.209l6.155 7.125-2.568 21.375L287.546 36h-1.653l12.346 14.25h-19.908L265.985 36h-6.578Z"/><path fill="url(#g)" d="M335.453 18.188 337.599.375h14.069l-3.447 28.5L340.307 36h-10.552l-2.603 21.375-12.311-14.25.844-7.125h-10.552l-6.155-7.125 3.447-28.5h14.069l-2.145 17.813 3.06 3.562h14.069l3.975-3.563Z"/><path fill="url(#h)" d="M359.09 50.25h-9.954l1.231-10.082L394.475.375h9.954l-1.231 10.082L359.09 50.25Z"/><path fill="url(#i)" d="m415.474 25.313-9.251-10.688 1.723-14.25h10.553L437 21.75l-.844 7.125-23.707 21.375h-10.553L403.62 36l11.854-10.688Z"/><defs><linearGradient id="a" x1="52.508" x2="384.47" y1="14.18" y2="17.401" gradientUnits="userSpaceOnUse"><stop offset=".008" stop-color="#5C03BC"/><stop offset=".531" stop-color="#E536AB"/><stop offset=".899" stop-color="#F4E5F0"/></linearGradient><linearGradient id="b" x1="52.508" x2="384.47" y1="14.18" y2="17.401" gradientUnits="userSpaceOnUse"><stop offset=".008" stop-color="#5C03BC"/><stop offset=".531" stop-color="#E536AB"/><stop offset=".899" stop-color="#F4E5F0"/></linearGradient><linearGradient id="c" x1="52.508" x2="384.47" y1="14.18" y2="17.401" gradientUnits="userSpaceOnUse"><stop offset=".008" stop-color="#5C03BC"/><stop offset=".531" stop-color="#E536AB"/><stop offset=".899" stop-color="#F4E5F0"/></linearGradient><linearGradient id="d" x1="52.508" x2="384.47" y1="14.18" y2="17.401" gradientUnits="userSpaceOnUse"><stop offset=".008" stop-color="#5C03BC"/><stop offset=".531" stop-color="#E536AB"/><stop offset=".899" stop-color="#F4E5F0"/></linearGradient><linearGradient id="e" x1="52.508" x2="384.47" y1="14.18" y2="17.401" gradientUnits="userSpaceOnUse"><stop offset=".008" stop-color="#5C03BC"/><stop offset=".531" stop-color="#E536AB"/><stop offset=".899" stop-color="#F4E5F0"/></linearGradient><linearGradient id="f" x1="52.508" x2="384.47" y1="14.18" y2="17.401" gradientUnits="userSpaceOnUse"><stop offset=".008" stop-color="#5C03BC"/><stop offset=".531" stop-color="#E536AB"/><stop offset=".899" stop-color="#F4E5F0"/></linearGradient><linearGradient id="g" x1="52.508" x2="384.47" y1="14.18" y2="17.401" gradientUnits="userSpaceOnUse"><stop offset=".008" stop-color="#5C03BC"/><stop offset=".531" stop-color="#E536AB"/><stop offset=".899" stop-color="#F4E5F0"/></linearGradient><linearGradient id="h" x1="52.508" x2="384.47" y1="14.18" y2="17.401" gradientUnits="userSpaceOnUse"><stop offset=".008" stop-color="#5C03BC"/><stop offset=".531" stop-color="#E536AB"/><stop offset=".899" stop-color="#F4E5F0"/></linearGradient><linearGradient id="i" x1="52.508" x2="384.47" y1="14.18" y2="17.401" gradientUnits="userSpaceOnUse"><stop offset=".008" stop-color="#5C03BC"/><stop offset=".531" stop-color="#E536AB"/><stop offset=".899" stop-color="#F4E5F0"/></linearGradient></defs></svg>