<svg xmlns="http://www.w3.org/2000/svg" fill="none" viewBox="0 0 175 58"><path fill="url(#a)" d="m22.228 25.719 9.293 10.687-1.731 14.25H19.189L.602 29.281l.848-7.125L25.267.781h10.601l-1.732 14.25L22.228 25.72Z"/><path fill="url(#b)" d="M51.381 18.594 46.575 57.78l-12.368-14.25L39.402.781H57.07l6.184 7.125L71.205.781h17.669l-6.078 49.875H68.66l3.922-32.062-1.555-1.782-1.978 1.782-3.923 32.062H50.992l3.923-32.062-1.555-1.782-1.979 1.782Z"/><path fill="url(#c)" d="M96.33 50.656h-10l1.236-10.082L131.88.781h10l-1.236 10.082L96.33 50.656Z"/><path fill="url(#d)" d="m152.975 25.719-9.293-10.688 1.731-14.25h10.601l18.588 21.375-.849 7.125-23.817 21.375h-10.601l1.732-14.25 11.908-10.687Z"/><defs><linearGradient id="a" x1="21.509" x2="153.696" y1="14.586" y2="15.097" gradientUnits="userSpaceOnUse"><stop offset=".008" stop-color="#5C03BC"/><stop offset=".531" stop-color="#E536AB"/><stop offset=".899" stop-color="#F4E5F0"/></linearGradient><linearGradient id="b" x1="21.509" x2="153.696" y1="14.586" y2="15.097" gradientUnits="userSpaceOnUse"><stop offset=".008" stop-color="#5C03BC"/><stop offset=".531" stop-color="#E536AB"/><stop offset=".899" stop-color="#F4E5F0"/></linearGradient><linearGradient id="c" x1="21.509" x2="153.696" y1="14.586" y2="15.097" gradientUnits="userSpaceOnUse"><stop offset=".008" stop-color="#5C03BC"/><stop offset=".531" stop-color="#E536AB"/><stop offset=".899" stop-color="#F4E5F0"/></linearGradient><linearGradient id="d" x1="21.509" x2="153.696" y1="14.586" y2="15.097" gradientUnits="userSpaceOnUse"><stop offset=".008" stop-color="#5C03BC"/><stop offset=".531" stop-color="#E536AB"/><stop offset=".899" stop-color="#F4E5F0"/></linearGradient></defs></svg>