<svg width="97" height="97" viewBox="0 0 97 97" fill="none" xmlns="http://www.w3.org/2000/svg">
<g clip-path="url(#clip0_24_982)">
<path d="M48.4938 24.2484L90.4892 24.2485C86.2337 16.8753 80.1119 10.7524 72.7395 6.49555C65.367 2.23869 57.0037 -0.00209536 48.4906 -0.00150061C39.9774 -0.000905862 31.6144 2.24105 24.2426 6.49894C16.8707 10.7568 10.7498 16.8805 6.49534 24.2544L27.4931 60.6235L27.5118 60.6186C25.3757 56.9352 24.2485 52.7537 24.2437 48.4957C24.239 44.2378 25.3568 40.0538 27.4845 36.3655C29.6123 32.6773 32.6747 29.6152 36.3632 27.4879C40.0517 25.3605 44.2358 24.2432 48.4938 24.2484Z" fill="url(#paint0_linear_24_982)"/>
<path d="M69.5055 60.6203L48.5077 96.9894C57.0209 96.9906 65.3843 94.7504 72.7571 90.4941C80.1299 86.2378 86.2521 80.1154 90.5082 72.7425C94.7642 65.3696 97.0041 57.0061 97.0026 48.4929C97.0011 39.9797 94.7583 31.617 90.4996 24.2456L48.5042 24.2457L48.499 24.2643C52.757 24.2561 56.9418 25.3707 60.6318 27.4955C64.3217 29.6203 67.3862 32.6804 69.5164 36.3672C71.6466 40.054 72.7673 44.2372 72.7654 48.4952C72.7635 52.7532 71.6391 56.9354 69.5055 60.6203Z" fill="url(#paint1_linear_24_982)"/>
<path d="M27.5007 60.6313L6.50306 24.2621C2.24542 31.6341 0.00373526 39.9972 0.003418 48.5103C0.00310074 57.0235 2.24416 65.3867 6.50126 72.759C10.7584 80.1313 16.8814 86.2529 24.2548 90.5082C31.6282 94.7634 39.9919 97.0024 48.5051 97L69.5027 60.6309L69.4892 60.6171C67.3673 64.3087 64.3096 67.3756 60.6245 69.5088C56.9394 71.6419 52.757 72.7658 48.4991 72.7673C44.2411 72.7687 40.058 71.6476 36.3714 69.5169C32.6849 67.3863 29.6252 64.3214 27.5007 60.6313Z" fill="url(#paint2_linear_24_982)"/>
<path d="M48.4999 67.6979C59.1026 67.6979 67.6978 59.1027 67.6978 48.5C67.6978 37.8973 59.1026 29.3021 48.4999 29.3021C37.8972 29.3021 29.302 37.8973 29.302 48.5C29.302 59.1027 37.8972 67.6979 48.4999 67.6979Z" fill="#5C03BC"/>
</g>
<defs>
<linearGradient id="paint0_linear_24_982" x1="97.289" y1="17.6309" x2="2.77851" y2="32.4493" gradientUnits="userSpaceOnUse">
<stop offset="0.00833321" stop-color="#5C03BC"/>
<stop offset="0.53125" stop-color="#E536AB"/>
<stop offset="0.898958" stop-color="#F4E5F0"/>
</linearGradient>
<linearGradient id="paint1_linear_24_982" x1="45.7659" y1="102.618" x2="95.9309" y2="18.6539" gradientUnits="userSpaceOnUse">
<stop offset="0.00833321" stop-color="#5C03BC"/>
<stop offset="0.53125" stop-color="#E536AB"/>
<stop offset="0.898958" stop-color="#F4E5F0"/>
</linearGradient>
<linearGradient id="paint2_linear_24_982" x1="-3.73628" y1="24.2621" x2="63.6683" y2="84.9587" gradientUnits="userSpaceOnUse">
<stop offset="0.00833321" stop-color="#5C03BC"/>
<stop offset="0.53125" stop-color="#E536AB"/>
<stop offset="0.898958" stop-color="#F4E5F0"/>
</linearGradient>
<clipPath id="clip0_24_982">
<rect width="97" height="97" fill="white"/>
</clipPath>
</defs>
</svg>
