<svg xmlns="http://www.w3.org/2000/svg" width="97" height="97" fill="none"><g clip-path="url(#a)"><path fill="url(#b)" d="M45.324.026c-.209.02-.873.085-1.47.133C30.077 1.4 17.172 8.834 8.998 20.258 4.447 26.61 1.536 33.815.436 41.447.047 44.11 0 44.897 0 48.51c0 3.612.047 4.398.436 7.063 2.636 18.212 15.598 33.513 33.177 39.182 3.148 1.015 6.467 1.707 10.24 2.124 1.47.161 7.823.161 9.293 0 6.514-.72 12.033-2.332 17.475-5.11.835-.427.996-.54.882-.635-.076-.057-3.631-4.826-7.898-10.59l-7.756-10.476-9.72-14.382c-5.347-7.907-9.747-14.372-9.785-14.372-.038-.01-.076 6.38-.095 14.183-.028 13.661-.038 14.21-.208 14.533-.247.465-.436.654-.835.863-.303.152-.569.18-2 .18h-1.64l-.437-.275a1.773 1.773 0 0 1-.635-.692l-.2-.426.02-19.009.028-19.018.294-.37c.152-.199.474-.455.702-.578.389-.19.54-.208 2.18-.208 1.935 0 2.257.075 2.76.625.142.152 5.404 8.078 11.7 17.624 6.297 9.547 14.906 22.583 19.135 28.982l7.68 11.633.39-.256c3.441-2.237 7.082-5.423 9.965-8.74 6.134-7.045 10.088-15.634 11.416-24.792.389-2.665.436-3.451.436-7.063 0-3.613-.047-4.4-.436-7.063C93.928 23.233 80.966 7.932 63.387 2.264 60.286 1.259 56.987.566 53.288.149c-.91-.094-7.177-.199-7.964-.123ZM65.179 29.36c.455.227.825.663.957 1.118.076.247.095 5.518.076 17.397l-.028 17.046-3.006-4.607-3.015-4.608v-12.39c0-8.012.038-12.515.095-12.733.151-.531.483-.948.938-1.195.389-.199.531-.218 2.02-.218 1.403 0 1.65.02 1.963.19Z"/></g><defs><linearGradient id="b" x1="9.192" x2="90.964" y1="86.47" y2="3.215" gradientUnits="userSpaceOnUse"><stop offset=".008" stop-color="#5C03BC"/><stop offset=".531" stop-color="#E536AB"/><stop offset=".899" stop-color="#F4E5F0"/></linearGradient><clipPath id="a"><path fill="#fff" d="M0 0h97v97H0z"/></clipPath></defs></svg>