<svg xmlns="http://www.w3.org/2000/svg" width="97" height="97" fill="none"><path fill="url(#a)" fill-rule="evenodd" d="M79.824 1.326H17.176C7.69 1.326 0 8.998 0 18.461v60.078c0 9.463 7.69 17.135 17.176 17.135h62.648C89.31 95.674 97 88.002 97 78.539V18.461c0-9.463-7.69-17.135-17.176-17.135ZM21.843 67.49V26.007c0-.3.129-.453.39-.453.692 0 1.327 0 2.275-.032.69-.024 1.43-.036 2.208-.05h.001l.882-.015 3.514-.066c1.236-.021 2.461-.032 3.675-.032 3.297 0 6.077.41 8.34 1.233a14.486 14.486 0 0 1 5.433 3.31 12.677 12.677 0 0 1 2.96 4.578c.608 1.677.916 3.447.908 5.23 0 3.464-.802 6.32-2.407 8.57a13.61 13.61 0 0 1-6.507 4.9c-2.733 1.018-5.772 1.362-9.111 1.362-.948 0-1.627-.01-2.017-.032-.39-.023-.976-.032-1.757-.032v12.95a.513.513 0 0 1-.586.585h-7.746c-.311-.006-.455-.178-.455-.524Zm8.787-34.145v13.529c.564.044 1.084.066 1.562.064h2.147c1.58-.005 3.15-.255 4.654-.741a7.014 7.014 0 0 0 3.318-2.137c.846-.994 1.268-2.38 1.268-4.16a6.556 6.556 0 0 0-.947-3.57 6.063 6.063 0 0 0-2.828-2.304 12.098 12.098 0 0 0-4.739-.812c-1.042 0-1.964.011-2.765.033-.801.021-1.355.054-1.66.098h-.01Zm43.087 9.706a15.19 15.19 0 0 1 3.872 1.363.632.632 0 0 0 .563.004.436.436 0 0 0 .19-.39V37.47a1.754 1.754 0 0 0-.065-.486.593.593 0 0 0-.39-.358 13.213 13.213 0 0 0-3.488-.945 31.756 31.756 0 0 0-5.011-.355c-2.864 0-5.25.475-7.158 1.427a9.918 9.918 0 0 0-4.23 3.7 9.288 9.288 0 0 0-1.369 4.883 8.935 8.935 0 0 0 .948 4.122 9.92 9.92 0 0 0 3.06 3.403 23.91 23.91 0 0 0 5.758 2.922c1.997.728 3.322 1.352 3.972 1.871.651.52.977 1.061.977 1.625a1.831 1.831 0 0 1-1.073 1.686c-.718.39-1.835.585-3.351.585a20.642 20.642 0 0 1-4.752-.617 17.392 17.392 0 0 1-5.016-1.98.314.314 0 0 0-.358-.032.378.378 0 0 0-.163.358v7.01a.838.838 0 0 0 .457.778 17.553 17.553 0 0 0 4.132 1.3 26.7 26.7 0 0 0 5.497.52c2.906 0 5.349-.434 7.328-1.302a10.274 10.274 0 0 0 4.522-3.602 9.327 9.327 0 0 0 1.562-5.357 8.901 8.901 0 0 0-.948-4.16 9.463 9.463 0 0 0-3.188-3.342 28.459 28.459 0 0 0-6.215-2.954 26.933 26.933 0 0 1-2.862-1.324 4.407 4.407 0 0 1-1.367-1.07 1.715 1.715 0 0 1-.39-1.038c0-.391.112-.775.324-1.104a2.19 2.19 0 0 1 1.27-.811 8.435 8.435 0 0 1 2.44-.293c1.521.005 3.038.18 4.522.52Z" clip-rule="evenodd"/><defs><linearGradient id="a" x1="3.944" x2="95.148" y1="90.562" y2="-8.474" gradientUnits="userSpaceOnUse"><stop offset=".008" stop-color="#5C03BC"/><stop offset=".531" stop-color="#E536AB"/><stop offset=".899" stop-color="#F4E5F0"/></linearGradient></defs></svg>