<svg xmlns="http://www.w3.org/2000/svg" width="97" height="97" fill="none"><mask id="a" width="97" height="97" x="0" y="0" maskUnits="userSpaceOnUse" style="mask-type:alpha"><path fill="#53C1DE" d="M56.62 48.427c0-4.348-3.635-7.873-8.12-7.873-4.484 0-8.12 3.525-8.12 7.873 0 4.349 3.636 7.874 8.12 7.874 4.485 0 8.12-3.525 8.12-7.874Z"/><path fill="#53C1DE" fill-rule="evenodd" d="M74.873 33.81c1.715-6.757 3.87-19.286-3.728-23.534-7.564-4.229-17.406 3.875-22.603 8.74C43.36 14.2 33.242 6.13 25.65 10.392c-7.56 4.243-5.229 16.564-3.476 23.363-7.052 1.942-19.142 6.125-19.142 14.672 0 8.522 12.077 13.073 19.088 15.014-1.76 6.836-3.974 18.981 3.596 23.215 7.62 4.26 17.708-3.616 22.953-8.534 5.23 4.893 14.978 12.822 22.543 8.576 7.588-4.26 5.612-16.62 3.859-23.459 6.796-1.944 18.899-6.396 18.899-14.812 0-8.465-12.155-12.682-19.096-14.617Zm-.861 25.806c-1.151-3.533-2.705-7.29-4.605-11.17 1.814-3.79 3.307-7.497 4.426-11.007 5.088 1.43 16.251 4.7 16.251 10.988 0 6.348-10.712 9.648-16.072 11.189Zm-4.748 23.822c-5.644 3.168-14.028-4.415-17.891-8.018 2.563-2.717 5.123-5.877 7.623-9.385 4.396-.377 8.55-.996 12.316-1.84 1.234 4.837 3.621 16.061-2.048 19.243Zm-41.608-.045c-5.645-3.156-3.065-13.994-1.77-19.03 3.724.8 7.848 1.374 12.254 1.72 2.516 3.433 5.151 6.588 7.806 9.352-3.28 3.077-12.619 11.128-18.29 7.958ZM6.916 48.427c0-6.371 11.096-9.617 16.3-11.044 1.139 3.589 2.631 7.341 4.433 11.136-1.825 3.85-3.34 7.663-4.488 11.294-4.962-1.378-16.245-5.01-16.245-11.386Zm20.68-34.776c5.667-3.18 14.462 4.566 18.224 8.053-2.642 2.75-5.252 5.882-7.747 9.295-4.276.384-8.37 1.002-12.134 1.829-1.412-5.484-4.005-16 1.657-19.177Zm34.179 21.442c2.901.355 5.681.827 8.291 1.405a78.738 78.738 0 0 1-2.91 7.592 124.757 124.757 0 0 0-5.381-8.997ZM48.543 24.396a81.188 81.188 0 0 1 5.352 6.264 117.93 117.93 0 0 0-10.748-.003 83.843 83.843 0 0 1 5.396-6.261ZM29.878 44.088a81.486 81.486 0 0 1-2.89-7.63 90.215 90.215 0 0 1 8.244-1.372 110.054 110.054 0 0 0-5.354 9.002Zm5.437 17.949c-2.978-.323-5.787-.76-8.38-1.307a82.877 82.877 0 0 1 2.947-7.784 110.048 110.048 0 0 0 5.433 9.09Zm13.336 10.687a85.27 85.27 0 0 1-5.471-6.348c3.6.137 7.209.137 10.81-.019a80.697 80.697 0 0 1-5.339 6.367Zm18.542-19.913c1.215 2.686 2.24 5.285 3.054 7.756a84.789 84.789 0 0 1-8.483 1.402 124.62 124.62 0 0 0 5.429-9.158Zm-10.365 9.615c-5.509.381-11.051.377-16.562.031a105.858 105.858 0 0 1-8.324-13.94 105.824 105.824 0 0 1 8.278-13.913 112.992 112.992 0 0 1 16.576.003c3.09 4.427 5.852 9.07 8.302 13.857-2.42 4.829-5.202 9.493-8.27 13.962Zm12.376-48.887c5.67 3.17 3.146 14.431 1.908 19.328-3.773-.845-7.87-1.473-12.16-1.863-2.498-3.45-5.087-6.587-7.686-9.302C55.076 18.14 63.59 10.4 69.204 13.54Z" clip-rule="evenodd"/></mask><g mask="url(#a)"><path fill="url(#b)" d="M3.031 0H97v87.906H3.031z"/></g><defs><linearGradient id="b" x1="21.663" x2="67.854" y1="75.57" y2="-6.613" gradientUnits="userSpaceOnUse"><stop offset=".008" stop-color="#5C03BC"/><stop offset=".531" stop-color="#E536AB"/><stop offset=".899" stop-color="#F4E5F0"/></linearGradient></defs></svg>