<svg xmlns="http://www.w3.org/2000/svg" width="97" height="97" fill="none"><g clip-path="url(#a)"><path fill="url(#b)" d="M67.21 66.586c3.58-.37 6.296-3.456 6.172-7.16-.123-3.703-3.209-6.665-6.912-6.665h-.247c-3.827.123-6.789 3.333-6.665 7.16.123 1.851.864 3.456 1.974 4.567-4.196 8.27-10.615 14.319-20.243 19.38-6.542 3.456-13.331 4.69-20.12 3.827-5.555-.74-9.875-3.21-12.59-7.283-3.95-6.049-4.32-12.592-.988-19.134 2.345-4.69 6.048-8.147 8.393-9.875-.493-1.605-1.234-4.32-1.604-6.295-17.899 12.96-16.047 30.49-10.616 38.76 4.074 6.172 12.344 9.999 21.478 9.999 2.469 0 4.938-.247 7.406-.864 15.8-3.086 27.774-12.468 34.563-26.417ZM88.937 51.28C79.554 40.293 65.73 34.245 49.93 34.245h-1.975c-1.111-2.222-3.457-3.704-6.049-3.704h-.247c-3.826.124-6.788 3.333-6.665 7.16.123 3.703 3.21 6.666 6.912 6.666h.247c2.716-.124 5.061-1.852 6.048-4.197h2.222c9.382 0 18.269 2.715 26.293 8.023 6.171 4.074 10.615 9.382 13.084 15.8 2.098 5.185 1.975 10.247-.247 14.567-3.456 6.542-9.258 10.122-16.911 10.122-4.938 0-9.628-1.481-12.097-2.592-1.358 1.234-3.827 3.21-5.555 4.444 5.308 2.468 10.74 3.826 15.924 3.826 11.85 0 20.614-6.542 23.947-13.084 3.58-7.16 3.332-19.504-5.925-29.996ZM26.23 68.684c.123 3.704 3.21 6.666 6.912 6.666h.247c3.827-.123 6.79-3.333 6.666-7.16-.124-3.703-3.21-6.665-6.913-6.665h-.247c-.247 0-.617 0-.863.123-5.061-8.394-7.16-17.528-6.42-27.404.494-7.406 2.963-13.825 7.284-19.133 3.579-4.568 10.491-6.79 15.182-6.913 13.084-.247 18.639 16.047 19.01 22.59 1.604.37 4.32 1.235 6.171 1.852C71.778 12.643 59.434 2.273 47.585 2.273c-11.11 0-21.355 8.024-25.429 19.875-5.678 15.8-1.975 30.983 4.938 42.957-.617.864-.988 2.221-.864 3.58Z"/></g><defs><linearGradient id="b" x1="0" x2="81.076" y1="60.504" y2=".798" gradientUnits="userSpaceOnUse"><stop offset=".008" stop-color="#5C03BC"/><stop offset=".531" stop-color="#E536AB"/><stop offset=".899" stop-color="#F4E5F0"/></linearGradient><clipPath id="a"><path fill="#fff" d="M0 0h97v97H0z"/></clipPath></defs></svg>