<svg xmlns="http://www.w3.org/2000/svg" width="97" height="97" fill="none"><path fill="url(#a)" d="M83.495 53.89c-3.391.02-6.328.833-8.79 2.044-.91-1.797-1.82-3.368-1.971-4.541-.17-1.363-.379-2.196-.17-3.823.208-1.628 1.155-3.936 1.155-4.126-.019-.17-.208-1.003-2.16-1.022-1.951-.018-3.637.379-3.826.89-.19.51-.569 1.684-.815 2.895-.341 1.78-3.903 8.081-5.93 11.393-.663-1.287-1.231-2.422-1.345-3.33-.17-1.363-.38-2.196-.17-3.824.208-1.627 1.155-3.936 1.155-4.125-.019-.17-.208-1.003-2.16-1.022-1.951-.019-3.637.378-3.827.89-.19.51-.398 1.721-.814 2.895-.398 1.173-5.135 11.695-6.366 14.44a58.524 58.524 0 0 1-1.572 3.273c-.398.757-.02.057-.057.133-.341.643-.53 1.003-.53 1.003v.018c-.266.474-.55.928-.683.928-.094 0-.284-1.268.038-3.01.701-3.652 2.406-9.348 2.387-9.556 0-.095.322-1.098-1.099-1.609-1.383-.51-1.875.341-1.989.341-.114 0-.208.303-.208.303s1.534-6.416-2.937-6.416c-2.804 0-6.669 3.047-8.582 5.83-1.213.661-3.79 2.062-6.517 3.557-1.042.568-2.122 1.173-3.145 1.722l-.209-.227c-5.418-5.772-15.44-9.86-15.023-17.619.151-2.82 1.137-10.257 19.248-19.265 14.834-7.38 26.713-5.355 28.778-.851 2.937 6.434-6.346 18.394-21.768 20.116-5.873.663-8.961-1.608-9.738-2.46-.814-.89-.928-.927-1.231-.757-.493.265-.19 1.06 0 1.533.454 1.192 2.349 3.312 5.57 4.372 2.822.927 9.719 1.438 18.055-1.78 9.34-3.614 16.633-13.644 14.493-22.027-2.18-8.535-16.35-11.336-29.744-6.586-7.977 2.839-16.616 7.267-22.83 13.077C.78 34.455-.395 40.473.098 42.97c1.724 8.914 14.02 14.724 18.945 19.02-.246.132-.474.264-.682.378-2.463 1.211-11.84 6.112-14.19 11.298-2.652 5.866.417 10.086 2.463 10.654 6.328 1.76 12.807-1.4 16.312-6.605 3.486-5.204 3.069-11.96 1.458-15.044l-.056-.114 1.932-1.135c1.25-.739 2.482-1.42 3.562-2.006-.606 1.646-1.042 3.595-1.27 6.434-.265 3.33 1.1 7.645 2.9 9.349.795.738 1.742.757 2.33.757 2.083 0 3.03-1.723 4.073-3.785 1.288-2.517 2.425-5.432 2.425-5.432s-1.421 7.892 2.463 7.892c1.42 0 2.841-1.836 3.486-2.782v.019s.037-.057.113-.19c.152-.227.227-.359.227-.359v-.038c.569-.984 1.838-3.236 3.733-6.964 2.444-4.807 4.793-10.825 4.793-10.825s.227 1.476.928 3.899c.417 1.438 1.326 3.009 2.027 4.541-.568.795-.909 1.25-.909 1.25l.019.019a53.87 53.87 0 0 1-1.497 1.892c-1.932 2.309-4.243 4.94-4.547 5.696-.36.89-.284 1.552.417 2.082.512.378 1.421.454 2.387.378 1.743-.113 2.956-.548 3.562-.813.947-.341 2.027-.852 3.07-1.609 1.894-1.4 3.05-3.387 2.936-6.037-.057-1.457-.53-2.895-1.118-4.258.17-.246.34-.492.511-.757 2.994-4.371 5.305-9.178 5.305-9.178s.227 1.476.928 3.898c.36 1.23 1.08 2.574 1.724 3.899-2.803 2.29-4.565 4.939-5.172 6.68-1.117 3.217-.246 4.674 1.402 5.015.74.151 1.8-.19 2.596-.53.985-.322 2.178-.87 3.277-1.684 1.895-1.4 3.714-3.35 3.619-5.98-.057-1.212-.379-2.404-.815-3.54 2.387-.983 5.475-1.551 9.397-1.078 8.43.984 10.098 6.245 9.776 8.44-.322 2.196-2.084 3.407-2.671 3.785-.588.36-.777.492-.72.757.076.398.34.379.852.303.701-.113 4.433-1.798 4.585-5.848.227-5.204-4.717-10.881-13.489-10.824Zm-65.02 21.896c-2.785 3.047-6.707 4.201-8.374 3.217-1.8-1.04-1.099-5.525 2.33-8.762 2.084-1.968 4.793-3.784 6.574-4.901.398-.246 1.004-.606 1.724-1.04.114-.077.19-.114.19-.114.132-.076.284-.17.435-.265 1.27 4.617.057 8.667-2.88 11.865ZM38.84 61.952c-.966 2.366-3.012 8.44-4.244 8.1-1.06-.284-1.705-4.882-.208-9.424.758-2.29 2.368-5.015 3.315-6.075 1.535-1.703 3.202-2.27 3.619-1.57.492.908-1.876 7.493-2.482 8.97Zm16.804 8.024c-.416.209-.795.36-.966.246-.133-.075.17-.36.17-.36s2.104-2.251 2.937-3.292c.474-.606 1.042-1.306 1.648-2.1v.227c0 2.725-2.614 4.541-3.789 5.28Zm12.959-2.952c-.303-.227-.265-.927.758-3.122.398-.87 1.307-2.328 2.88-3.71.189.568.303 1.117.284 1.628-.02 3.406-2.444 4.674-3.922 5.204Z"/><defs><linearGradient id="a" x1="0" x2="89.077" y1="84.811" y2="22.184" gradientUnits="userSpaceOnUse"><stop offset=".008" stop-color="#5C03BC"/><stop offset=".531" stop-color="#E536AB"/><stop offset=".899" stop-color="#F4E5F0"/></linearGradient></defs></svg>