<svg xmlns="http://www.w3.org/2000/svg" width="97" height="97" fill="none"><g clip-path="url(#a)"><path fill="url(#b)" fill-rule="evenodd" d="M5.043 1.862h87.383c1.957 0 3.543 1.567 3.543 3.5v86.34c0 1.933-1.586 3.5-3.543 3.5H5.043c-1.957 0-3.543-1.567-3.543-3.5V5.361c0-1.933 1.586-3.5 3.543-3.5ZM54.015 51.52v-7.655H20.394v7.655h12.003v34.086h9.556V51.52h12.062Zm3.81 33.186c1.54.776 3.363 1.358 5.466 1.746 2.105.388 4.322.582 6.653.582 2.272 0 4.43-.213 6.475-.64 2.045-.427 3.837-1.13 5.378-2.11s2.761-2.261 3.66-3.843c.899-1.582 1.348-3.537 1.348-5.865 0-1.689-.257-3.168-.77-4.44a10.35 10.35 0 0 0-2.223-3.391c-.967-.99-2.128-1.878-3.481-2.663-1.354-.786-2.88-1.529-4.579-2.227a58.163 58.163 0 0 1-3.348-1.47c-.988-.476-1.828-.961-2.519-1.456-.692-.495-1.225-1.019-1.6-1.572a3.265 3.265 0 0 1-.563-1.877c0-.64.168-1.218.504-1.732.335-.515.81-.956 1.422-1.325.612-.369 1.363-.655 2.252-.859.889-.203 1.877-.305 2.963-.305.79 0 1.625.058 2.504.174.88.117 1.763.297 2.652.539.89.242 1.754.548 2.593.917.84.369 1.615.796 2.327 1.28v-8.703c-1.443-.543-3.018-.946-4.727-1.208-1.709-.262-3.67-.393-5.882-.393-2.252 0-4.386.238-6.4.713-2.016.476-3.789 1.218-5.32 2.227a11.203 11.203 0 0 0-3.63 3.857c-.89 1.562-1.333 3.43-1.333 5.604 0 2.775.814 5.142 2.444 7.102s4.104 3.62 7.423 4.978c1.304.524 2.519 1.038 3.645 1.543 1.126.505 2.1 1.029 2.919 1.572.82.543 1.467 1.135 1.941 1.775.474.64.711 1.369.711 2.184 0 .602-.148 1.16-.444 1.674-.297.514-.746.96-1.349 1.339-.602.378-1.353.674-2.252.887-.898.214-1.95.32-3.156.32-2.054 0-4.09-.353-6.104-1.062-2.015-.708-3.882-1.77-5.6-3.187v9.315Z" clip-rule="evenodd"/></g><defs><linearGradient id="b" x1="-1.613" x2="102.85" y1="95.202" y2="-9.476" gradientUnits="userSpaceOnUse"><stop offset=".008" stop-color="#5C03BC"/><stop offset=".531" stop-color="#E536AB"/><stop offset=".899" stop-color="#F4E5F0"/></linearGradient><clipPath id="a"><path fill="#fff" d="M1.5 2h94v93h-94z"/></clipPath></defs></svg>