<svg xmlns="http://www.w3.org/2000/svg" width="97" height="97" fill="none"><mask id="d" width="97" height="97" x="0" y="0" maskUnits="userSpaceOnUse" style="mask-type:alpha"><g clip-path="url(#a)"><mask id="b" width="97" height="97" x="0" y="0" maskUnits="userSpaceOnUse" style="mask-type:alpha"><path fill="#fff" fill-rule="evenodd" d="M68.784 96.338a6.036 6.036 0 0 0 4.812-.185l19.971-9.61A6.063 6.063 0 0 0 97 81.08V15.92a6.063 6.063 0 0 0-3.433-5.463L73.597.847a6.04 6.04 0 0 0-6.891 1.174L28.474 36.9 11.822 24.258a4.037 4.037 0 0 0-5.159.23l-5.34 4.858a4.043 4.043 0 0 0-.005 5.977L15.76 48.5 1.318 61.676a4.043 4.043 0 0 0 .004 5.977l5.341 4.858a4.037 4.037 0 0 0 5.159.23L28.474 60.1l38.232 34.88a6.03 6.03 0 0 0 2.078 1.358Zm3.98-69.858L43.757 48.5l29.009 22.02V26.48Z" clip-rule="evenodd"/></mask><g mask="url(#b)"><path fill="#0065A9" d="M93.568 10.472 73.58.85a6.042 6.042 0 0 0-6.893 1.172L1.26 61.676a4.042 4.042 0 0 0 .004 5.977l5.344 4.858a4.042 4.042 0 0 0 5.162.23l78.79-59.772c2.644-2.005 6.44-.12 6.44 3.198v-.232a6.062 6.062 0 0 0-3.432-5.463Z"/><path fill="#007ACC" d="M93.568 86.528 73.58 96.15a6.042 6.042 0 0 1-6.893-1.172L1.26 35.324a4.042 4.042 0 0 1 .004-5.977l5.344-4.858a4.042 4.042 0 0 1 5.162-.23l78.79 59.772c2.644 2.005 6.44.12 6.44-3.198v.232a6.063 6.063 0 0 1-3.432 5.463Z"/><path fill="#1F9CF0" d="M73.582 96.153a6.044 6.044 0 0 1-6.894-1.174c2.237 2.237 6.062.653 6.062-2.511V4.532c0-3.164-3.825-4.748-6.063-2.511A6.045 6.045 0 0 1 73.582.847l19.983 9.61A6.062 6.062 0 0 1 97 15.921V81.08a6.062 6.062 0 0 1-3.435 5.463l-19.983 9.61Z"/><path fill="url(#c)" fill-rule="evenodd" d="M68.726 96.338a6.037 6.037 0 0 0 4.811-.185l19.971-9.61a6.063 6.063 0 0 0 3.433-5.464V15.921a6.063 6.063 0 0 0-3.433-5.464L73.538.847a6.04 6.04 0 0 0-6.89 1.174L28.415 36.9 11.763 24.258a4.037 4.037 0 0 0-5.159.23l-5.34 4.858a4.043 4.043 0 0 0-.005 5.977L15.7 48.5 1.259 61.676a4.043 4.043 0 0 0 .004 5.977l5.341 4.858a4.037 4.037 0 0 0 5.159.23L28.416 60.1l38.231 34.88a6.031 6.031 0 0 0 2.079 1.358Zm3.98-69.858L43.697 48.5l29.009 22.02V26.48Z" clip-rule="evenodd" opacity=".25" style="mix-blend-mode:overlay"/></g></g></mask><g mask="url(#d)"><path fill="url(#e)" d="M0 0h133.375v96.75H0z"/></g><defs><linearGradient id="c" x1="48.441" x2="48.441" y1=".25" y2="96.75" gradientUnits="userSpaceOnUse"><stop stop-color="#fff"/><stop offset="1" stop-color="#fff" stop-opacity="0"/></linearGradient><linearGradient id="e" x1="26.445" x2="70.039" y1="83.173" y2="-16.852" gradientUnits="userSpaceOnUse"><stop offset=".008" stop-color="#5C03BC"/><stop offset=".531" stop-color="#E536AB"/><stop offset=".899" stop-color="#F4E5F0"/></linearGradient><clipPath id="a"><path fill="#fff" d="M0 0h97v97H0z"/></clipPath></defs></svg>