<svg width="97" height="97" viewBox="0 0 97 97" fill="none" xmlns="http://www.w3.org/2000/svg">
<mask id="mask0_24_983" style="mask-type:alpha" maskUnits="userSpaceOnUse" x="0" y="0" width="97" height="97">
<g clip-path="url(#clip0_24_983)">
<mask id="mask1_24_983" style="mask-type:alpha" maskUnits="userSpaceOnUse" x="0" y="0" width="97" height="97">
<path fill-rule="evenodd" clip-rule="evenodd" d="M68.7845 96.3376C70.3123 96.9328 72.0543 96.8947 73.5963 96.1526L93.567 86.5431C95.6655 85.5334 97 83.4095 97 81.0796V15.9209C97 13.591 95.6656 11.4672 93.5671 10.4574L73.5963 0.847558C71.5726 -0.126211 69.2043 0.112302 67.4281 1.40356C67.1744 1.58801 66.9327 1.79396 66.7059 2.02092L28.4744 36.9003L11.8216 24.2593C10.2713 23.0826 8.10302 23.179 6.66325 24.4887L1.32214 29.3473C-0.438975 30.9492 -0.440994 33.7198 1.31777 35.3245L15.7597 48.5001L1.31777 61.6757C-0.440994 63.2803 -0.438975 66.051 1.32214 67.653L6.66325 72.5115C8.10302 73.8212 10.2713 73.9176 11.8216 72.7408L28.4744 60.0999L66.7059 94.9792C67.3107 95.5844 68.0209 96.0401 68.7845 96.3376ZM72.7647 26.4799L43.7558 48.5001L72.7647 70.5202V26.4799Z" fill="white"/>
</mask>
<g mask="url(#mask1_24_983)">
<path d="M93.5677 10.4724L73.5813 0.849316C71.2679 -0.26455 68.5032 0.205303 66.6876 2.02087L1.25974 61.6757C-0.500102 63.2802 -0.498079 66.0509 1.26411 67.6529L6.60846 72.5114C8.04911 73.8211 10.2188 73.9175 11.7699 72.7408L90.5602 12.9688C93.2035 10.9636 97.0001 12.8489 97.0001 16.1667V15.9347C97.0001 13.6057 95.666 11.4827 93.5677 10.4724Z" fill="#0065A9"/>
<path d="M93.5677 86.5277L73.5813 96.1508C71.2679 97.2648 68.5032 96.7948 66.6876 94.9792L1.25974 35.3244C-0.500102 33.7198 -0.498079 30.9491 1.26411 29.3472L6.60846 24.4886C8.04911 23.1789 10.2188 23.0825 11.7699 24.2592L90.5602 84.0312C93.2035 86.0365 97.0001 84.1512 97.0001 80.8334V81.0654C97.0001 83.3943 95.666 85.5173 93.5677 86.5277Z" fill="#007ACC"/>
<path d="M73.5821 96.1525C71.2679 97.2658 68.5032 96.7949 66.6875 94.9791C68.9247 97.2163 72.75 95.6318 72.75 92.468V4.53198C72.75 1.36809 68.9247 -0.216401 66.6875 2.0208C68.5032 0.205072 71.2679 -0.265444 73.5821 0.847436L93.5649 10.4573C95.6647 11.4671 97 13.5909 97 15.9208V81.0795C97 83.4094 95.6647 85.5333 93.5648 86.543L73.5821 96.1525Z" fill="#1F9CF0"/>
<g style="mix-blend-mode:overlay" opacity="0.25">
<path fill-rule="evenodd" clip-rule="evenodd" d="M68.7257 96.3376C70.2534 96.9327 71.9956 96.8946 73.5375 96.1526L93.5081 86.5431C95.6066 85.5334 96.9411 83.4095 96.9411 81.0795V15.9209C96.9411 13.5909 95.6067 11.4671 93.5082 10.4573L73.5375 0.847498C71.5139 -0.126271 69.1454 0.112241 67.3692 1.40349C67.1156 1.58795 66.8739 1.7939 66.6471 2.02086L28.4156 36.9002L11.7627 24.2593C10.2126 23.0825 8.04418 23.179 6.60441 24.4886L1.2633 29.3472C-0.497813 30.9492 -0.499832 33.7198 1.25894 35.3244L15.7008 48.5L1.25894 61.6757C-0.499832 63.2803 -0.497813 66.0509 1.2633 67.6529L6.60441 72.5114C8.04418 73.8211 10.2126 73.9175 11.7627 72.7408L28.4156 60.0999L66.6471 94.9792C67.2519 95.5843 67.962 96.0401 68.7257 96.3376ZM72.7059 26.4799L43.697 48.5L72.7059 70.5202V26.4799Z" fill="url(#paint0_linear_24_983)"/>
</g>
</g>
</g>
</mask>
<g mask="url(#mask0_24_983)">
<rect width="133.375" height="96.7501" fill="url(#paint1_linear_24_983)"/>
</g>
<defs>
<linearGradient id="paint0_linear_24_983" x1="48.4411" y1="0.250091" x2="48.4411" y2="96.75" gradientUnits="userSpaceOnUse">
<stop stop-color="white"/>
<stop offset="1" stop-color="white" stop-opacity="0"/>
</linearGradient>
<linearGradient id="paint1_linear_24_983" x1="26.4448" y1="83.1733" x2="70.0392" y2="-16.8523" gradientUnits="userSpaceOnUse">
<stop offset="0.00833321" stop-color="#5C03BC"/>
<stop offset="0.53125" stop-color="#E536AB"/>
<stop offset="0.898958" stop-color="#F4E5F0"/>
</linearGradient>
<clipPath id="clip0_24_983">
<rect width="97" height="97" fill="white"/>
</clipPath>
</defs>
</svg>
