<svg xmlns="http://www.w3.org/2000/svg" width="97" height="97" fill="none"><mask id="b" width="89" height="97" x="4" y="0" maskUnits="userSpaceOnUse" style="mask-type:alpha"><g clip-path="url(#a)"><path fill="#8ED6FB" d="M89.54 74.763 50.23 97V79.68l24.47-13.474 14.841 8.55v.007Zm2.692-2.44V25.822l-14.383 8.312v29.894l14.383 8.297ZM7.46 74.764 46.77 97V79.68l-24.47-13.474L7.46 74.763Zm-2.692-2.44V25.822l14.383 8.312v29.894L4.768 72.324Zm1.69-49.518L46.77 0v16.735L20.934 30.944l-.205.11-14.272-8.249Zm84.085 0L50.229 0v16.735l25.836 14.209.206.118 14.272-8.249v-.008Z"/><path fill="#1C78C0" d="m46.771 75.781-24.17-13.34V36.114l24.17 13.957v25.71Zm3.458 0 24.17-13.325V36.114L50.23 50.072v25.71ZM24.234 33.154 48.5 19.734l24.266 13.341L48.5 47.08 24.234 33.075v.08Z"/></g></mask><g mask="url(#b)"><path fill="url(#c)" d="M4.768 0h87.464v97H4.768z"/></g><defs><linearGradient id="c" x1="22.11" x2="77.175" y1="83.388" y2=".747" gradientUnits="userSpaceOnUse"><stop offset=".008" stop-color="#5C03BC"/><stop offset=".531" stop-color="#E536AB"/><stop offset=".899" stop-color="#F4E5F0"/></linearGradient><clipPath id="a"><path fill="#fff" d="M4.768 0h87.464v97H4.768z"/></clipPath></defs></svg>