<svg xmlns="http://www.w3.org/2000/svg" width="892" height="893" fill="none"><path fill="#5C03BC" stroke="#C086FF" stroke-width="2" d="M349.524 350h192.949v192.949H349.524z"/><path fill="#fff" fill-rule="evenodd" d="m372.16 443.229 3.468 3.955-.646 5.273h-3.955l-6.935-7.91.316-2.637 8.886-7.91h3.955l-.646 5.273-4.443 3.956Zm.373-11.229-10.02 8.92-.513 4.274 8.12 9.263h6.632l.157-1.281 5.772 6.597.657-5.316h34.242l4.651 5.316.658-5.316h13.188l.158-1.281 1.12 1.281h14.852l1.048-.932-.114.932h9.304l.62-5.063 4.443 5.063h12.784l-5.958-6.789 1.064-.946 2.154 2.462h2.608l-.154 1.283 8.145 9.307 1.306-10.59h2.947l1.054-.937-.768 6.21h6.755l15.473-13.783 2.086 2.38-3.524 3.137-1.012 8.266h6.976l10.02-8.92.513-4.274-8.12-9.263h-10.673l-14.618 13.021L498.162 432h-9.305l-.926 7.597-.355.313h-3.564l.965-7.91h-9.302l-.157 1.281-1.121-1.281H455.9l-.157 1.281-1.121-1.281H439.77l-1.048.932.114-.932h-9.613l-2.028 1.803-1.577-1.803h-35.946l-2.028 1.803-1.577-1.803h-13.534Zm6.035 2-1.938 15.82 4.614 5.274 1.793-14.502.738-.659.58.659-1.463 11.865h5.273l1.464-11.865.738-.659.58.659-1.463 11.865h5.273L397.025 434h-6.592l-2.966 2.637-2.308-2.637h-6.591Zm-3.22 9.831.105-.856-.48.428.375.428ZM398.343 434l-2.268 18.457h21.094l-4.627-5.273h-10.547l.158-1.319h9.229l3.296-5.273h-11.866l.158-1.319h10.547l4.44-3.955-1.777 14.502 4.615 5.274 1.793-14.502.738-.659.58.659-1.463 11.865h5.273l1.463-11.865.739-.659.58.659-1.464 11.865h5.274L436.575 434h-6.591l-2.967 2.637L424.71 434h-26.367Zm16.233 12.469.296-2.414-1.005 1.607.709.807Zm22.988-9.832-1.608 13.183 2.307 2.637h13.184l2.966-2.637 1.608-13.183-2.307-2.637h-13.183l-2.967 2.637Zm17.838 15.82h5.273l.646-5.273h2.465l4.628 5.273h7.462l-4.628-5.273h.62l2.966-2.637.963-7.91L473.49 434h-15.821l-2.267 18.457Zm20.751-7.91 2.307 2.637h3.955l-.317 2.636 4.615 5.274.975-7.91h3.955l2.967-2.637L495.902 434h-5.274l-.804 6.592-1.49 1.318h-5.273l-1.147-1.318.804-6.592h-5.273l-1.292 10.547ZM511.946 434l-16.532 14.726-.462 3.731h3.731l16.533-14.726.461-3.731h-3.731Zm5.049 0-.646 5.273 3.468 3.956-4.443 3.955-.646 5.273h3.955l8.886-7.91.316-2.637-6.935-7.91h-3.955Zm-68.823 7.273h-3.569l-.348.311-.45 3.6h3.57l.348-.311.449-3.6Zm-.035 5.911h-5.273l-1.16-1.319.659-5.273 1.477-1.319h5.273l1.16 1.319-.659 5.273-1.477 1.319Zm13.83-5.274h6.592l1.49-1.318-1.161-1.319h-6.591l-.33 2.637Z" clip-rule="evenodd"/><path fill="#5C03BC" d="M364.832 613.91h2.5v2.5h-2.5v-2.5Zm-12.516 0h-2.5v-2.5h2.5v2.5Zm13.333 29.696c0 7.364-5.969 13.333-13.333 13.333s-13.334-5.969-13.334-13.333 5.97-13.334 13.334-13.334 13.333 5.97 13.333 13.334Zm1.683-89.131v59.435h-5v-59.435h5Zm-2.5 61.935h-12.516v-5h12.516v5Zm-10.016-2.5v29.696h-5V613.91h5Z"/><path fill="#C086FF" d="M361.418 543.476h6.827v21.998h-6.827z"/><path fill="#5C03BC" d="m377.869 663.162 1.768 1.768.732-.732v-1.036h-2.5Zm-25.099 25.099v2.5h1.036l.732-.733-1.768-1.767Zm-116.193 0c0 7.363 5.97 13.333 13.334 13.333 7.363 0 13.333-5.97 13.333-13.333 0-7.364-5.97-13.334-13.333-13.334-7.364 0-13.334 5.97-13.334 13.334Zm138.792-128.855v103.756h5V559.406h-5Zm.732 101.988-25.099 25.099 3.536 3.535 25.099-25.098-3.536-3.536Zm-23.331 24.367H249.911v5H352.77v-5Z"/><path fill="#C086FF" d="M374.314 543.476h6.827v21.998h-6.827z"/><path fill="#5C03BC" d="M414.517 575.715h2.5v2.5h-2.5v-2.5Zm-12.516 0h-2.5v-2.5h2.5v2.5Zm13.333 68.27c0 7.364-5.969 13.333-13.333 13.333s-13.333-5.969-13.333-13.333 5.969-13.333 13.333-13.333 13.333 5.969 13.333 13.333Zm1.683-89.13v20.86h-5v-20.86h5Zm-2.5 23.36h-12.516v-5h12.516v5Zm-10.016-2.5v68.27h-5v-68.27h5Z"/><path fill="#C086FF" d="M411.23 543.476h6.827v21.998h-6.827z"/><path fill="#5C03BC" d="m427.413 658.522 1.762 1.773.738-.733v-1.04h-2.5Zm-53.858 53.513-1.762-1.774-.738.734v1.04h2.5Zm-13.333 93.143c0 7.364 5.969 13.334 13.333 13.334s13.334-5.97 13.334-13.334c0-7.363-5.97-13.333-13.334-13.333s-13.333 5.97-13.333 13.333Zm64.691-250.323v103.667h5V554.855h-5Zm.738 101.893-53.858 53.513 3.524 3.547 53.858-53.513-3.524-3.547Zm-54.596 55.287v93.143h5v-93.143h-5Z"/><path fill="#C086FF" d="M424.126 543.476h6.827v21.998h-6.827z"/><path fill="#5C03BC" d="M464.582 751.7h-2.5v1.071l.774.738 1.726-1.809Zm40.962 39.066h2.5v-1.071l-.775-.738-1.725 1.809Zm-13.333 64.477c0 7.364 5.969 13.334 13.333 13.334s13.333-5.97 13.333-13.334-5.969-13.333-13.333-13.333-13.333 5.969-13.333 13.333Zm-30.129-300.388V751.7h5V554.855h-5Zm.774 198.654 40.962 39.066 3.451-3.618-40.962-39.066-3.451 3.618Zm40.188 37.257v64.477h5v-64.477h-5Z"/><path fill="#C086FF" d="M461.042 543.476h6.827v21.998h-6.827z"/><path fill="#5C03BC" d="m477.478 717.548-1.754 1.781-.746-.734v-1.047h2.5Zm68.27 67.228 1.754-1.781.746.735v1.046h-2.5ZM559.081 878c0 7.364-5.969 13.333-13.333 13.333s-13.334-5.969-13.334-13.333 5.97-13.333 13.334-13.333 13.333 5.969 13.333 13.333Zm-79.103-323.145v162.693h-5V554.855h5Zm-.746 160.911 68.27 67.229-3.508 3.563-68.27-67.229 3.508-3.563Zm69.016 69.01V878h-5v-93.224h5Z"/><path fill="#C086FF" d="M473.938 543.476h6.827v21.998h-6.827z"/><path fill="#5C03BC" d="m514.647 668.472-1.768 1.768-.732-.733v-1.035h2.5Zm25.098 25.099v2.5h-1.035l-.732-.733 1.767-1.767Zm116.193 0c0 7.363-5.969 13.333-13.333 13.333s-13.333-5.97-13.333-13.333c0-7.364 5.969-13.334 13.333-13.334s13.333 5.97 13.333 13.334ZM517.147 564.716v103.756h-5V564.716h5Zm-.733 101.988 25.099 25.099-3.535 3.535-25.099-25.098 3.535-3.536Zm23.331 24.367h102.86v5h-102.86v-5Z"/><path fill="#C086FF" d="M510.854 543.476h6.827v21.998h-6.827z"/><path fill="#5C03BC" d="M527.542 585.576h-2.5v2.5h2.5v-2.5Zm24.274 0h2.5v-2.5h-2.5v2.5Zm-13.333 70.167c0 7.363 5.969 13.333 13.333 13.333s13.333-5.97 13.333-13.333c0-7.364-5.969-13.334-13.333-13.334s-13.333 5.97-13.333 13.334Zm-13.441-91.027v20.86h5v-20.86h-5Zm2.5 23.36h24.274v-5h-24.274v5Zm21.774-2.5v70.167h5v-70.167h-5Z"/><path fill="#C086FF" d="M523.75 543.476h6.827v21.998h-6.827z"/><path fill="#5C03BC" d="M527.684 278.09h-2.5v-2.5h2.5v2.5Zm12.516 0h2.5v2.5h-2.5v-2.5Zm-13.333-29.696c0-7.364 5.969-13.333 13.333-13.333s13.334 5.969 13.334 13.333-5.97 13.333-13.334 13.333-13.333-5.969-13.333-13.333Zm-1.683 89.13V278.09h5v59.434h-5Zm2.5-61.934H540.2v5h-12.516v-5Zm10.016 2.5v-29.696h5v29.696h-5Z"/><path fill="#C086FF" d="M531.097 348.523h-6.827v-21.998h6.827z"/><path fill="#5C03BC" d="m514.647 228.838-1.768-1.768-.732.732v1.036h2.5Zm25.099-25.099v-2.5h-1.036l-.732.732 1.768 1.768Zm116.193 0c0-7.364-5.97-13.333-13.334-13.333-7.363 0-13.333 5.969-13.333 13.333s5.97 13.333 13.333 13.333c7.364 0 13.334-5.969 13.334-13.333ZM517.147 332.594V228.838h-5v103.756h5Zm-.732-101.989 25.099-25.098-3.536-3.536-25.099 25.099 3.536 3.535Zm23.331-24.366h102.859v-5H539.746v5Z"/><path fill="#C086FF" d="M518.202 348.523h-6.827v-21.998h6.827z"/><path fill="#5C03BC" d="M477.999 316.285h-2.5v-2.5h2.5v2.5Zm12.516 0h2.5v2.5h-2.5v-2.5Zm-13.334-68.27c0-7.364 5.97-13.333 13.334-13.333s13.333 5.969 13.333 13.333-5.969 13.333-13.333 13.333-13.334-5.969-13.334-13.333Zm-1.682 89.13v-20.86h5v20.86h-5Zm2.5-23.36h12.516v5h-12.516v-5Zm10.016 2.5v-68.27h5v68.27h-5Z"/><path fill="#C086FF" d="M481.286 348.523h-6.827v-21.998h6.827z"/><path fill="#5C03BC" d="m465.103 233.478-1.762-1.773-.738.733v1.04h2.5Zm53.858-53.513 1.762 1.774.738-.734v-1.04h-2.5Zm13.333-93.144c0-7.363-5.969-13.333-13.333-13.333s-13.334 5.97-13.334 13.334c0 7.363 5.97 13.333 13.334 13.333s13.333-5.97 13.333-13.334Zm-64.691 250.324V233.478h-5v103.667h5Zm-.738-101.893 53.858-53.513-3.524-3.547-53.858 53.513 3.524 3.547Zm54.596-55.287V86.821h-5v93.144h5Z"/><path fill="#C086FF" d="M468.39 348.523h-6.827v-21.998h6.827z"/><path fill="#5C03BC" d="M427.934 140.3h2.5v-1.071l-.775-.738-1.725 1.809Zm-40.962-39.066h-2.5v1.071l.774.738 1.726-1.809Zm13.333-64.477c0-7.364-5.97-13.333-13.333-13.333-7.364 0-13.334 5.969-13.334 13.333s5.97 13.333 13.334 13.333c7.363 0 13.333-5.97 13.333-13.333Zm30.129 300.388V140.3h-5v196.845h5Zm-.775-198.654-40.962-39.066-3.451 3.618 40.962 39.066 3.451-3.618Zm-40.187-37.257V36.757h-5v64.477h5Z"/><path fill="#C086FF" d="M431.474 348.523h-6.827v-21.998h6.827z"/><path fill="#5C03BC" d="m415.038 174.452 1.754-1.781.746.734v1.047h-2.5Zm-68.27-67.228-1.754 1.781-.746-.735v-1.046h2.5ZM333.435 14c0-7.364 5.969-13.333 13.333-13.333S360.102 6.637 360.102 14c0 7.364-5.97 13.333-13.334 13.333S333.435 21.363 333.435 14Zm79.103 323.145V174.452h5v162.693h-5Zm.746-160.911-68.27-67.229 3.508-3.563 68.27 67.229-3.508 3.563Zm-69.016-69.01V14h5v93.224h-5Z"/><path fill="#C086FF" d="M418.578 348.523h-6.827v-21.998h6.827z"/><path fill="#5C03BC" d="m377.869 223.528 1.768-1.768.732.732v1.036h-2.5Zm-25.099-25.099v-2.5h1.036l.732.732-1.768 1.768Zm-116.193 0c0-7.364 5.97-13.333 13.334-13.333s13.333 5.969 13.333 13.333-5.969 13.334-13.333 13.334-13.334-5.97-13.334-13.334Zm138.792 128.855V223.528h5v103.756h-5Zm.732-101.988-25.098-25.099 3.535-3.536 25.099 25.099-3.536 3.536Zm-23.331-24.367H249.911v-5H352.77v5Z"/><path fill="#C086FF" d="M381.662 348.523h-6.827v-21.998h6.827z"/><path fill="#5C03BC" d="M364.974 306.424h2.5v-2.5h-2.5v2.5Zm-24.274 0h-2.5v2.5h2.5v-2.5Zm13.333-70.167c0-7.364-5.969-13.333-13.333-13.333s-13.334 5.969-13.334 13.333 5.97 13.333 13.334 13.333 13.333-5.969 13.333-13.333Zm13.441 91.027v-20.86h-5v20.86h5Zm-2.5-23.36H340.7v5h24.274v-5Zm-21.774 2.5v-70.167h-5v70.167h5Z"/><path fill="#C086FF" d="M368.766 348.523h-6.827v-21.998h6.827z"/><path fill="#5C03BC" d="M613.906 527.684v-2.5h2.5v2.5h-2.5Zm0 12.517v2.5h-2.5v-2.5h2.5Zm29.696-13.334c7.363 0 13.333 5.97 13.333 13.334 0 7.363-5.97 13.333-13.333 13.333-7.364 0-13.334-5.97-13.334-13.333 0-7.364 5.97-13.334 13.334-13.334Zm-89.131-1.683h59.435v5h-59.435v-5Zm61.935 2.5v12.517h-5v-12.517h5Zm-2.5 10.017h29.696v5h-29.696v-5Z"/><path fill="#C086FF" d="M543.472 531.098v-6.827h21.998v6.827z"/><path fill="#5C03BC" d="m663.158 514.647 1.768-1.767-.732-.733h-1.036v2.5Zm25.099 25.099h2.5v-1.035l-.732-.733-1.768 1.768Zm0 116.193c7.364 0 13.333-5.969 13.333-13.333s-5.969-13.334-13.333-13.334-13.333 5.97-13.333 13.334 5.969 13.333 13.333 13.333ZM559.402 517.147h103.756v-5H559.402v5Zm101.989-.732 25.098 25.099 3.536-3.536-25.099-25.098-3.535 3.535Zm24.366 23.331v102.86h5v-102.86h-5Z"/><path fill="#C086FF" d="M543.472 518.202v-6.827h21.998v6.827z"/><path fill="#5C03BC" d="M575.711 477.999v-2.5h2.5v2.5h-2.5Zm0 12.516v2.5h-2.5v-2.5h2.5Zm68.27-13.333c7.364 0 13.333 5.97 13.333 13.333 0 7.364-5.969 13.334-13.333 13.334s-13.333-5.97-13.333-13.334c0-7.363 5.969-13.333 13.333-13.333Zm-89.13-1.683h20.86v5h-20.86v-5Zm23.36 2.5v12.516h-5v-12.516h5Zm-2.5 10.016h68.27v5h-68.27v-5Z"/><path fill="#C086FF" d="M543.472 481.286v-6.827h21.998v6.827z"/><path fill="#5C03BC" d="m658.518 465.104 1.773-1.762-.733-.738h-1.04v2.5Zm53.513 53.857-1.774 1.762.734.738h1.04v-2.5Zm93.144 13.334c7.363 0 13.333-5.97 13.333-13.334s-5.97-13.333-13.333-13.333c-7.364 0-13.334 5.969-13.334 13.333s5.97 13.334 13.334 13.334Zm-250.324-64.691h103.667v-5H554.851v5Zm101.894-.738 53.512 53.857 3.547-3.524-53.513-53.857-3.546 3.524Zm55.286 54.595h93.144v-5h-93.144v5Z"/><path fill="#C086FF" d="M543.472 468.391v-6.827h21.998v6.827z"/><path fill="#5C03BC" d="M751.696 427.934v2.5h1.07l.739-.774-1.809-1.726Zm39.066-40.962v-2.5h-1.071l-.738.775 1.809 1.725Zm64.477 13.334c7.364 0 13.333-5.97 13.333-13.334s-5.969-13.333-13.333-13.333-13.333 5.969-13.333 13.333 5.969 13.334 13.333 13.334Zm-300.388 30.128h196.845v-5H554.851v5Zm198.654-.774 39.066-40.962-3.618-3.451-39.066 40.962 3.618 3.451Zm37.257-40.188h64.477v-5h-64.477v5Z"/><path fill="#C086FF" d="M543.472 431.475v-6.827h21.998v6.827z"/><path fill="#5C03BC" d="m717.544 415.039 1.781 1.754-.735.746h-1.046v-2.5Zm67.228-68.27-1.781-1.754.734-.746h1.047v2.5Zm93.224-13.333c7.364 0 13.333 5.969 13.333 13.333s-5.969 13.333-13.333 13.333-13.334-5.969-13.334-13.333 5.97-13.333 13.334-13.333Zm-323.145 79.103h162.693v5H554.851v-5Zm160.911.746 67.229-68.27 3.562 3.508-67.228 68.27-3.563-3.508Zm69.01-69.016h93.224v5h-93.224v-5Z"/><path fill="#C086FF" d="M543.472 418.579v-6.827h21.998v6.827z"/><path fill="#5C03BC" d="m668.468 377.87 1.768 1.767-.733.733h-1.035v-2.5Zm25.099-25.099h2.5v1.036l-.733.732-1.767-1.768Zm0-116.193c7.363 0 13.333 5.97 13.333 13.333 0 7.364-5.97 13.334-13.333 13.334-7.364 0-13.334-5.97-13.334-13.334 0-7.363 5.97-13.333 13.334-13.333ZM564.712 375.37h103.756v5H564.712v-5Zm101.988.732 25.099-25.099 3.535 3.536-25.098 25.098-3.536-3.535Zm24.367-23.331v-102.86h5v102.86h-5Z"/><path fill="#C086FF" d="M543.472 381.662v-6.827h21.998v6.827z"/><path fill="#5C03BC" d="M585.572 364.974v2.5h2.5v-2.5h-2.5Zm0-24.274v-2.5h-2.5v2.5h2.5Zm70.167 13.333c7.364 0 13.333-5.969 13.333-13.333s-5.969-13.333-13.333-13.333-13.334 5.969-13.334 13.333 5.97 13.333 13.334 13.333Zm-91.027 13.441h20.86v-5h-20.86v5Zm23.36-2.5V340.7h-5v24.274h5Zm-2.5-21.774h70.167v-5h-70.167v5Z"/><path fill="#C086FF" d="M543.472 368.767v-6.827h21.998v6.827z"/><path fill="#5C03BC" d="M278.09 364.833v2.5h-2.5v-2.5h2.5Zm0-12.517v-2.5h2.5v2.5h-2.5Zm-29.696 13.334c-7.364 0-13.333-5.97-13.333-13.334 0-7.363 5.969-13.333 13.333-13.333s13.334 5.97 13.334 13.333c0 7.364-5.97 13.334-13.334 13.334Zm89.131 1.683H278.09v-5h59.435v5Zm-61.935-2.5v-12.517h5v12.517h-5Zm2.5-10.017h-29.696v-5h29.696v5Z"/><path fill="#C086FF" d="M348.524 361.419v6.827h-21.998v-6.827z"/><path fill="#5C03BC" d="m228.838 377.869-1.768 1.768.732.732h1.036v-2.5Zm-25.099-25.098h-2.5v1.035l.733.733 1.767-1.768Zm0-116.193c-7.363 0-13.333 5.969-13.333 13.333s5.97 13.333 13.333 13.333c7.364 0 13.334-5.969 13.334-13.333s-5.97-13.333-13.334-13.333Zm128.855 138.791H228.838v5h103.756v-5Zm-101.988.733-25.099-25.099-3.535 3.536 25.098 25.098 3.536-3.535Zm-24.367-23.331v-102.86h-5v102.86h5Z"/><path fill="#C086FF" d="M348.524 374.314v6.827h-21.998v-6.827z"/><path fill="#5C03BC" d="M316.285 414.518v2.5h-2.5v-2.5h2.5Zm0-12.516v-2.5h2.5v2.5h-2.5Zm-68.27 13.333c-7.364 0-13.333-5.969-13.333-13.333s5.969-13.333 13.333-13.333 13.333 5.969 13.333 13.333-5.969 13.333-13.333 13.333Zm89.13 1.683h-20.86v-5h20.86v5Zm-23.36-2.5v-12.516h5v12.516h-5Zm2.5-10.016h-68.27v-5h68.27v5Z"/><path fill="#C086FF" d="M348.524 411.231v6.827h-21.998v-6.827z"/><path fill="#5C03BC" d="m233.478 427.413-1.773 1.763.733.737h1.04v-2.5Zm-53.513-53.857 1.774-1.762-.733-.738h-1.041v2.5Zm-93.143-13.333c-7.364 0-13.334 5.969-13.334 13.333s5.97 13.333 13.334 13.333 13.333-5.969 13.333-13.333-5.97-13.333-13.333-13.333Zm250.323 64.69H233.478v5h103.667v-5Zm-101.893.738-53.513-53.857-3.547 3.524 53.513 53.858 3.547-3.525Zm-55.287-54.595H86.822v5h93.143v-5Z"/><path fill="#C086FF" d="M348.524 424.126v6.827h-21.998v-6.827z"/><path fill="#5C03BC" d="M140.3 464.583v-2.5h-1.07l-.739.774 1.809 1.726Zm-39.066 40.962v2.5h1.071l.738-.775-1.809-1.725Zm-64.477-13.334c-7.364 0-13.333 5.97-13.333 13.334s5.97 13.333 13.333 13.333c7.364 0 13.333-5.969 13.333-13.333s-5.97-13.334-13.333-13.334Zm300.388-30.128H140.3v5h196.845v-5Zm-198.654.774-39.066 40.962 3.618 3.451 39.066-40.962-3.618-3.451Zm-37.257 40.188H36.757v5h64.477v-5Z"/><path fill="#C086FF" d="M348.524 461.042v6.827h-21.998v-6.827z"/><path fill="#5C03BC" d="m174.452 477.478-1.781-1.754.735-.746h1.046v2.5Zm-67.228 68.27 1.781 1.754-.734.746h-1.047v-2.5ZM14 559.082c-7.364 0-13.333-5.97-13.333-13.334S6.637 532.415 14 532.415c7.364 0 13.334 5.969 13.334 13.333S21.364 559.082 14 559.082Zm323.145-79.104H174.452v-5h162.693v5Zm-160.911-.746-67.229 68.27-3.563-3.508 67.229-68.27 3.563 3.508Zm-69.01 69.016H14v-5h93.224v5Z"/><path fill="#C086FF" d="M348.524 473.938v6.827h-21.998v-6.827z"/><path fill="#5C03BC" d="m223.528 514.648-1.768-1.768.733-.732h1.035v2.5Zm-25.099 25.098h-2.5v-1.035l.733-.732 1.767 1.767Zm0 116.193c-7.363 0-13.333-5.969-13.333-13.333s5.97-13.333 13.333-13.333c7.364 0 13.334 5.969 13.334 13.333s-5.97 13.333-13.334 13.333Zm128.855-138.791H223.528v-5h103.756v5Zm-101.988-.733-25.099 25.099-3.535-3.535 25.098-25.099 3.536 3.535Zm-24.367 23.331v102.86h-5v-102.86h5Z"/><path fill="#C086FF" d="M348.524 510.855v6.827h-21.998v-6.827z"/><path fill="#5C03BC" d="M306.424 527.543v-2.5h-2.5v2.5h2.5Zm0 24.274v2.5h2.5v-2.5h-2.5Zm-70.167-13.334c-7.363 0-13.333 5.97-13.333 13.334s5.97 13.333 13.333 13.333c7.364 0 13.334-5.969 13.334-13.333s-5.97-13.334-13.334-13.334Zm91.027-13.44h-20.86v5h20.86v-5Zm-23.36 2.5v24.274h5v-24.274h-5Zm2.5 21.774h-70.167v5h70.167v-5Z"/><path fill="#C086FF" d="M348.524 523.75v6.827h-21.998v-6.827z"/></svg>