<svg width="892" height="893" viewBox="0 0 892 893" fill="none" xmlns="http://www.w3.org/2000/svg">
<rect x="349.524" y="350" width="192.949" height="192.949" fill="#5C03BC" stroke="#C086FF" stroke-width="2"/>
<path fill-rule="evenodd" clip-rule="evenodd" d="M372.16 443.229L375.628 447.184L374.982 452.457H371.027L364.092 444.547L364.408 441.91L373.294 434H377.249L376.603 439.273L372.16 443.229ZM372.533 432L362.513 440.92L362 445.194L370.12 454.457H376.752L376.909 453.176L382.681 459.773L383.338 454.457H417.58L422.231 459.773L422.889 454.457H436.077L436.235 453.176L437.355 454.457H452.207L453.255 453.525L453.141 454.457H462.445L463.065 449.394L467.508 454.457H480.292L474.334 447.668L475.398 446.722L477.552 449.184H480.16L480.006 450.467L488.151 459.774L489.457 449.184H492.404L493.458 448.247L492.69 454.457H499.445L514.918 440.674L517.004 443.054L513.48 446.191L512.468 454.457H519.444L529.464 445.537L529.977 441.263L521.857 432H511.184L496.566 445.021L498.162 432H488.857L487.931 439.597L487.576 439.91H484.012L484.977 432H475.675L475.518 433.281L474.397 432H455.9L455.743 433.281L454.622 432H439.77L438.722 432.932L438.836 432H429.223L427.195 433.803L425.618 432H389.672L387.644 433.803L386.067 432H372.533ZM378.568 434L376.63 449.82L381.244 455.094L383.037 440.592L383.775 439.933L384.355 440.592L382.892 452.457H388.165L389.629 440.592L390.367 439.933L390.947 440.592L389.484 452.457H394.757L397.025 434H390.433L387.467 436.637L385.159 434H378.568ZM375.348 443.831L375.453 442.975L374.973 443.403L375.348 443.831ZM398.343 434L396.075 452.457H417.169L412.542 447.184H401.995L402.153 445.865H411.382L414.678 440.592H402.812L402.97 439.273H413.517L417.957 435.318L416.18 449.82L420.795 455.094L422.588 440.592L423.326 439.933L423.906 440.592L422.443 452.457H427.716L429.179 440.592L429.918 439.933L430.498 440.592L429.034 452.457H434.308L436.575 434H429.984L427.017 436.637L424.71 434H398.343ZM414.576 446.469L414.872 444.055L413.867 445.662L414.576 446.469ZM437.564 436.637L435.956 449.82L438.263 452.457H451.447L454.413 449.82L456.021 436.637L453.714 434H440.531L437.564 436.637ZM455.402 452.457H460.675L461.321 447.184H463.786L468.414 452.457H475.876L471.248 447.184H471.868L474.834 444.547L475.797 436.637L473.49 434H457.669L455.402 452.457ZM476.153 444.547L478.46 447.184H482.415L482.098 449.82L486.713 455.094L487.688 447.184H491.643L494.61 444.547L495.902 434H490.628L489.824 440.592L488.334 441.91H483.061L481.914 440.592L482.718 434H477.445L476.153 444.547ZM511.946 434L495.414 448.726L494.952 452.457H498.683L515.216 437.731L515.677 434H511.946ZM516.995 434L516.349 439.273L519.817 443.229L515.374 447.184L514.728 452.457H518.683L527.569 444.547L527.885 441.91L520.95 434H516.995ZM448.172 441.273H444.603L444.255 441.584L443.805 445.184H447.375L447.723 444.873L448.172 441.273ZM448.137 447.184H442.864L441.704 445.865L442.363 440.592L443.84 439.273H449.113L450.273 440.592L449.614 445.865L448.137 447.184ZM461.967 441.91H468.559L470.049 440.592L468.888 439.273H462.297L461.967 441.91Z" fill="white"/>
<path d="M364.832 613.91H367.332V616.41H364.832V613.91ZM352.316 613.91H349.816V611.41H352.316V613.91ZM365.649 643.606C365.649 650.97 359.68 656.939 352.316 656.939C344.952 656.939 338.982 650.97 338.982 643.606C338.982 636.242 344.952 630.272 352.316 630.272C359.68 630.272 365.649 636.242 365.649 643.606ZM367.332 554.475V613.91H362.332V554.475H367.332ZM364.832 616.41H352.316V611.41H364.832V616.41ZM354.816 613.91V643.606H349.816V613.91H354.816Z" fill="#5C03BC"/>
<rect x="361.418" y="543.476" width="6.82701" height="21.9981" fill="#C086FF"/>
<path d="M377.869 663.162L379.637 664.93L380.369 664.198V663.162H377.869ZM352.77 688.261V690.761H353.806L354.538 690.028L352.77 688.261ZM236.577 688.261C236.577 695.624 242.547 701.594 249.911 701.594C257.274 701.594 263.244 695.624 263.244 688.261C263.244 680.897 257.274 674.927 249.911 674.927C242.547 674.927 236.577 680.897 236.577 688.261ZM375.369 559.406V663.162H380.369V559.406H375.369ZM376.101 661.394L351.002 686.493L354.538 690.028L379.637 664.93L376.101 661.394ZM352.77 685.761H249.911V690.761H352.77V685.761Z" fill="#5C03BC"/>
<rect x="374.314" y="543.476" width="6.82701" height="21.9981" fill="#C086FF"/>
<path d="M414.517 575.715H417.017V578.215H414.517V575.715ZM402.001 575.715H399.501V573.215H402.001V575.715ZM415.334 643.985C415.334 651.349 409.365 657.318 402.001 657.318C394.637 657.318 388.668 651.349 388.668 643.985C388.668 636.621 394.637 630.652 402.001 630.652C409.365 630.652 415.334 636.621 415.334 643.985ZM417.017 554.855V575.715H412.017V554.855H417.017ZM414.517 578.215H402.001V573.215H414.517V578.215ZM404.501 575.715V643.985H399.501V575.715H404.501Z" fill="#5C03BC"/>
<rect x="411.23" y="543.476" width="6.82701" height="21.9981" fill="#C086FF"/>
<path d="M427.413 658.522L429.175 660.295L429.913 659.562V658.522H427.413ZM373.555 712.035L371.793 710.261L371.055 710.995V712.035H373.555ZM360.222 805.178C360.222 812.542 366.191 818.512 373.555 818.512C380.919 818.512 386.889 812.542 386.889 805.178C386.889 797.815 380.919 791.845 373.555 791.845C366.191 791.845 360.222 797.815 360.222 805.178ZM424.913 554.855V658.522H429.913V554.855H424.913ZM425.651 656.748L371.793 710.261L375.317 713.808L429.175 660.295L425.651 656.748ZM371.055 712.035V805.178H376.055V712.035H371.055Z" fill="#5C03BC"/>
<rect x="424.126" y="543.476" width="6.82701" height="21.9981" fill="#C086FF"/>
<path d="M464.582 751.7H462.082V752.771L462.856 753.509L464.582 751.7ZM505.544 790.766H508.044V789.695L507.269 788.957L505.544 790.766ZM492.211 855.243C492.211 862.607 498.18 868.577 505.544 868.577C512.908 868.577 518.877 862.607 518.877 855.243C518.877 847.879 512.908 841.91 505.544 841.91C498.18 841.91 492.211 847.879 492.211 855.243ZM462.082 554.855V751.7H467.082V554.855H462.082ZM462.856 753.509L503.818 792.575L507.269 788.957L466.307 749.891L462.856 753.509ZM503.044 790.766V855.243H508.044V790.766H503.044Z" fill="#5C03BC"/>
<rect x="461.042" y="543.476" width="6.82701" height="21.9981" fill="#C086FF"/>
<path d="M477.478 717.548L475.724 719.329L474.978 718.595V717.548H477.478ZM545.748 784.776L547.502 782.995L548.248 783.73V784.776H545.748ZM559.081 878C559.081 885.364 553.112 891.333 545.748 891.333C538.384 891.333 532.414 885.364 532.414 878C532.414 870.636 538.384 864.667 545.748 864.667C553.112 864.667 559.081 870.636 559.081 878ZM479.978 554.855V717.548H474.978V554.855H479.978ZM479.232 715.766L547.502 782.995L543.994 786.558L475.724 719.329L479.232 715.766ZM548.248 784.776V878H543.248V784.776H548.248Z" fill="#5C03BC"/>
<rect x="473.938" y="543.476" width="6.82701" height="21.9981" fill="#C086FF"/>
<path d="M514.647 668.472L512.879 670.24L512.147 669.507V668.472H514.647ZM539.745 693.571V696.071H538.71L537.978 695.338L539.745 693.571ZM655.938 693.571C655.938 700.934 649.969 706.904 642.605 706.904C635.241 706.904 629.272 700.934 629.272 693.571C629.272 686.207 635.241 680.237 642.605 680.237C649.969 680.237 655.938 686.207 655.938 693.571ZM517.147 564.716V668.472H512.147V564.716H517.147ZM516.414 666.704L541.513 691.803L537.978 695.338L512.879 670.24L516.414 666.704ZM539.745 691.071H642.605V696.071H539.745V691.071Z" fill="#5C03BC"/>
<rect x="510.854" y="543.476" width="6.82701" height="21.9981" fill="#C086FF"/>
<path d="M527.542 585.576H525.042V588.076H527.542V585.576ZM551.816 585.576H554.316V583.076H551.816V585.576ZM538.483 655.743C538.483 663.106 544.452 669.076 551.816 669.076C559.18 669.076 565.149 663.106 565.149 655.743C565.149 648.379 559.18 642.409 551.816 642.409C544.452 642.409 538.483 648.379 538.483 655.743ZM525.042 564.716V585.576H530.042V564.716H525.042ZM527.542 588.076H551.816V583.076H527.542V588.076ZM549.316 585.576V655.743H554.316V585.576H549.316Z" fill="#5C03BC"/>
<rect x="523.75" y="543.476" width="6.82701" height="21.9981" fill="#C086FF"/>
<path d="M527.684 278.09L525.184 278.09L525.184 275.59L527.684 275.59L527.684 278.09ZM540.2 278.09L542.7 278.09L542.7 280.59L540.2 280.59L540.2 278.09ZM526.867 248.394C526.867 241.03 532.836 235.061 540.2 235.061C547.564 235.061 553.534 241.03 553.534 248.394C553.534 255.758 547.564 261.727 540.2 261.727C532.836 261.727 526.867 255.758 526.867 248.394ZM525.184 337.524L525.184 278.09L530.184 278.09L530.184 337.524L525.184 337.524ZM527.684 275.59L540.2 275.59L540.2 280.59L527.684 280.59L527.684 275.59ZM537.7 278.09L537.7 248.394L542.7 248.394L542.7 278.09L537.7 278.09Z" fill="#5C03BC"/>
<rect x="531.097" y="348.523" width="6.82701" height="21.9981" transform="rotate(-180 531.097 348.523)" fill="#C086FF"/>
<path d="M514.647 228.838L512.879 227.07L512.147 227.802L512.147 228.838L514.647 228.838ZM539.746 203.739L539.746 201.239L538.71 201.239L537.978 201.971L539.746 203.739ZM655.939 203.739C655.939 196.375 649.969 190.406 642.605 190.406C635.242 190.406 629.272 196.375 629.272 203.739C629.272 211.103 635.242 217.072 642.605 217.072C649.969 217.072 655.939 211.103 655.939 203.739ZM517.147 332.594L517.147 228.838L512.147 228.838L512.147 332.594L517.147 332.594ZM516.415 230.605L541.514 205.507L537.978 201.971L512.879 227.07L516.415 230.605ZM539.746 206.239L642.605 206.239L642.605 201.239L539.746 201.239L539.746 206.239Z" fill="#5C03BC"/>
<rect x="518.202" y="348.523" width="6.82701" height="21.9981" transform="rotate(-180 518.202 348.523)" fill="#C086FF"/>
<path d="M477.999 316.285L475.499 316.285L475.499 313.785L477.999 313.785L477.999 316.285ZM490.515 316.285L493.015 316.285L493.015 318.785L490.515 318.785L490.515 316.285ZM477.181 248.015C477.181 240.651 483.151 234.682 490.515 234.682C497.879 234.682 503.848 240.651 503.848 248.015C503.848 255.379 497.879 261.348 490.515 261.348C483.151 261.348 477.181 255.379 477.181 248.015ZM475.499 337.145L475.499 316.285L480.499 316.285L480.499 337.145L475.499 337.145ZM477.999 313.785L490.515 313.785L490.515 318.785L477.999 318.785L477.999 313.785ZM488.015 316.285L488.015 248.015L493.015 248.015L493.015 316.285L488.015 316.285Z" fill="#5C03BC"/>
<rect x="481.286" y="348.523" width="6.82701" height="21.9981" transform="rotate(-180 481.286 348.523)" fill="#C086FF"/>
<path d="M465.103 233.478L463.341 231.705L462.603 232.438L462.603 233.478L465.103 233.478ZM518.961 179.965L520.723 181.739L521.461 181.005L521.461 179.965L518.961 179.965ZM532.294 86.8215C532.294 79.4577 526.325 73.4882 518.961 73.4882C511.597 73.4882 505.627 79.4577 505.627 86.8215C505.627 94.1853 511.597 100.155 518.961 100.155C526.325 100.155 532.294 94.1853 532.294 86.8215ZM467.603 337.145L467.603 233.478L462.603 233.478L462.603 337.145L467.603 337.145ZM466.865 235.252L520.723 181.739L517.199 178.192L463.341 231.705L466.865 235.252ZM521.461 179.965L521.461 86.8215L516.461 86.8215L516.461 179.965L521.461 179.965Z" fill="#5C03BC"/>
<rect x="468.39" y="348.523" width="6.82701" height="21.9981" transform="rotate(-180 468.39 348.523)" fill="#C086FF"/>
<path d="M427.934 140.3L430.434 140.3L430.434 139.229L429.659 138.491L427.934 140.3ZM386.972 101.234L384.472 101.234L384.472 102.305L385.246 103.043L386.972 101.234ZM400.305 36.7568C400.305 29.393 394.335 23.4235 386.972 23.4235C379.608 23.4235 373.638 29.393 373.638 36.7568C373.638 44.1206 379.608 50.0901 386.972 50.0901C394.335 50.0901 400.305 44.1206 400.305 36.7568ZM430.434 337.145L430.434 140.3L425.434 140.3L425.434 337.145L430.434 337.145ZM429.659 138.491L388.697 99.425L385.246 103.043L426.208 142.109L429.659 138.491ZM389.472 101.234L389.472 36.7568L384.472 36.7568L384.472 101.234L389.472 101.234Z" fill="#5C03BC"/>
<rect x="431.474" y="348.523" width="6.82701" height="21.9981" transform="rotate(-180 431.474 348.523)" fill="#C086FF"/>
<path d="M415.038 174.452L416.792 172.671L417.538 173.405L417.538 174.452L415.038 174.452ZM346.768 107.224L345.014 109.005L344.268 108.27L344.268 107.224L346.768 107.224ZM333.435 14.0001C333.435 6.63629 339.404 0.666778 346.768 0.666779C354.132 0.666779 360.102 6.63629 360.102 14.0001C360.102 21.3639 354.132 27.3334 346.768 27.3334C339.404 27.3334 333.435 21.3639 333.435 14.0001ZM412.538 337.145L412.538 174.452L417.538 174.452L417.538 337.145L412.538 337.145ZM413.284 176.234L345.014 109.005L348.522 105.442L416.792 172.671L413.284 176.234ZM344.268 107.224L344.268 14.0001L349.268 14.0001L349.268 107.224L344.268 107.224Z" fill="#5C03BC"/>
<rect x="418.578" y="348.523" width="6.82701" height="21.9981" transform="rotate(-180 418.578 348.523)" fill="#C086FF"/>
<path d="M377.869 223.528L379.637 221.76L380.369 222.492L380.369 223.528L377.869 223.528ZM352.77 198.429L352.77 195.929L353.806 195.929L354.538 196.661L352.77 198.429ZM236.577 198.429C236.577 191.065 242.547 185.096 249.911 185.096C257.275 185.096 263.244 191.065 263.244 198.429C263.244 205.793 257.275 211.763 249.911 211.763C242.547 211.763 236.577 205.793 236.577 198.429ZM375.369 327.284L375.369 223.528L380.369 223.528L380.369 327.284L375.369 327.284ZM376.101 225.296L351.003 200.197L354.538 196.661L379.637 221.76L376.101 225.296ZM352.77 200.929L249.911 200.929L249.911 195.929L352.77 195.929L352.77 200.929Z" fill="#5C03BC"/>
<rect x="381.662" y="348.523" width="6.82701" height="21.9981" transform="rotate(-180 381.662 348.523)" fill="#C086FF"/>
<path d="M364.974 306.424L367.474 306.424L367.474 303.924L364.974 303.924L364.974 306.424ZM340.7 306.424L338.2 306.424L338.2 308.924L340.7 308.924L340.7 306.424ZM354.033 236.257C354.033 228.893 348.064 222.924 340.7 222.924C333.336 222.924 327.366 228.893 327.366 236.257C327.366 243.621 333.336 249.59 340.7 249.59C348.064 249.59 354.033 243.621 354.033 236.257ZM367.474 327.284L367.474 306.424L362.474 306.424L362.474 327.284L367.474 327.284ZM364.974 303.924L340.7 303.924L340.7 308.924L364.974 308.924L364.974 303.924ZM343.2 306.424L343.2 236.257L338.2 236.257L338.2 306.424L343.2 306.424Z" fill="#5C03BC"/>
<rect x="368.766" y="348.523" width="6.82701" height="21.9981" transform="rotate(-180 368.766 348.523)" fill="#C086FF"/>
<path d="M613.906 527.684L613.906 525.184L616.406 525.184L616.406 527.684L613.906 527.684ZM613.906 540.201L613.906 542.701L611.406 542.701L611.406 540.201L613.906 540.201ZM643.602 526.867C650.965 526.867 656.935 532.837 656.935 540.201C656.935 547.564 650.965 553.534 643.602 553.534C636.238 553.534 630.268 547.564 630.268 540.201C630.268 532.837 636.238 526.867 643.602 526.867ZM554.471 525.184L613.906 525.184L613.906 530.184L554.471 530.184L554.471 525.184ZM616.406 527.684L616.406 540.201L611.406 540.201L611.406 527.684L616.406 527.684ZM613.906 537.701L643.602 537.701L643.602 542.701L613.906 542.701L613.906 537.701Z" fill="#5C03BC"/>
<rect x="543.472" y="531.098" width="6.82701" height="21.9981" transform="rotate(-90 543.472 531.098)" fill="#C086FF"/>
<path d="M663.158 514.647L664.926 512.88L664.194 512.147L663.158 512.147L663.158 514.647ZM688.257 539.746L690.757 539.746L690.757 538.711L690.025 537.978L688.257 539.746ZM688.257 655.939C695.621 655.939 701.59 649.97 701.59 642.606C701.59 635.242 695.621 629.272 688.257 629.272C680.893 629.272 674.924 635.242 674.924 642.606C674.924 649.97 680.893 655.939 688.257 655.939ZM559.402 517.147L663.158 517.147L663.158 512.147L559.402 512.147L559.402 517.147ZM661.391 516.415L686.489 541.514L690.025 537.978L664.926 512.88L661.391 516.415ZM685.757 539.746L685.757 642.606L690.757 642.606L690.757 539.746L685.757 539.746Z" fill="#5C03BC"/>
<rect x="543.472" y="518.202" width="6.82701" height="21.9981" transform="rotate(-90 543.472 518.202)" fill="#C086FF"/>
<path d="M575.711 477.999L575.711 475.499L578.211 475.499L578.211 477.999L575.711 477.999ZM575.711 490.515L575.711 493.015L573.211 493.015L573.211 490.515L575.711 490.515ZM643.981 477.182C651.345 477.182 657.314 483.152 657.314 490.515C657.314 497.879 651.345 503.849 643.981 503.849C636.617 503.849 630.648 497.879 630.648 490.515C630.648 483.152 636.617 477.182 643.981 477.182ZM554.851 475.499L575.711 475.499L575.711 480.499L554.851 480.499L554.851 475.499ZM578.211 477.999L578.211 490.515L573.211 490.515L573.211 477.999L578.211 477.999ZM575.711 488.015L643.981 488.015L643.981 493.015L575.711 493.015L575.711 488.015Z" fill="#5C03BC"/>
<rect x="543.472" y="481.286" width="6.82701" height="21.9981" transform="rotate(-90 543.472 481.286)" fill="#C086FF"/>
<path d="M658.518 465.104L660.291 463.342L659.558 462.604L658.518 462.604L658.518 465.104ZM712.031 518.961L710.257 520.723L710.991 521.461L712.031 521.461L712.031 518.961ZM805.175 532.295C812.538 532.295 818.508 526.325 818.508 518.961C818.508 511.597 812.538 505.628 805.175 505.628C797.811 505.628 791.841 511.597 791.841 518.961C791.841 526.325 797.811 532.295 805.175 532.295ZM554.851 467.604L658.518 467.604L658.518 462.604L554.851 462.604L554.851 467.604ZM656.745 466.866L710.257 520.723L713.804 517.199L660.291 463.342L656.745 466.866ZM712.031 521.461L805.175 521.461L805.175 516.461L712.031 516.461L712.031 521.461Z" fill="#5C03BC"/>
<rect x="543.472" y="468.391" width="6.82701" height="21.9981" transform="rotate(-90 543.472 468.391)" fill="#C086FF"/>
<path d="M751.696 427.934L751.696 430.434L752.766 430.434L753.505 429.66L751.696 427.934ZM790.762 386.972L790.762 384.472L789.691 384.472L788.953 385.247L790.762 386.972ZM855.239 400.306C862.603 400.306 868.572 394.336 868.572 386.972C868.572 379.608 862.603 373.639 855.239 373.639C847.875 373.639 841.906 379.608 841.906 386.972C841.906 394.336 847.875 400.306 855.239 400.306ZM554.851 430.434L751.696 430.434L751.696 425.434L554.851 425.434L554.851 430.434ZM753.505 429.66L792.571 388.698L788.953 385.247L749.887 426.209L753.505 429.66ZM790.762 389.472L855.239 389.472L855.239 384.472L790.762 384.472L790.762 389.472Z" fill="#5C03BC"/>
<rect x="543.472" y="431.475" width="6.82701" height="21.9981" transform="rotate(-90 543.472 431.475)" fill="#C086FF"/>
<path d="M717.544 415.039L719.325 416.793L718.59 417.539L717.544 417.539L717.544 415.039ZM784.772 346.769L782.991 345.015L783.725 344.269L784.772 344.269L784.772 346.769ZM877.996 333.436C885.36 333.436 891.329 339.405 891.329 346.769C891.329 354.133 885.36 360.102 877.996 360.102C870.632 360.102 864.662 354.133 864.662 346.769C864.662 339.405 870.632 333.436 877.996 333.436ZM554.851 412.539L717.544 412.539L717.544 417.539L554.851 417.539L554.851 412.539ZM715.762 413.285L782.991 345.015L786.553 348.523L719.325 416.793L715.762 413.285ZM784.772 344.269L877.996 344.269L877.996 349.269L784.772 349.269L784.772 344.269Z" fill="#5C03BC"/>
<rect x="543.472" y="418.579" width="6.82701" height="21.9981" transform="rotate(-90 543.472 418.579)" fill="#C086FF"/>
<path d="M668.468 377.87L670.236 379.637L669.503 380.37L668.468 380.37L668.468 377.87ZM693.567 352.771L696.067 352.771L696.067 353.807L695.334 354.539L693.567 352.771ZM693.567 236.578C700.93 236.578 706.9 242.548 706.9 249.911C706.9 257.275 700.93 263.245 693.567 263.245C686.203 263.245 680.233 257.275 680.233 249.911C680.233 242.548 686.203 236.578 693.567 236.578ZM564.712 375.37L668.468 375.37L668.468 380.37L564.712 380.37L564.712 375.37ZM666.7 376.102L691.799 351.003L695.334 354.539L670.236 379.637L666.7 376.102ZM691.067 352.771L691.067 249.911L696.067 249.911L696.067 352.771L691.067 352.771Z" fill="#5C03BC"/>
<rect x="543.472" y="381.662" width="6.82701" height="21.9981" transform="rotate(-90 543.472 381.662)" fill="#C086FF"/>
<path d="M585.572 364.974L585.572 367.474L588.072 367.474L588.072 364.974L585.572 364.974ZM585.572 340.7L585.572 338.2L583.072 338.2L583.072 340.7L585.572 340.7ZM655.739 354.033C663.103 354.033 669.072 348.064 669.072 340.7C669.072 333.336 663.103 327.367 655.739 327.367C648.375 327.367 642.405 333.336 642.405 340.7C642.405 348.064 648.375 354.033 655.739 354.033ZM564.712 367.474L585.572 367.474L585.572 362.474L564.712 362.474L564.712 367.474ZM588.072 364.974L588.072 340.7L583.072 340.7L583.072 364.974L588.072 364.974ZM585.572 343.2L655.739 343.2L655.739 338.2L585.572 338.2L585.572 343.2Z" fill="#5C03BC"/>
<rect x="543.472" y="368.767" width="6.82701" height="21.9981" transform="rotate(-90 543.472 368.767)" fill="#C086FF"/>
<path d="M278.09 364.833L278.09 367.333L275.59 367.333L275.59 364.833L278.09 364.833ZM278.09 352.316L278.09 349.816L280.59 349.816L280.59 352.316L278.09 352.316ZM248.394 365.65C241.03 365.65 235.061 359.68 235.061 352.316C235.061 344.953 241.03 338.983 248.394 338.983C255.758 338.983 261.728 344.953 261.728 352.316C261.728 359.68 255.758 365.65 248.394 365.65ZM337.525 367.333L278.09 367.333L278.09 362.333L337.525 362.333L337.525 367.333ZM275.59 364.833L275.59 352.316L280.59 352.316L280.59 364.833L275.59 364.833ZM278.09 354.816L248.394 354.816L248.394 349.816L278.09 349.816L278.09 354.816Z" fill="#5C03BC"/>
<rect x="348.524" y="361.419" width="6.82701" height="21.9981" transform="rotate(90 348.524 361.419)" fill="#C086FF"/>
<path d="M228.838 377.869L227.07 379.637L227.802 380.369L228.838 380.369L228.838 377.869ZM203.739 352.771L201.239 352.771L201.239 353.806L201.972 354.539L203.739 352.771ZM203.739 236.578C196.376 236.578 190.406 242.547 190.406 249.911C190.406 257.275 196.376 263.244 203.739 263.244C211.103 263.244 217.073 257.275 217.073 249.911C217.073 242.547 211.103 236.578 203.739 236.578ZM332.594 375.369L228.838 375.369L228.838 380.369L332.594 380.369L332.594 375.369ZM230.606 376.102L205.507 351.003L201.972 354.539L227.07 379.637L230.606 376.102ZM206.239 352.771L206.239 249.911L201.239 249.911L201.239 352.771L206.239 352.771Z" fill="#5C03BC"/>
<rect x="348.524" y="374.314" width="6.82701" height="21.9981" transform="rotate(90 348.524 374.314)" fill="#C086FF"/>
<path d="M316.285 414.518L316.285 417.018L313.785 417.018L313.785 414.518L316.285 414.518ZM316.285 402.002L316.285 399.502L318.785 399.502L318.785 402.002L316.285 402.002ZM248.015 415.335C240.651 415.335 234.682 409.366 234.682 402.002C234.682 394.638 240.651 388.669 248.015 388.669C255.379 388.669 261.348 394.638 261.348 402.002C261.348 409.366 255.379 415.335 248.015 415.335ZM337.145 417.018L316.285 417.018L316.285 412.018L337.145 412.018L337.145 417.018ZM313.785 414.518L313.785 402.002L318.785 402.002L318.785 414.518L313.785 414.518ZM316.285 404.502L248.015 404.502L248.015 399.502L316.285 399.502L316.285 404.502Z" fill="#5C03BC"/>
<rect x="348.524" y="411.231" width="6.82701" height="21.9981" transform="rotate(90 348.524 411.231)" fill="#C086FF"/>
<path d="M233.478 427.413L231.705 429.176L232.438 429.913L233.478 429.913L233.478 427.413ZM179.965 373.556L181.739 371.794L181.006 371.056L179.965 371.056L179.965 373.556ZM86.8217 360.223C79.4579 360.223 73.4883 366.192 73.4883 373.556C73.4883 380.92 79.4579 386.889 86.8217 386.889C94.1855 386.889 100.155 380.92 100.155 373.556C100.155 366.192 94.1855 360.223 86.8217 360.223ZM337.145 424.913L233.478 424.913L233.478 429.913L337.145 429.913L337.145 424.913ZM235.252 425.651L181.739 371.794L178.192 375.318L231.705 429.176L235.252 425.651ZM179.965 371.056L86.8217 371.056L86.8217 376.056L179.965 376.056L179.965 371.056Z" fill="#5C03BC"/>
<rect x="348.524" y="424.126" width="6.82701" height="21.9981" transform="rotate(90 348.524 424.126)" fill="#C086FF"/>
<path d="M140.3 464.583L140.3 462.083L139.23 462.083L138.491 462.857L140.3 464.583ZM101.234 505.545L101.234 508.045L102.305 508.045L103.043 507.27L101.234 505.545ZM36.7569 492.211C29.3931 492.211 23.4236 498.181 23.4236 505.545C23.4236 512.909 29.3931 518.878 36.7569 518.878C44.1207 518.878 50.0903 512.909 50.0903 505.545C50.0903 498.181 44.1207 492.211 36.7569 492.211ZM337.145 462.083L140.3 462.083L140.3 467.083L337.145 467.083L337.145 462.083ZM138.491 462.857L99.4251 503.819L103.043 507.27L142.109 466.308L138.491 462.857ZM101.234 503.045L36.7569 503.045L36.7569 508.045L101.234 508.045L101.234 503.045Z" fill="#5C03BC"/>
<rect x="348.524" y="461.042" width="6.82701" height="21.9981" transform="rotate(90 348.524 461.042)" fill="#C086FF"/>
<path d="M174.452 477.478L172.671 475.724L173.406 474.978L174.452 474.978L174.452 477.478ZM107.224 545.748L109.005 547.502L108.271 548.248L107.224 548.248L107.224 545.748ZM14.0002 559.082C6.63641 559.082 0.666901 553.112 0.666901 545.748C0.666901 538.384 6.63641 532.415 14.0002 532.415C21.364 532.415 27.3336 538.384 27.3336 545.748C27.3336 553.112 21.364 559.082 14.0002 559.082ZM337.145 479.978L174.452 479.978L174.452 474.978L337.145 474.978L337.145 479.978ZM176.234 479.232L109.005 547.502L105.442 543.994L172.671 475.724L176.234 479.232ZM107.224 548.248L14.0002 548.248L14.0002 543.248L107.224 543.248L107.224 548.248Z" fill="#5C03BC"/>
<rect x="348.524" y="473.938" width="6.82701" height="21.9981" transform="rotate(90 348.524 473.938)" fill="#C086FF"/>
<path d="M223.528 514.648L221.76 512.88L222.493 512.148L223.528 512.148L223.528 514.648ZM198.429 539.746L195.929 539.746L195.929 538.711L196.662 537.979L198.429 539.746ZM198.429 655.939C191.066 655.939 185.096 649.97 185.096 642.606C185.096 635.242 191.066 629.273 198.429 629.273C205.793 629.273 211.763 635.242 211.763 642.606C211.763 649.97 205.793 655.939 198.429 655.939ZM327.284 517.148L223.528 517.148L223.528 512.148L327.284 512.148L327.284 517.148ZM225.296 516.415L200.197 541.514L196.662 537.979L221.76 512.88L225.296 516.415ZM200.929 539.746L200.929 642.606L195.929 642.606L195.929 539.746L200.929 539.746Z" fill="#5C03BC"/>
<rect x="348.524" y="510.855" width="6.82701" height="21.9981" transform="rotate(90 348.524 510.855)" fill="#C086FF"/>
<path d="M306.424 527.543L306.424 525.043L303.924 525.043L303.924 527.543L306.424 527.543ZM306.424 551.817L306.424 554.317L308.924 554.317L308.924 551.817L306.424 551.817ZM236.257 538.483C228.894 538.483 222.924 544.453 222.924 551.817C222.924 559.181 228.894 565.15 236.257 565.15C243.621 565.15 249.591 559.181 249.591 551.817C249.591 544.453 243.621 538.483 236.257 538.483ZM327.284 525.043L306.424 525.043L306.424 530.043L327.284 530.043L327.284 525.043ZM303.924 527.543L303.924 551.817L308.924 551.817L308.924 527.543L303.924 527.543ZM306.424 549.317L236.257 549.317L236.257 554.317L306.424 554.317L306.424 549.317Z" fill="#5C03BC"/>
<rect x="348.524" y="523.75" width="6.82701" height="21.9981" transform="rotate(90 348.524 523.75)" fill="#C086FF"/>
</svg>
